<svg xmlns="http://www.w3.org/2000/svg" xmlns:xlink="http://www.w3.org/1999/xlink" xmlns:lucid="lucid" width="1382.2" height="1012.26"><g transform="translate(-220 -187.73521939427104)" lucid:page-tab-id="0_0"><path d="M0 0h1760v1360H0z" fill="#fff"/><path d="M1057.2 726a6 6 0 0 1 6-6h168a6 6 0 0 1 6 6v108a6 6 0 0 1-6 6h-168a6 6 0 0 1-6-6z" stroke="#5e5e5e" stroke-width="3" fill="#fff"/><use xlink:href="#a" transform="matrix(1,0,0,1,1069.200344383753,732) translate(43.31555555555556 44.54666666666667)"/><use xlink:href="#b" transform="matrix(1,0,0,1,1069.200344383753,732) translate(2.0000000000000284 65.88)"/><path d="M1446.2 775.43c-13.25 0-24-10.75-24-24 0-10.6 6.5-19.55 16.58-22.83-.58-31.17 39.42-37.17 55.42-25.17 8-18 48-12 48 6 24-6 48 18 32 48 16 24 0 54-32 42-8 15.6-40 15.6-48 0-16 12-48 6-48-24z" stroke="#5e5e5e" stroke-width="3" fill="#fff"/><use xlink:href="#c" transform="matrix(1,0,0,1,1427.200344383753,696.4256286869793) translate(25.33333333333333 63.18333333333334)"/><path d="M1057.2 1020.8a6 6 0 0 1 6-6h168a6 6 0 0 1 6 6v108a6 6 0 0 1-6 6h-168a6 6 0 0 1-6-6z" stroke="#5e5e5e" stroke-width="3" fill="#fff"/><use xlink:href="#d" transform="matrix(1,0,0,1,1069.2003443837525,1026.8037721218752) translate(49.68888888888889 53.54666666666667)"/><path d="M1057.2 460.85a6 6 0 0 1 6-6h168a6 6 0 0 1 6 6v108a6 6 0 0 1-6 6h-168a6 6 0 0 1-6-6z" stroke="#5e5e5e" stroke-width="3" fill="#fff"/><use xlink:href="#e" transform="matrix(1,0,0,1,1069.200344383753,466.85125737395845) translate(56.03555555555556 53.54666666666667)"/><path d="M693.5 1020.85a6 6 0 0 1 6-6h168a6 6 0 0 1 6 6v108a6 6 0 0 1-6 6h-168a6 6 0 0 1-6-6z" stroke="#5e5e5e" stroke-width="3" fill="#fff"/><use xlink:href="#f" transform="matrix(1,0,0,1,705.4999999999997,1026.8512573739586) translate(50.18888888888889 35.54666666666667)"/><use xlink:href="#g" transform="matrix(1,0,0,1,705.4999999999997,1026.8512573739586) translate(41.726666666666674 56.879999999999995)"/><use xlink:href="#h" transform="matrix(1,0,0,1,705.4999999999997,1026.8512573739586) translate(52.72000000000001 73.82666666666665)"/><path d="M693.5 726.05a6 6 0 0 1 6-6h168a6 6 0 0 1 6 6v108a6 6 0 0 1-6 6h-168a6 6 0 0 1-6-6z" stroke="#5e5e5e" stroke-width="2" fill="#fff"/><use xlink:href="#i" transform="matrix(1,0,0,1,705.4999999999995,732.0474852520831) translate(61.25555555555556 35.54666666666667)"/><use xlink:href="#j" transform="matrix(1,0,0,1,705.4999999999995,732.0474852520831) translate(50.980000000000004 56.879999999999995)"/><use xlink:href="#k" transform="matrix(1,0,0,1,705.4999999999995,732.0474852520831) translate(63.02 73.82666666666665)"/><path d="M878.94 1075.85h-2.98v-2h2.98zm9.93 0h-5.96v-2h5.97zm9.93 0h-5.96v-2h5.96zm9.93 0h-5.96v-2h5.96zm9.93 0h-5.96v-2h5.96zm101.12-.05h-6.16v-2h6.16zm10.27 0h-6.16v-2h6.15zm7.2 0h-3.1v-2h3.1z" stroke="#5e5e5e" stroke-width=".05" fill="#5e5e5e"/><path d="M876 1075.85h-1.04v-2H876z" fill="#5e5e5e"/><path d="M876 1075.88h-1.06v-2.05H876zm-1-2v1.95h.96v-1.95z" stroke="#5e5e5e" stroke-width=".05" fill="#5e5e5e"/><path d="M1052.5 1074.8l-14.26 4.64v-9.27z" fill="#5e5e5e"/><path d="M1055.74 1074.8l-18.5 6.02v-12.03zm-16.5 3.26l10.02-3.26-10.02-3.26z" stroke="#5e5e5e" stroke-width=".05" fill="#5e5e5e"/><use xlink:href="#l" transform="matrix(1,0,0,1,921.1190610807649,1064.1608480812502) translate(0.005000000000002558 17.546666666666667)"/><use xlink:href="#m" transform="matrix(1,0,0,1,921.1190610807649,1064.1608480812502) translate(60.058333333333344 17.546666666666667)"/><path d="M1446.2 984c-13.25 0-24-10.75-24-24 0-10.6 6.5-19.55 16.58-22.83C1438.2 906 1478.2 900 1494.2 912c8-18 48-12 48 6 24-6 48 18 32 48 16 24 0 54-32 42-8 15.6-40 15.6-48 0-16 12-48 6-48-24z" stroke="#5e5e5e" stroke-width="3" fill="#fff"/><use xlink:href="#n" transform="matrix(1,0,0,1,1427.200344383753,905) translate(40.53333333333333 63.18333333333334)"/><path d="M1446.2 1144c-13.25 0-24-10.75-24-24 0-10.6 6.5-19.55 16.58-22.83-.58-31.17 39.42-37.17 55.42-25.17 8-18 48-12 48 6 24-6 48 18 32 48 16 24 0 54-32 42-8 15.6-40 15.6-48 0-16 12-48 6-48-24z" stroke="#5e5e5e" stroke-width="3" fill="#fff"/><use xlink:href="#o" transform="matrix(1,0,0,1,1427.200344383753,1065) translate(41.37777777777777 63.18333333333334)"/><path d="M1279.28 742.58h-22.14v-2h22.14zm234.4-92.3l1.07.26 1.02.42.94.57.84.7.7.85.6.94.4 1 .27 1.12.1 16.55h-2l-.08-16.32-.18-.73-.3-.72-.4-.67-.52-.6-.6-.5-.66-.42-.73-.3-.76-.18-.82-.06-151.22.07-.72.17-.72.3-.67.4-.58.52-.5.6-.42.67-.3.72-.2.76-.05.84-.07 73.67h-2l.07-73.74.08-1.06.26-1.07.4-1 .58-.95.72-.84.83-.7.94-.58 1.02-.42 1.1-.27 151.53-.07z" stroke="#5e5e5e" stroke-width=".05" fill="#5e5e5e"/><path d="M1256.14 746.2l-14.27-4.62 14.27-4.64z" fill="#5e5e5e"/><path d="M1257.14 747.6l-18.5-6.02 18.5-6.02zm-12.03-6.02l10.04 3.25v-6.5z" stroke="#5e5e5e" stroke-width=".05" fill="#5e5e5e"/><path d="M1518.6 687.96l-4.65-14.27h9.27z" fill="#5e5e5e"/><path d="M1518.6 691.2l-6.02-18.5h12.02zm-3.27-16.5l3.26 10.02 3.25-10.03z" stroke="#5e5e5e" stroke-width=".05" fill="#5e5e5e"/><use xlink:href="#p" transform="matrix(1,0,0,1,1471.436879852562,625.8626301829207) translate(0 17.546666666666667)"/><use xlink:href="#q" transform="matrix(1,0,0,1,1471.436879852562,625.8626301829207) translate(40.906666666666666 17.546666666666667)"/><use xlink:href="#r" transform="matrix(1,0,0,1,1279.2844444444445,730.908443021776) translate(0 17.546666666666667)"/><use xlink:href="#q" transform="matrix(1,0,0,1,1279.2844444444445,730.908443021776) translate(74.11555555555555 17.546666666666667)"/><path d="M1397.3 779.08l1.06.26 1.02.42.94.57.83.72.72.83.57.94.42 1.02.27 1.1.07 169.02.06.82.2.76.3.73.4.67.5.6.6.5.67.4.73.3.72.2 12.32.06v2l-12.56-.07-1.1-.27-1.02-.42-.94-.57-.83-.72-.72-.83-.57-.94-.42-1.02-.26-1.06-.08-1.06-.07-168.86-.18-.72-.3-.73-.4-.67-.52-.6-.6-.5-.66-.4-.73-.3-.76-.2-.82-.06h-29.23v-2h29.3zM1257.17 781v-2h21.7v2z" stroke="#5e5e5e" stroke-width=".05" fill="#5e5e5e"/><path d="M1256.17 784.64L1241.9 780l14.27-4.64z" fill="#5e5e5e"/><path d="M1257.17 786l-18.5-6 18.5-6zm-12.03-6l10.03 3.26v-6.52z" stroke="#5e5e5e" stroke-width=".05" fill="#5e5e5e"/><path d="M1420.7 959.96l.05 1.04h-1.08v-2h1.13z" fill="#5e5e5e"/><path d="M1420.72 959.96l.06 1.06h-1.13V959h1.18zm-1.02-.94V961h1.03l-.06-1.02.1-.94z" stroke="#5e5e5e" stroke-width=".05" fill="#5e5e5e"/><use xlink:href="#s" transform="matrix(1,0,0,1,1278.8604137225075,769.3333333333334) translate(0 17.546666666666667)"/><use xlink:href="#q" transform="matrix(1,0,0,1,1278.8604137225075,769.3333333333334) translate(49.28888888888889 17.546666666666667)"/><path d="M1357.76 1113.96l.07.82.18.76.3.73.42.67.5.6.6.5.67.4.72.3.72.2 40.26.06v2l-40.5-.07-1.1-.27-1.02-.42-.93-.57-.84-.72-.7-.83-.58-.94-.42-1.02-.25-1.06-.1-1.06v-58.87h2zm-.02-80.12h-2l-.05-205.38h2zM1257.2 818.8v-2h20.9v2z" stroke="#5e5e5e" stroke-width=".05" fill="#5e5e5e"/><path d="M1256.2 822.43l-14.27-4.64 14.26-4.64z" fill="#5e5e5e"/><path d="M1257.2 823.8l-18.5-6 18.5-6.02zm-12.04-6l10.03 3.25v-6.5z" stroke="#5e5e5e" stroke-width=".05" fill="#5e5e5e"/><path d="M1417.46 1120l-14.26 4.64v-9.28z" fill="#5e5e5e"/><path d="M1420.7 1120l-18.5 6v-12zm-16.5 3.26l10.03-3.26-10.03-3.26z" stroke="#5e5e5e" stroke-width=".05" fill="#5e5e5e"/><use xlink:href="#t" transform="matrix(1,0,0,1,1278.1022222222223,807.1275313256522) translate(0 17.546666666666667)"/><use xlink:href="#q" transform="matrix(1,0,0,1,1278.1022222222223,807.1275313256522) translate(56.480000000000004 17.546666666666667)"/><use xlink:href="#p" transform="matrix(1,0,0,1,1316.9182339029062,1033.8376660364024) translate(0 17.546666666666667)"/><use xlink:href="#q" transform="matrix(1,0,0,1,1316.9182339029062,1033.8376660364024) translate(40.906666666666666 17.546666666666667)"/><path d="M925.24 761.26h-49.8v-2h49.8zm111.98-.1h-32.3v-2h32.3z" stroke="#5e5e5e" stroke-width=".05" fill="#5e5e5e"/><path d="M1052.5 760.15l-14.28 4.64v-9.28z" fill="#5e5e5e"/><path d="M1055.72 760.15l-18.5 6.02v-12.03zm-16.5 3.26l10.03-3.25-10.03-3.26z" stroke="#5e5e5e" stroke-width=".05" fill="#5e5e5e"/><path d="M875.48 761.27h-1.03v-2h1.03z" fill="#5e5e5e"/><path d="M875.5 761.3h-1.07v-2.06h1.07zm-1.03-2v1.94h.98v-1.95z" stroke="#5e5e5e" stroke-width=".05" fill="#5e5e5e"/><use xlink:href="#p" transform="matrix(1,0,0,1,925.2422774892012,749.5444053831496) translate(0 17.546666666666667)"/><use xlink:href="#q" transform="matrix(1,0,0,1,925.2422774892012,749.5444053831496) translate(40.906666666666666 17.546666666666667)"/><path d="M1054.75 795.14v2H984.5v-2zm-109.03-.02v2l-52.75-.06v-2z" stroke="#5e5e5e" stroke-width=".05" fill="#5e5e5e"/><path d="M1055.75 797.14h-1.03v-2h1.03z" fill="#5e5e5e"/><path d="M1055.77 797.17h-1.07v-2.05h1.07zm-1.02-2v1.95h.97v-1.95z" stroke="#5e5e5e" stroke-width=".05" fill="#5e5e5e"/><path d="M891.98 800.7l-14.27-4.64 14.28-4.64z" fill="#5e5e5e"/><path d="M892.98 802.07l-18.5-6 18.5-6.03zm-12.03-6l10.03 3.25v-6.52z" stroke="#5e5e5e" stroke-width=".05" fill="#5e5e5e"/><use xlink:href="#u" transform="matrix(1,0,0,1,945.719973521776,785.4316124186471) translate(0.004999999999999005 17.546666666666667)"/><path d="M723.63 346a6 6 0 0 1 6-6h107.75a6 6 0 0 1 6 6v28a6 6 0 0 1-6 6H729.63a6 6 0 0 1-6-6z" stroke="#000" stroke-opacity="0" stroke-width="3" fill="#fff" fill-opacity="0"/><use xlink:href="#v" transform="matrix(1,0,0,1,728.6250000000002,345) translate(0 21.93333333333333)"/><path d="M360 346a6 6 0 0 1 6-6h33a6 6 0 0 1 6 6v28a6 6 0 0 1-6 6h-33a6 6 0 0 1-6-6z" stroke="#000" stroke-opacity="0" stroke-width="3" fill="#fff" fill-opacity="0"/><use xlink:href="#w" transform="matrix(1,0,0,1,365,345) translate(0 21.93333333333333)"/><path d="M300 1020.8a6 6 0 0 1 6-6h168a6 6 0 0 1 6 6v108a6 6 0 0 1-6 6H306a6 6 0 0 1-6-6z" stroke="#5e5e5e" stroke-width="3" fill="#fff"/><use xlink:href="#f" transform="matrix(1,0,0,1,311.9999999999998,1026.8037721218752) translate(50.18888888888889 35.54666666666667)"/><use xlink:href="#x" transform="matrix(1,0,0,1,311.9999999999998,1026.8037721218752) translate(43.58444444444445 56.879999999999995)"/><use xlink:href="#y" transform="matrix(1,0,0,1,311.9999999999998,1026.8037721218752) translate(45.18000000000001 73.82666666666665)"/><path d="M300 726a6 6 0 0 1 6-6h168a6 6 0 0 1 6 6v108a6 6 0 0 1-6 6H306a6 6 0 0 1-6-6z" stroke="#5e5e5e" stroke-width="3" fill="#fff"/><use xlink:href="#i" transform="matrix(1,0,0,1,311.99999999999983,732) translate(61.25555555555556 35.54666666666667)"/><use xlink:href="#x" transform="matrix(1,0,0,1,311.99999999999983,732) translate(43.58444444444445 56.879999999999995)"/><use xlink:href="#z" transform="matrix(1,0,0,1,311.99999999999983,732) translate(55.326666666666675 73.82666666666665)"/><path d="M1102.2 346a6 6 0 0 1 6-6h89.25a6 6 0 0 1 6 6v28a6 6 0 0 1-6 6h-89.25a6 6 0 0 1-6-6z" stroke="#000" stroke-opacity="0" stroke-width="3" fill="#fff" fill-opacity="0"/><use xlink:href="#A" transform="matrix(1,0,0,1,1107.200344383753,345) translate(0 21.93333333333333)"/><path d="M673.53 1073.85v2h-2.9v-2zm-6.74 0v2H661v-2zm-9.65 0v2h-5.8v-2zm-9.64 0v2h-5.78v-2zm-9.64 0v2h-5.78v-2zm-9.64 0v2h-1.43v-2zm-142.63 1.95h-3.14v-2h3.13zm10.42 0h-6.26v-2h6.26zm10.42 0h-6.25v-2h6.24zm10.43 0h-6.26v-2h6.27zm10.43 0h-6.26v-2h6.26zm10.42 0h-6.25v-2h6.25zm9 0h-4.83v-2h4.8z" stroke="#5e5e5e" stroke-width=".05" fill="#5e5e5e"/><path d="M482.5 1075.8h-1.04v-2h1.03z" fill="#5e5e5e"/><path d="M482.5 1075.83h-1.06v-2.05h1.07zm-1-2v1.95h.96v-1.95z" stroke="#5e5e5e" stroke-width=".05" fill="#5e5e5e"/><path d="M688.8 1074.85l-14.27 4.64v-9.28z" fill="#5e5e5e"/><path d="M692.04 1074.85l-18.5 6v-12zm-16.5 3.26l10.02-3.25-10.03-3.26z" stroke="#5e5e5e" stroke-width=".05" fill="#5e5e5e"/><use xlink:href="#B" transform="matrix(1,0,0,1,546.7055555555553,1053.4941814145836) translate(11.516111111111123 17.546666666666667)"/><use xlink:href="#C" transform="matrix(1,0,0,1,546.7055555555553,1053.4941814145836) translate(0.005000000000002558 38.879999999999995)"/><path d="M300 460.85a6 6 0 0 1 6-6h168a6 6 0 0 1 6 6v108a6 6 0 0 1-6 6H306a6 6 0 0 1-6-6z" stroke="#5e5e5e" stroke-width="3" fill="#fff"/><use xlink:href="#D" transform="matrix(1,0,0,1,312.0000000000001,466.85125737395845) translate(69.28222222222223 47.54666666666667)"/><use xlink:href="#E" transform="matrix(1,0,0,1,312.0000000000001,466.85125737395845) translate(51.48666666666668 64.49333333333333)"/><path d="M1425.2 519.04a10.35 10.35 0 0 1 0-10.38l34-58.62a10.4 10.4 0 0 1 9-5.2h68a10.4 10.4 0 0 1 9 5.2l34 58.62a10.35 10.35 0 0 1 0 10.38l-34 58.62a10.4 10.4 0 0 1-9 5.2h-68a10.4 10.4 0 0 1-9-5.2z" stroke="#5e5e5e" stroke-width="3" fill="#fff"/><use xlink:href="#F" transform="matrix(1,0,0,1,1427.200344383753,449.85125737395845) translate(51.77166666666667 73.93333333333334)"/><path d="M1260.1 492.97h-2.95v-2h2.95zm29.54 0h-5.9v-2h5.9zm-9.84 0h-5.9v-2h5.9zm-9.85 0h-5.9v-2h5.9zm38.55 0h-5.07v-2h5.07zm-9 0h-5.92v-2h5.9zm132.7 0h-2.9v-2h2.9zm-6.74 0h-5.78v-2h5.78zm-9.63 0h-5.77v-2h5.77zm-9.62 0h-5.77v-2h5.78zm-9.62 0h-5.78v-2h5.78zm-9.63 0h-3.84v-2h3.85z" stroke="#5e5e5e" stroke-width=".05" fill="#5e5e5e"/><path d="M1432.62 492.97h-.45v-2h1.6z" fill="#5e5e5e"/><path d="M1432.64 493h-.5v-2.06h1.68zm-.44-2v1.94h.4l1.13-1.95z" stroke="#5e5e5e" stroke-width=".05" fill="#5e5e5e"/><path d="M1256.15 496.6l-14.27-4.63 14.27-4.64z" fill="#5e5e5e"/><path d="M1257.15 497.98l-18.5-6 18.5-6.02zm-12.03-6l10.03 3.25v-6.52z" stroke="#5e5e5e" stroke-width=".05" fill="#5e5e5e"/><use xlink:href="#G" transform="matrix(1,0,0,1,1308.495574627792,481.30145701007336) translate(0.005000000000002558 17.546666666666667)"/><use xlink:href="#H" transform="matrix(1,0,0,1,1308.495574627792,481.30145701007336) translate(21.87166666666667 17.546666666666667)"/><path d="M1054.74 514.85h-89.37a.02.02 0 0 0-.02.02.02.02 0 0 1-.02.03h-89.37" stroke="#5e5e5e" stroke-width="2" fill="none"/><path d="M1055.74 515.85h-1.03v-2h1.04zM876 515.9h-1.04v-2H876z" stroke="#5e5e5e" stroke-width=".05" fill="#5e5e5e"/><path d="M693.5 460.9a6 6 0 0 1 6-6h168a6 6 0 0 1 6 6v108a6 6 0 0 1-6 6h-168a6 6 0 0 1-6-6z" fill-opacity="0"/><path d="M709.3 454.97h9.23m6.14 0h9.2m6.16-.02h9.2m6.16 0h9.2m6.14 0h9.22m6.14-.02h9.22m6.14 0h9.22m6.14 0h9.2m6.16-.02h9.2m6.15 0h9.22m6.14 0h4.6l.94.07.9.22.88.35.8.5.72.6.6.72.5.8.37.87.23.92v4.67m0 6.22v9.34m0 6.22l.02 9.33m0 6.23v9.34m.02 6.22v9.34m0 6.22v9.34m.02 6.23V558m0 6.23v4.67l-.07.94-.22.9-.35.88-.5.8-.6.72-.72.6-.8.5-.88.37-.9.22h-4.62m-6.14 0h-9.23m-6.14.02h-9.2m-6.16 0h-9.2m-6.16 0h-9.2m-6.14.02h-9.22m-6.14 0h-9.22m-6.14 0h-9.22m-6.14.02h-9.2m-6.16 0h-9.2m-6.15 0h-9.22m-6.14.02h-4.6l-.94-.08-.9-.2-.88-.38-.8-.5-.72-.6-.6-.7-.5-.82-.37-.87-.23-.9v-4.68m0-6.23v-9.33m0-6.22l-.02-9.34m0-6.22v-9.34m-.02-6.22v-9.34m0-6.23v-9.34m-.02-6.23v-9.34m0-6.23v-4.67l.07-.94.22-.92.35-.87.5-.8.6-.7.72-.63.8-.5.88-.35.9-.23h4.62" stroke="#5e5e5e" stroke-width="3" fill="none"/><use xlink:href="#I" transform="matrix(1,0,0,1,705.4999999999997,466.89874262604155) translate(51.55777777777778 44.54666666666667)"/><use xlink:href="#e" transform="matrix(1,0,0,1,705.4999999999997,466.89874262604155) translate(56.53555555555556 65.88)"/><path d="M502.83 479.48h-2.9v-2h2.9zm9.64 0h-5.78v-2h5.77zm9.65 0h-5.8v-2h5.8zm9.64 0h-5.8v-2h5.8zm4.9 0h-1.05v-2h1.07zm105.34-.02h-5.22v-2H642zm10.43 0h-6.26v-2h6.26zm10.43 0h-6.26v-2h6.26zm10.42 0h-6.25v-2h6.25zm10.43 0h-6.24v-2h6.25zm7.3 0h-3.12v-2H691z" stroke="#5e5e5e" stroke-width=".05" fill="#5e5e5e"/><path d="M498.94 483.1l-14.27-4.62 14.27-4.64z" fill="#5e5e5e"/><path d="M499.94 484.5l-18.5-6.02 18.5-6.02zm-12.03-6.02l10.04 3.25v-6.5z" stroke="#5e5e5e" stroke-width=".05" fill="#5e5e5e"/><path d="M692 479.46h-1v-2h1z" fill="#5e5e5e"/><path d="M692.04 479.48h-1.08v-2.05h1.08zm-1.03-2v1.95h1v-1.95z" stroke="#5e5e5e" stroke-width=".05" fill="#5e5e5e"/><use xlink:href="#J" transform="matrix(1,0,0,1,536.6719496263282,467.7991680295767) translate(0.005000000000002558 17.546666666666667)"/><use xlink:href="#H" transform="matrix(1,0,0,1,536.6719496263282,467.7991680295767) translate(47.365 17.546666666666667)"/><path d="M673.53 515.85h-2.9v-2h2.9zm-6.75 0H661v-2h5.78zm-9.64 0h-5.78v-2h5.78zm-9.64 0h-5.8v-2h5.8zm-9.64 0h-5.8v-2h5.8zm-9.65 0h-3.57v-2h3.58zm-80.04 0h-6.25v-2h6.26zm-10.42 0h-6.26v-2h6.26zm-10.43 0h-6.25v-2h6.26zm-10.42 0h-6.26v-2h6.26zm-10.43 0h-6.26v-2h6.25zm-10.43 0h-6.26v-2h6.26zm-10.43 0h-3.14v-2h3.13z" stroke="#5e5e5e" stroke-width=".05" fill="#5e5e5e"/><path d="M688.8 514.85l-14.27 4.64v-9.28z" fill="#5e5e5e"/><path d="M692.04 514.85l-18.5 6v-12zm-16.5 3.26l10.02-3.25-10.03-3.26z" stroke="#5e5e5e" stroke-width=".05" fill="#5e5e5e"/><path d="M482.5 515.85h-1.04v-2h1.03z" fill="#5e5e5e"/><path d="M482.5 515.88h-1.06v-2.05h1.07zm-1-2v1.95h.96v-1.95z" stroke="#5e5e5e" stroke-width=".05" fill="#5e5e5e"/><use xlink:href="#J" transform="matrix(1,0,0,1,548.8655394438832,504.18460953441314) translate(0.005000000000002558 17.546666666666667)"/><use xlink:href="#m" transform="matrix(1,0,0,1,548.8655394438832,504.18460953441314) translate(47.365 17.546666666666667)"/><path d="M674 746.25v2h-2.9v-2zm-6.75 0v2h-5.8v-2zm-9.66 0v2h-5.8v-2zm-9.68 0v2h-5.8v-2zm-9.66 0v2h-5.8v-2zm-152.7 1.84h-3.12v-2h3.13zm10.46 0h-6.27v-2h6.27zm10.45 0h-6.27v-2h6.27zm10.44 0h-6.26v-2h6.27zm10.46 0h-6.27v-2h6.26zm10.44 0h-6.27v-2h6.27zm5.74 0h-1.56v-2h1.56z" stroke="#5e5e5e" stroke-width=".05" fill="#5e5e5e"/><path d="M482.47 748.1h-1.03v-2h1.03z" fill="#5e5e5e"/><path d="M482.5 748.1h-1.08v-2.04h1.07zm-1.03-2v1.96h.97v-1.95z" stroke="#5e5e5e" stroke-width=".05" fill="#5e5e5e"/><path d="M689.28 747.25L675 751.9v-9.28z" fill="#5e5e5e"/><path d="M692.5 747.25l-18.5 6v-12zM676 750.5l10.04-3.25L676 744z" stroke="#5e5e5e" stroke-width=".05" fill="#5e5e5e"/><use xlink:href="#K" transform="matrix(1,0,0,1,543.5376966758374,736.5033239492595) translate(0.005000000000002558 17.546666666666667)"/><use xlink:href="#m" transform="matrix(1,0,0,1,543.5376966758374,736.5033239492595) translate(58.476111111111116 17.546666666666667)"/><path d="M567.63 813.25l-67.64.06v-2l67.63-.05zm123.93-.13H606.4v-2h85.16z" stroke="#5e5e5e" stroke-width=".05" fill="#5e5e5e"/><path d="M692.56 813.12h-1.03v-2h1.03z" fill="#5e5e5e"/><path d="M692.58 813.15h-1.07v-2.05h1.08zm-1.02-2v1.95h.97v-1.95z" stroke="#5e5e5e" stroke-width=".05" fill="#5e5e5e"/><path d="M499 816.95l-14.28-4.64L499 807.7z" fill="#5e5e5e"/><path d="M500 818.33l-18.5-6.02 18.5-6zm-12.04-6.02l10.03 3.27v-6.5z" stroke="#5e5e5e" stroke-width=".05" fill="#5e5e5e"/><use xlink:href="#u" transform="matrix(1,0,0,1,567.6307448366013,801.551655277647) translate(0 17.546666666666667)"/><path d="M674.03 779.05v2h-47.2v-2zm-191.57 2v-2h64.7v2z" stroke="#5e5e5e" stroke-width=".05" fill="#5e5e5e"/><path d="M482.5 781.05h-1.04v-2h1.03z" fill="#5e5e5e"/><path d="M482.5 781.07h-1.06v-2.05h1.07zm-1-2v1.95h.96v-1.95z" stroke="#5e5e5e" stroke-width=".05" fill="#5e5e5e"/><path d="M689.3 780.05l-14.27 4.63v-9.27z" fill="#5e5e5e"/><path d="M692.54 780.05l-18.5 6v-12zm-16.5 3.26l10.02-3.25-10.03-3.26z" stroke="#5e5e5e" stroke-width=".05" fill="#5e5e5e"/><use xlink:href="#p" transform="matrix(1,0,0,1,547.1555717248352,769.3807997582951) translate(0 17.546666666666667)"/><use xlink:href="#q" transform="matrix(1,0,0,1,547.1555717248352,769.3807997582951) translate(40.906666666666666 17.546666666666667)"/><path d="M546.93 547.6H500v-2h46.93zm144.13-.02h-64.44v-2h64.44z" stroke="#5e5e5e" stroke-width=".05" fill="#5e5e5e"/><path d="M692.06 547.58h-1.03v-2h1.03z" fill="#5e5e5e"/><path d="M692.08 547.6H691v-2.05h1.08zm-1.02-2v1.95h.97v-1.95z" stroke="#5e5e5e" stroke-width=".05" fill="#5e5e5e"/><path d="M499 551.23l-14.28-4.64 14.27-4.64z" fill="#5e5e5e"/><path d="M500 552.6l-18.52-6 18.5-6.02zm-12.04-6l10.03 3.25v-6.5z" stroke="#5e5e5e" stroke-width=".05" fill="#5e5e5e"/><use xlink:href="#p" transform="matrix(1,0,0,1,546.9270840431401,535.9206359585908) translate(0 17.546666666666667)"/><use xlink:href="#q" transform="matrix(1,0,0,1,546.9270840431401,535.9206359585908) translate(40.906666666666666 17.546666666666667)"/><path d="M240 213.74a6 6 0 0 1 6-6h348a6 6 0 0 1 6 6v45.48a6 6 0 0 1-6 6H246a6 6 0 0 1-6-6z" stroke="#000" stroke-opacity="0" stroke-width="3" fill="#fff" fill-opacity="0"/><use xlink:href="#L" transform="matrix(1,0,0,1,245,212.73521939427104) translate(0 35.31999999999999)"/><use xlink:href="#M" transform="matrix(1,0,0,1,245,212.73521939427104) translate(118.47999999999996 35.31999999999999)"/><use xlink:href="#N" transform="matrix(1,0,0,1,245,212.73521939427104) translate(171.19999999999993 35.31999999999999)"/><path d="M1136 240c10.5 0 19 8.95 19 20s-8.5 20-19 20h-57c-10.5 0-19-8.95-19-20s8.5-20 19-20z" stroke="#5e5e5e" stroke-width="3" fill="#fff"/><use xlink:href="#O" transform="matrix(1,0,0,1,1065,245) translate(25.303333333333335 20.97833333333333)"/><path d="M1321 265.15h3m4.02 0h6m4.02 0h6m4.02 0h6m4.02 0h6.02m4 0h6.02m4 0h6.02m4 0h6.03m4 0h6.02m4 0h6m4.02 0h6m4.02 0h6.02m4 0h6.02m4 0h6.02m4 0h6.02m4 0h6.03m4 0h6.02m4 0h6.02m4 0h6m4.02 0h6.02m4 0h6.02m4 0h6.02m4 0h3.02M1321.03 265.15H1320" stroke="#5e5e5e" stroke-width="2" fill="none"/><path d="M1556.76 265.15l-14.26 4.63v-9.27z" stroke="#5e5e5e" stroke-width="2" fill="#5e5e5e"/><use xlink:href="#P" transform="matrix(1,0,0,1,1366.2588888888888,242.48207595937487) translate(0 15.353333333333335)"/><use xlink:href="#Q" transform="matrix(1,0,0,1,1366.2588888888888,242.48207595937487) translate(27.860000000000003 15.353333333333335)"/><use xlink:href="#R" transform="matrix(1,0,0,1,1366.2588888888888,242.48207595937487) translate(53.97777777777779 15.353333333333335)"/><use xlink:href="#S" transform="matrix(1,0,0,1,1366.2588888888888,242.48207595937487) translate(71.89777777777779 15.353333333333335)"/><path d="M1181 265.15h95.5M1181.03 265.15H1180" stroke="#5e5e5e" stroke-width="2" fill="none"/><path d="M1291.76 265.15l-14.26 4.63v-9.27z" stroke="#5e5e5e" stroke-width="2" fill="#5e5e5e"/><use xlink:href="#T" transform="matrix(1,0,0,1,1216.384444444444,242.48207595937487) translate(0 15.353333333333335)"/><path d="M900 246a6 6 0 0 1 6-6h113a6 6 0 0 1 6 6v31.25a6 6 0 0 1-6 6H906a6 6 0 0 1-6-6z" stroke="#5e5e5e" stroke-width="3" fill="#fff"/><use xlink:href="#U" transform="matrix(1,0,0,1,905,245) translate(18.91444444444445 23.85333333333333)"/><path d="M437.72 700h-2l-.02-41.93h2zm-.03-63.26h-2V577.3h2z" stroke="#5e5e5e" stroke-width=".05" fill="#5e5e5e"/><path d="M437.7 577.32h-2v-1.03h2z" fill="#5e5e5e"/><path d="M437.7 577.34h-2.04v-1.07h2.05zm-2-1.02v.97h1.96v-.98z" stroke="#5e5e5e" stroke-width=".05" fill="#5e5e5e"/><path d="M436.72 715.28L432.1 701h9.26z" fill="#5e5e5e"/><path d="M436.72 718.52l-6-18.5h12zm-3.26-16.5l3.26 10.02 3.26-10.03z" stroke="#5e5e5e" stroke-width=".05" fill="#5e5e5e"/><use xlink:href="#p" transform="matrix(1,0,0,1,396.8609513887762,636.7385161452553) translate(0 17.546666666666667)"/><use xlink:href="#q" transform="matrix(1,0,0,1,396.8609513887762,636.7385161452553) translate(40.906666666666666 17.546666666666667)"/><path d="M340.45 717.56h-2V658.1h2zm0-80.78h-2l-.04-41.94h2z" stroke="#5e5e5e" stroke-width=".05" fill="#5e5e5e"/><path d="M340.45 718.56h-2v-1.03h2z" fill="#5e5e5e"/><path d="M340.47 718.58h-2.05v-1.07h2.05zm-2-1.02v.97h1.95v-.97z" stroke="#5e5e5e" stroke-width=".05" fill="#5e5e5e"/><path d="M344.05 593.84h-9.27l4.63-14.27z" fill="#5e5e5e"/><path d="M345.42 594.84H333.4l6-18.5zm-9.27-2h6.52l-3.26-10.03z" stroke="#5e5e5e" stroke-width=".05" fill="#5e5e5e"/><g><use xlink:href="#u" transform="matrix(1,0,0,1,320.03913694396005,636.781099565911) translate(0 17.546666666666667)"/></g><path d="M280.04 1073.8v2h-3.75v-2zm-8.74-.02v2l-7.5-.02v-2zm-17.57-.52l.73.3.72.17h3.63v2h-3.86l-1.1-.27-1.02-.42-.63-.38 1.04-1.7zm-2.73-7.44v2.94l.06.83.2.75.2.53-1.84.77-.28-.68-.26-1.07-.08-1.06v-3.02zm0-9.93v5.95h-2v-5.96zm0-9.95v5.96h-2v-5.95zm0-9.94v5.98h-2V1036zm0-9.92v5.96h-2v-5.96zm0-9.94v5.96h-2v-5.96zm0-9.93v5.97h-2v-5.96zm0-9.93v5.96h-2v-5.96zm0-9.94v5.97h-2v-5.97zm0-9.93v5.96h-2v-5.96zm0-9.94v5.96h-2v-5.96zm0-9.93v5.96h-2v-5.97zm.02-9.94v5.95h-2v-5.96zm0-9.95v5.97h-2v-5.97zm0-9.93v5.96h-2v-5.96zm0-9.94v5.96h-2v-5.96zm0-9.93v5.96h-2v-5.95zm0-9.94v5.97h-2v-5.96zm0-9.93v5.97h-2v-5.97zm0-9.93V883h-2v-5.96zm0-9.94v5.96h-2v-5.96zm0-9.93v5.96h-2v-5.96zm0-9.94v5.96h-2v-5.97zm0-9.94v5.96h-2v-5.97zm0-9.94v5.96h-2v-5.96zm0-9.94v5.96h-2v-5.96zm0-9.93v5.95h-2v-5.97zm0-9.95v5.96h-2v-5.95zm.02-9.94v5.97h-2v-5.96zm0-9.92v5.96h-2v-5.96zm0-9.94v5.96h-2v-5.96zm0-9.94v5.97h-2v-5.97zm0-9.93v5.96h-2v-5.96zm0-9.94v5.96h-2v-5.97zm0-9.93v5.96h-2V728zm0-9.94v5.96h-2v-5.96zm0-9.94v5.97h-2v-5.98zm0-9.93v5.95h-2v-5.96zm0-9.95v5.96h-2v-5.95zm0-9.93v5.96h-2v-5.96zm0-9.94v5.96h-2v-5.96zm0-9.94v5.97h-2v-5.96zm0-9.93v5.97h-2v-5.96zm0-9.93v5.96h-2v-5.96zm.02-9.93v5.96h-2v-5.96zm0-9.94v5.96h-2v-5.96zm0-9.94v5.97h-2v-5.97zm0-9.93v5.96h-2v-5.97zm0-9.94v5.95h-2v-5.96zm0-9.94v5.96h-2v-5.96zm0-9.94v5.96h-2v-5.96zm0-9.94v5.97h-2v-5.97zm0-9.93v5.96h-2v-5.95zm0-9.94v5.97h-2v-5.96zm0-9.92v5.96h-2v-5.96zm0-9.94v5.96h-2v-5.96zm0-9.94v5.96h-2v-5.96zm0-9.93v5.96h-2v-5.96zm0-9.94v5.96h-2v-5.97zm.8-8.78l-.3.5-.3.72-.2.72v2.86h-2v-3.1l.28-1.1.42-1.03.4-.62zm7.25-2.24h-3.06l-.82.08-.76.18-.54.22-.77-1.84.7-.3 1.05-.24 1.06-.1h3.15zm38.4 0h-3.1v-2h3.1zm-7.25 0h-6.23v-2h6.23zm-10.38 0h-6.23v-2h6.23zm-10.38 0h-6.24v-2h6.23z" stroke="#5e5e5e" stroke-width=".05" fill="#5e5e5e"/><path d="M298.5 478.5h-1v-2h1z" fill="#5e5e5e"/><path d="M298.54 478.54h-1.08v-2.05h1.08zm-1.03-2v1.95h1v-1.96z" stroke="#5e5e5e" stroke-width=".05" fill="#5e5e5e"/><path d="M295.3 1074.8l-14.27 4.64v-9.27z" fill="#5e5e5e"/><path d="M298.54 1074.8l-18.5 6.02v-12.03zm-16.5 3.26l10.02-3.26-10.03-3.26z" stroke="#5e5e5e" stroke-width=".05" fill="#5e5e5e"/><g><use xlink:href="#B" transform="matrix(1,0,0,1,258,861.205426304337) translate(11.516111111111123 17.546666666666667)"/><use xlink:href="#C" transform="matrix(1,0,0,1,258,861.205426304337) translate(0.005000000000002558 38.879999999999995)"/></g><path d="M1519.5 881.26h-2v-2.9h2zm0-6.76h-2v-5.8h2zm0-9.67h-2v-4.76h2zm0-29.02h-2V830h2zm0-9.66h-2v-5.8h2zm0-9.67h-2v-2.9h2z" stroke="#5e5e5e" stroke-width=".05" fill="#5e5e5e"/><path d="M1519.5 813.6h-2v-1.02h2z" fill="#5e5e5e"/><path d="M1519.53 813.62h-2.05v-1.07h2.05zm-2-1.02v.97h1.95v-.98z" stroke="#5e5e5e" stroke-width=".05" fill="#5e5e5e"/><path d="M1518.5 896.53l-4.63-14.27h9.27z" fill="#5e5e5e"/><path d="M1518.5 899.77l-6-18.5h12.02zm-3.25-16.5l3.26 10.02 3.27-10.04z" stroke="#5e5e5e" stroke-width=".05" fill="#5e5e5e"/><g><use xlink:href="#V" transform="matrix(1,0,0,1,1496.595167299789,838.732222299634) translate(0 17.546666666666667)"/></g><path d="M500 706a6 6 0 0 1 6-6h54a6 6 0 0 1 6 6v12.85a6 6 0 0 1-6 6h-54a6 6 0 0 1-6-6z" stroke="#000" stroke-opacity="0" stroke-width="3" fill="#fff" fill-opacity="0"/><g><use xlink:href="#W" transform="matrix(1,0,0,1,505,705) translate(11.362222222222226 17.546666666666663)"/></g><path d="M520 1026a6 6 0 0 1 6-6h12a6 6 0 0 1 6 6v9.75a6 6 0 0 1-6 6h-12a6 6 0 0 1-6-6z" stroke="#000" stroke-opacity="0" stroke-width="3" fill="#fff" fill-opacity="0"/><g><use xlink:href="#W" transform="matrix(1,0,0,1,525,1025) translate(-9.637777777777774 17.546666666666663)"/></g><path d="M1431.64 533.82v2h-43.73v-2zm-123.42 0v2h-51.04v-2z" stroke="#5e5e5e" stroke-width=".05" fill="#5e5e5e"/><path d="M1433.22 535.82h-1.6v-2h.44z" fill="#5e5e5e"/><path d="M1433.26 535.84h-1.67v-2.05h.47zm-1.62-2v1.95h1.53l-1.13-1.96z" stroke="#5e5e5e" stroke-width=".05" fill="#5e5e5e"/><path d="M1256.18 539.45l-14.27-4.63 14.28-4.64z" fill="#5e5e5e"/><path d="M1257.18 540.83l-18.5-6 18.5-6.03zm-12.03-6l10.03 3.24v-6.5z" stroke="#5e5e5e" stroke-width=".05" fill="#5e5e5e"/><g><use xlink:href="#p" transform="matrix(1,0,0,1,1308.2188021687032,524.1500651422932) translate(0.005000000000002558 17.546666666666667)"/><use xlink:href="#q" transform="matrix(1,0,0,1,1308.2188021687032,524.1500651422932) translate(40.91166666666667 17.546666666666667)"/></g><path d="M435 417c16.57 0 30 14.1 30 31.5S451.57 480 435 480h-90c-16.57 0-30-14.1-30-31.5s13.43-31.5 30-31.5z" stroke="#5e5e5e" stroke-width="3" fill="#fff"/><g><use xlink:href="#X" transform="matrix(1,0,0,1,320,422) translate(56.62444444444445 31.91583333333333)"/></g><path d="M825.46 974c15.45 0 27.98 13.43 27.98 30s-12.53 30-27.98 30h-83.92c-15.45 0-27.98-13.43-27.98-30s12.53-30 27.98-30z" stroke="#5e5e5e" stroke-width="3" fill="#fff"/><g><use xlink:href="#Y" transform="matrix(1,0,0,1,718.5624999999993,979) translate(6.534444444444453 30.97833333333333)"/><use xlink:href="#Z" transform="matrix(1,0,0,1,718.5624999999993,979) translate(40.321111111111115 30.97833333333333)"/><use xlink:href="#aa" transform="matrix(1,0,0,1,718.5624999999993,979) translate(85.04333333333332 30.97833333333333)"/></g><defs><path fill="#333" d="M340-1114c9 364 1 744 4 1114H174v-1433c45 2 105-6 138 7 9 3 18 13 29 26l830 1080c-4-32-5-64-5-98v-1015h170V0c-46-3-102 7-136-8-10-5-21-14-31-27" id="ab"/><path fill="#333" d="M954-142C850-8 572 61 364-22 180-96 74-268 74-527c0-234 108-389 275-463 59-26 125-39 198-39 273 0 420 174 420 453 0 48-2 70-43 70H250c8 226 98 375 322 380 114 2 191-38 258-82 70-46 94 37 124 66zM807-617c-5-171-86-278-256-281-181-3-273 116-295 281h551" id="ac"/><path fill="#333" d="M698-76c-54 52-145 92-245 92-162 1-249-96-249-260v-620c-58-9-160 26-160-39v-71l166-21 41-313c4-50 80-30 131-34v349h290v129H382v608c-2 78 40 125 111 126 60 2 88-33 128-48 9 0 18 6 25 17" id="ad"/><path fill="#333" d="M14-1013c70 8 177-25 195 37l194 652c10 46 20 89 27 137 77-272 174-527 253-793 13-44 73-34 126-35 27-1 44 16 51 35 81 265 173 518 245 792 7-44 18-96 30-136l198-652c15-59 118-30 186-37L1191 0h-141c-17 0-29-11-36-34-79-245-162-486-237-734-5-15-7-31-10-46-7 32-12 65-23 94L517-34C501 26 405-10 342 0" id="ae"/><path fill="#333" d="M1038-507c0 321-164 521-482 521S72-187 72-507c0-248 107-410 284-485 60-25 126-37 200-37 317 0 482 201 482 522zm-782 1c0 225 80 381 300 381 213 0 298-159 298-381 0-223-84-383-298-383-221 0-300 158-300 383" id="af"/><path fill="#333" d="M584-856c-148 6-210 94-260 211V0H146v-1013c62 7 151-25 157 49l12 158c66-138 184-259 384-216 23 5 44 16 63 27l-23 133c-5 17-15 25-31 25-36 0-71-21-124-19" id="ag"/><path fill="#333" d="M331-1473v867c49 0 82 0 108-28l320-343c20-19 33-36 70-36h162C858-871 723-729 590-586c-9 9-19 16-30 23 25 17 41 39 60 63L1016 0c-81-8-184 18-227-35L456-450c-21-27-31-33-75-34h-50V0H152v-1473h179" id="ah"/><g id="a"><use transform="matrix(0.008888888888888887,0,0,0.008888888888888887,0,0)" xlink:href="#ab"/><use transform="matrix(0.008888888888888887,0,0,0.008888888888888887,13.439999999999998,0)" xlink:href="#ac"/><use transform="matrix(0.008888888888888887,0,0,0.008888888888888887,22.755555555555553,0)" xlink:href="#ad"/><use transform="matrix(0.008888888888888887,0,0,0.008888888888888887,29.386666666666667,0)" xlink:href="#ae"/><use transform="matrix(0.008888888888888887,0,0,0.008888888888888887,43.00444444444444,0)" xlink:href="#af"/><use transform="matrix(0.008888888888888887,0,0,0.008888888888888887,52.88888888888888,0)" xlink:href="#ag"/><use transform="matrix(0.008888888888888887,0,0,0.008888888888888887,60.05333333333332,0)" xlink:href="#ah"/></g><path fill="#333" d="M409 293C214 8 88-383 149-866c35-276 133-488 260-685 32 22 70 38 97 65 12 17 8 37-3 57-126 218-214 479-214 800s87 582 214 800c15 26 10 65-15 74" id="ai"/><path fill="#333" d="M14-1433h161c34-1 58 20 66 46 103 352 213 698 311 1054 6 20 8 42 12 65 9-42 17-86 30-123l337-996c11-63 166-65 188 0l335 996c12 35 23 74 32 119 8-42 12-82 24-119l297-996c16-70 135-39 216-46L1576 0h-174l-363-1093c-7-21-14-45-20-72-6 24-12 50-19 72L635 0H461" id="aj"/><path fill="#333" d="M608 14c-142 0-221-61-286-144-9 50 6 130-55 130H152v-1473h179v606c78-87 176-162 331-162 283 0 384 222 384 516 0 237-93 406-254 487-54 27-116 40-184 40zm254-527c-2-212-53-374-258-374-136 0-207 69-273 153v490c56 77 120 120 237 120 208 0 296-164 294-389" id="ak"/><path fill="#333" d="M513-145c178-4 292-88 292-262 0-193-194-213-343-263-182-61-347-142-342-385 4-188 111-303 254-361 117-48 292-41 408 5 66 26 124 62 173 110-22 37-36 86-66 115-51 25-83-28-123-48-53-26-114-56-200-54-157 4-266 71-266 223 0 186 200 204 344 258 175 65 343 135 343 372 0 289-185 446-480 451-198 4-349-81-449-187 26-36 42-83 76-111 60-25 93 39 140 65 62 34 135 75 239 72" id="al"/><path fill="#333" d="M895-142C799-8 539 62 344-21 173-94 74-262 74-507c0-317 160-522 477-522 151 0 254 54 333 132-21 26-39 58-63 81-42 20-68-19-100-34-42-20-91-42-160-40-219 6-304 160-304 383 0 220 82 376 295 383 106 4 169-38 223-84 22-19 53-21 70 1" id="am"/><path fill="#333" d="M161 21C140 84 75 97-12 90l601-1497c18-62 84-72 169-66" id="an"/><path fill="#333" d="M1336 0h-195v-652H369V0H174v-1433h195v639h772v-639h195V0" id="ao"/><path fill="#333" d="M1150-1433v163H687V0H493v-1270H28v-163h1122" id="ap"/><path fill="#333" d="M617-1433c323 3 534 130 534 444 0 310-216 446-534 453H387V0H194v-1433h423zm340 444c0-197-128-291-340-291H387v590h230c207-4 340-97 340-299" id="aq"/><path fill="#333" d="M178-1551c194 286 322 675 260 1159-35 275-132 490-260 685-32-22-72-36-97-64-13-15-6-42 3-58C209-48 298-307 298-629c0-321-92-580-214-800-41-75 58-89 94-122" id="ar"/><g id="b"><use transform="matrix(0.008888888888888887,0,0,0.008888888888888887,0,0)" xlink:href="#ai"/><use transform="matrix(0.008888888888888887,0,0,0.008888888888888887,5.333333333333332,0)" xlink:href="#aj"/><use transform="matrix(0.008888888888888887,0,0,0.008888888888888887,23.164444444444438,0)" xlink:href="#ac"/><use transform="matrix(0.008888888888888887,0,0,0.008888888888888887,32.48,0)" xlink:href="#ak"/><use transform="matrix(0.008888888888888887,0,0,0.008888888888888887,42.41777777777777,0)" xlink:href="#al"/><use transform="matrix(0.008888888888888887,0,0,0.008888888888888887,51.83999999999999,0)" xlink:href="#af"/><use transform="matrix(0.008888888888888887,0,0,0.008888888888888887,61.72444444444443,0)" xlink:href="#am"/><use transform="matrix(0.008888888888888887,0,0,0.008888888888888887,70.02666666666664,0)" xlink:href="#ah"/><use transform="matrix(0.008888888888888887,0,0,0.008888888888888887,78.80888888888886,0)" xlink:href="#ac"/><use transform="matrix(0.008888888888888887,0,0,0.008888888888888887,88.1244444444444,0)" xlink:href="#ad"/><use transform="matrix(0.008888888888888887,0,0,0.008888888888888887,94.75555555555552,0)" xlink:href="#an"/><use transform="matrix(0.008888888888888887,0,0,0.008888888888888887,101.38666666666663,0)" xlink:href="#ao"/><use transform="matrix(0.008888888888888887,0,0,0.008888888888888887,114.82666666666663,0)" xlink:href="#ap"/><use transform="matrix(0.008888888888888887,0,0,0.008888888888888887,125.3155555555555,0)" xlink:href="#ap"/><use transform="matrix(0.008888888888888887,0,0,0.008888888888888887,135.80444444444439,0)" xlink:href="#aq"/><use transform="matrix(0.008888888888888887,0,0,0.008888888888888887,146.6666666666666,0)" xlink:href="#ar"/></g><path fill="#333" d="M1289-200C1173-69 1017 19 773 16c-339-4-539-180-634-435-65-176-67-421 3-594 104-257 318-431 668-436 220-3 359 75 476 182-27 35-48 75-79 105-60 21-86-37-135-56-109-71-336-85-474-24-190 83-310 257-310 526 0 268 114 444 301 527 146 65 383 42 487-33 24-17 50-36 75-59 20-19 44-22 62-2" id="as"/><path fill="#333" d="M598-887c-125 2-207 68-274 141V0H146v-1013c60 6 147-22 154 37l14 110c82-87 177-163 336-163 232 0 339 151 339 384V0H811v-645c0-149-65-244-213-242" id="at"/><path fill="#333" d="M537-1031c235 0 353 147 353 383V0c-58-5-129 17-142-42l-20-94C637-55 545 19 375 16 200 13 92-76 92-253c0-184 160-243 332-285 79-19 176-28 291-31 12-184-31-318-200-318-113 0-181 45-243 91-36 26-82 14-99-17l-32-57c101-96 215-161 396-161zM263-261c0 103 62 152 165 152 140 0 216-64 287-136v-211c-141 4-258 19-349 60-60 27-103 62-103 135" id="au"/><path fill="#333" d="M409-112c121-3 207-52 207-167 0-134-157-142-264-181-133-48-263-98-263-275 0-197 153-290 360-294 139-3 243 49 317 118-26 35-46 114-111 76-53-31-114-63-202-61-108 3-195 44-195 147 0 129 158 136 262 175 128 48 263 93 263 264C783-89 627 12 400 16 255 19 139-39 62-107c27-41 57-128 128-81 57 38 118 78 219 76" id="av"/><g id="c"><use transform="matrix(0.011111111111111112,0,0,0.011111111111111112,0,0)" xlink:href="#as"/><use transform="matrix(0.011111111111111112,0,0,0.011111111111111112,15.222222222222223,0)" xlink:href="#af"/><use transform="matrix(0.011111111111111112,0,0,0.011111111111111112,27.57777777777778,0)" xlink:href="#at"/><use transform="matrix(0.011111111111111112,0,0,0.011111111111111112,39.93333333333334,0)" xlink:href="#ad"/><use transform="matrix(0.011111111111111112,0,0,0.011111111111111112,48.22222222222222,0)" xlink:href="#ag"/><use transform="matrix(0.011111111111111112,0,0,0.011111111111111112,56.75555555555556,0)" xlink:href="#au"/><use transform="matrix(0.011111111111111112,0,0,0.011111111111111112,68.02222222222223,0)" xlink:href="#am"/><use transform="matrix(0.011111111111111112,0,0,0.011111111111111112,78.4,0)" xlink:href="#ad"/><use transform="matrix(0.011111111111111112,0,0,0.011111111111111112,86.6888888888889,0)" xlink:href="#av"/></g><path fill="#333" d="M18-1013h146c28-1 47 18 55 37l257 652c18 45 27 93 37 143 12-50 22-98 40-143l260-652c17-60 123-30 192-37L592 0H431" id="aw"/><g id="d"><use transform="matrix(0.008888888888888887,0,0,0.008888888888888887,0,0)" xlink:href="#as"/><use transform="matrix(0.008888888888888887,0,0,0.008888888888888887,12.177777777777775,0)" xlink:href="#au"/><use transform="matrix(0.008888888888888887,0,0,0.008888888888888887,21.191111111111105,0)" xlink:href="#at"/><use transform="matrix(0.008888888888888887,0,0,0.008888888888888887,30.791111111111103,0)" xlink:href="#aw"/><use transform="matrix(0.008888888888888887,0,0,0.008888888888888887,39.89333333333333,0)" xlink:href="#au"/><use transform="matrix(0.008888888888888887,0,0,0.008888888888888887,48.906666666666666,0)" xlink:href="#av"/></g><path fill="#333" d="M1365-1009c68 170 68 416 0 586C1264-171 1053 0 710 0H174v-1433h536c343 5 555 172 655 424zM710-157c338-11 507-216 507-559s-169-560-507-560H369v1119h341" id="ax"/><path fill="#333" d="M1454-1012c68 174 68 418 0 592-101 256-310 435-656 435S243-165 143-420c-68-174-68-418 0-592 101-256 309-437 655-437s556 181 656 437zM798-153c339 0 508-219 508-563 0-268-108-446-298-526-121-52-298-52-419 0-190 80-299 258-299 526s109 444 299 524c63 26 132 39 209 39" id="ay"/><path fill="#333" d="M338-1150c4 31 6 65 6 97V0H174v-1433c59 2 132-6 183 5 10 2 18 13 27 28l495 882c19 31 31 68 45 104 14-38 27-71 46-105l485-881c25-58 137-23 210-33V0h-170c2-381-5-772 4-1147l-491 896c-27 62-134 61-168 0" id="az"/><g id="e"><use transform="matrix(0.008888888888888887,0,0,0.008888888888888887,0,0)" xlink:href="#ax"/><use transform="matrix(0.008888888888888887,0,0,0.008888888888888887,13.386666666666663,0)" xlink:href="#ay"/><use transform="matrix(0.008888888888888887,0,0,0.008888888888888887,27.573333333333327,0)" xlink:href="#az"/></g><g id="f"><use transform="matrix(0.008888888888888887,0,0,0.008888888888888887,0,0)" xlink:href="#as"/><use transform="matrix(0.008888888888888887,0,0,0.008888888888888887,12.177777777777775,0)" xlink:href="#au"/><use transform="matrix(0.008888888888888887,0,0,0.008888888888888887,21.191111111111105,0)" xlink:href="#at"/><use transform="matrix(0.008888888888888887,0,0,0.008888888888888887,30.791111111111103,0)" xlink:href="#aw"/><use transform="matrix(0.008888888888888887,0,0,0.008888888888888887,39.89333333333333,0)" xlink:href="#au"/><use transform="matrix(0.008888888888888887,0,0,0.008888888888888887,48.906666666666666,0)" xlink:href="#av"/></g><path fill="#333" d="M1124-1036c0 240-152 355-353 406 24 14 45 35 64 61L1253 0c-92-9-205 21-250-41L631-553c-24-32-41-45-97-45H387V0H194v-1433h405c307 3 525 101 525 397zm-189 14c0-188-133-258-336-258H387v541h203c205-3 345-85 345-283" id="aA"/><path fill="#333" d="M510-1031c133 0 210 49 277 120v-562h178V0c-60-6-146 21-154-37l-16-123C716-67 616 14 455 14 173 14 72-209 72-503c0-237 94-406 254-487 54-27 115-41 184-41zM256-503c2 212 53 373 258 373 136 0 207-69 273-153v-490c-57-77-121-119-237-119-208 0-296 164-294 389" id="aB"/><g id="g"><use transform="matrix(0.008888888888888887,0,0,0.008888888888888887,0,0)" xlink:href="#aA"/><use transform="matrix(0.008888888888888887,0,0,0.008888888888888887,11.448888888888886,0)" xlink:href="#ac"/><use transform="matrix(0.008888888888888887,0,0,0.008888888888888887,20.76444444444444,0)" xlink:href="#at"/><use transform="matrix(0.008888888888888887,0,0,0.008888888888888887,30.648888888888884,0)" xlink:href="#aB"/><use transform="matrix(0.008888888888888887,0,0,0.008888888888888887,40.58666666666666,0)" xlink:href="#ac"/><use transform="matrix(0.008888888888888887,0,0,0.008888888888888887,49.902222222222214,0)" xlink:href="#ag"/><use transform="matrix(0.008888888888888887,0,0,0.008888888888888887,57.066666666666656,0)" xlink:href="#ac"/><use transform="matrix(0.008888888888888887,0,0,0.008888888888888887,66.38222222222221,0)" xlink:href="#ag"/></g><path fill="#333" d="M212 15C136 15 88-34 88-110s48-126 124-126 125 50 125 126c0 77-49 125-125 125" id="aC"/><path fill="#333" d="M-17 228c126 0 183-30 183-153v-1088h178V75c-3 186-98 287-286 289-47 0-79-7-114-20l8-96c3-18 11-20 31-20zm273-1687c77 0 128 52 128 128 0 75-52 126-128 126-75 0-126-51-126-126 0-76 50-128 126-128" id="aD"/><g id="h"><use transform="matrix(0.0066666666666666645,0,0,0.0066666666666666645,0,0)" xlink:href="#am"/><use transform="matrix(0.0066666666666666645,0,0,0.0066666666666666645,6.226666666666665,0)" xlink:href="#au"/><use transform="matrix(0.0066666666666666645,0,0,0.0066666666666666645,12.986666666666663,0)" xlink:href="#at"/><use transform="matrix(0.0066666666666666645,0,0,0.0066666666666666645,20.18666666666666,0)" xlink:href="#aw"/><use transform="matrix(0.0066666666666666645,0,0,0.0066666666666666645,27.013333333333325,0)" xlink:href="#au"/><use transform="matrix(0.0066666666666666645,0,0,0.0066666666666666645,33.773333333333326,0)" xlink:href="#av"/><use transform="matrix(0.0066666666666666645,0,0,0.0066666666666666645,39.55999999999999,0)" xlink:href="#aC"/><use transform="matrix(0.0066666666666666645,0,0,0.0066666666666666645,42.386666666666656,0)" xlink:href="#aD"/><use transform="matrix(0.0066666666666666645,0,0,0.0066666666666666645,45.77333333333332,0)" xlink:href="#av"/></g><g id="i"><use transform="matrix(0.008888888888888887,0,0,0.008888888888888887,0,0)" xlink:href="#aA"/><use transform="matrix(0.008888888888888887,0,0,0.008888888888888887,11.448888888888886,0)" xlink:href="#aq"/><use transform="matrix(0.008888888888888887,0,0,0.008888888888888887,22.311111111111106,0)" xlink:href="#as"/></g><g id="j"><use transform="matrix(0.008888888888888887,0,0,0.008888888888888887,0,0)" xlink:href="#al"/><use transform="matrix(0.008888888888888887,0,0,0.008888888888888887,9.42222222222222,0)" xlink:href="#ac"/><use transform="matrix(0.008888888888888887,0,0,0.008888888888888887,18.737777777777776,0)" xlink:href="#at"/><use transform="matrix(0.008888888888888887,0,0,0.008888888888888887,28.622222222222213,0)" xlink:href="#aB"/><use transform="matrix(0.008888888888888887,0,0,0.008888888888888887,38.55999999999998,0)" xlink:href="#ac"/><use transform="matrix(0.008888888888888887,0,0,0.008888888888888887,47.87555555555554,0)" xlink:href="#ag"/></g><path fill="#333" d="M602 14c-133 0-212-47-278-119v448H146v-1356c60 6 147-22 154 37l15 120c80-93 179-175 341-175 282 0 383 224 383 518 0 237-92 406-253 487-54 27-116 40-184 40zm253-527c-3-212-53-374-258-374-136 0-207 69-273 153v490c57 77 121 120 238 120 207 0 295-164 293-389" id="aE"/><g id="k"><use transform="matrix(0.0066666666666666645,0,0,0.0066666666666666645,0,0)" xlink:href="#ag"/><use transform="matrix(0.0066666666666666645,0,0,0.0066666666666666645,5.373333333333331,0)" xlink:href="#aE"/><use transform="matrix(0.0066666666666666645,0,0,0.0066666666666666645,12.733333333333329,0)" xlink:href="#am"/><use transform="matrix(0.0066666666666666645,0,0,0.0066666666666666645,18.959999999999994,0)" xlink:href="#aC"/><use transform="matrix(0.0066666666666666645,0,0,0.0066666666666666645,21.786666666666658,0)" xlink:href="#aD"/><use transform="matrix(0.0066666666666666645,0,0,0.0066666666666666645,25.173333333333325,0)" xlink:href="#av"/></g><g id="l"><use transform="matrix(0.008888888888888889,0,0,0.008888888888888889,0,0)" xlink:href="#as"/><use transform="matrix(0.008888888888888889,0,0,0.008888888888888889,12.177777777777777,0)" xlink:href="#au"/><use transform="matrix(0.008888888888888889,0,0,0.008888888888888889,21.191111111111113,0)" xlink:href="#at"/><use transform="matrix(0.008888888888888889,0,0,0.008888888888888889,30.791111111111114,0)" xlink:href="#aw"/><use transform="matrix(0.008888888888888889,0,0,0.008888888888888889,39.89333333333334,0)" xlink:href="#au"/><use transform="matrix(0.008888888888888889,0,0,0.008888888888888889,48.90666666666667,0)" xlink:href="#av"/></g><path fill="#333" d="M1353 0h-150c-36 0-55-21-66-46l-134-346H360L226-46c-9 23-33 46-66 46H10l573-1433h197zM414-532h535l-225-583c-15-36-29-81-43-135-13 48-26 95-42 136" id="aF"/><path fill="#333" d="M404 0H210v-1433h194V0" id="aG"/><g id="m"><use transform="matrix(0.008888888888888889,0,0,0.008888888888888889,0,0)" xlink:href="#aF"/><use transform="matrix(0.008888888888888889,0,0,0.008888888888888889,12.088888888888889,0)" xlink:href="#aq"/><use transform="matrix(0.008888888888888889,0,0,0.008888888888888889,22.95111111111111,0)" xlink:href="#aG"/></g><path fill="#333" d="M1057-1433v158H369v476h557v152H369v489h688V0H174v-1433h883" id="aH"/><g id="n"><use transform="matrix(0.011111111111111112,0,0,0.011111111111111112,0,0)" xlink:href="#aH"/><use transform="matrix(0.011111111111111112,0,0,0.011111111111111112,12.911111111111111,0)" xlink:href="#aw"/><use transform="matrix(0.011111111111111112,0,0,0.011111111111111112,24,0)" xlink:href="#ac"/><use transform="matrix(0.011111111111111112,0,0,0.011111111111111112,35.644444444444446,0)" xlink:href="#at"/><use transform="matrix(0.011111111111111112,0,0,0.011111111111111112,48,0)" xlink:href="#ad"/><use transform="matrix(0.011111111111111112,0,0,0.011111111111111112,56.28888888888889,0)" xlink:href="#av"/></g><path fill="#333" d="M344-1473V0H166v-1473h178" id="aI"/><g id="o"><use transform="matrix(0.011111111111111112,0,0,0.011111111111111112,0,0)" xlink:href="#aj"/><use transform="matrix(0.011111111111111112,0,0,0.011111111111111112,21.666666666666668,0)" xlink:href="#au"/><use transform="matrix(0.011111111111111112,0,0,0.011111111111111112,32.93333333333334,0)" xlink:href="#aI"/><use transform="matrix(0.011111111111111112,0,0,0.011111111111111112,38.62222222222223,0)" xlink:href="#aI"/><use transform="matrix(0.011111111111111112,0,0,0.011111111111111112,44.31111111111112,0)" xlink:href="#ac"/><use transform="matrix(0.011111111111111112,0,0,0.011111111111111112,55.95555555555557,0)" xlink:href="#ad"/></g><path fill="#333" d="M398-581c6 222 109 364 330 364 220 0 331-140 331-363v-866h269v866c-5 286-141 466-350 552-142 59-358 59-500 0-210-86-349-266-349-552v-866h269v865" id="aJ"/><path fill="#333" d="M254-198c95 60 334 64 323-83-9-119-156-122-253-159C192-490 72-550 72-729c0-214 163-309 387-313 145-3 264 55 338 127-26 36-45 82-77 111-69 21-111-33-176-48-103-23-247 0-238 102 11 114 156 118 251 155 126 49 251 100 251 270C808-59 575 48 294 6 192-9 106-54 42-110c28-39 43-95 83-120 49-31 96 11 129 32" id="aK"/><path fill="#333" d="M991-153C899-47 760 15 568 15 237 15 63-197 63-535c0-237 116-392 287-467 61-27 129-40 206-40 287 0 444 174 444 465 0 54-3 95-57 95H309c4 226 158 349 385 292 52-13 93-39 132-62 32-19 73-16 93 9zM778-631c-4-143-73-234-217-234-154 0-226 95-247 234h464" id="aL"/><path fill="#333" d="M604-806c-122 5-180 74-225 167V0H132v-1026c83 11 206-35 218 62l15 124c63-106 147-205 295-205 51 0 93 12 126 35l-32 185c-4 23-15 33-40 33-33 0-65-16-110-14" id="aM"/><g id="p"><use transform="matrix(0.008888888888888889,0,0,0.008888888888888889,0,0)" xlink:href="#aJ"/><use transform="matrix(0.008888888888888889,0,0,0.008888888888888889,12.942222222222222,0)" xlink:href="#aK"/><use transform="matrix(0.008888888888888889,0,0,0.008888888888888889,20.711111111111112,0)" xlink:href="#aL"/><use transform="matrix(0.008888888888888889,0,0,0.008888888888888889,30.213333333333335,0)" xlink:href="#aM"/></g><path fill="#333" d="M1377-1015c71 172 71 412 0 584C1271-174 1052 0 698 0H146v-1446h552c353 6 574 175 679 431zM698-214c307-9 457-198 457-509s-150-500-457-509H417v1018h281" id="aN"/><path fill="#333" d="M556-1045c246 0 380 151 380 397V0c-79-6-181 23-196-53l-22-73C630-49 541 18 379 16 194 13 81-77 81-262c0-184 152-247 321-292 78-21 176-31 293-34 10-155-29-262-170-262-104 0-161 40-224 77-47 28-107 5-127-31l-45-79c118-108 260-162 427-162zM317-275c-3 86 56 121 139 121 117 0 179-51 239-111v-173c-122 6-219 17-297 53-49 22-79 51-81 110" id="aO"/><path fill="#333" d="M738-75c-64 55-158 90-269 91-176 2-277-109-277-284v-573c-65-4-153 21-153-52v-98l165-27 52-280c10-66 115-35 183-42v323h270v176H439v556c-1 59 32 101 88 102 48 1 68-25 104-34 19 1 25 9 33 22" id="aP"/><g id="q"><use transform="matrix(0.008888888888888889,0,0,0.008888888888888889,0,0)" xlink:href="#aN"/><use transform="matrix(0.008888888888888889,0,0,0.008888888888888889,13.28888888888889,0)" xlink:href="#aO"/><use transform="matrix(0.008888888888888889,0,0,0.008888888888888889,22.595555555555556,0)" xlink:href="#aP"/><use transform="matrix(0.008888888888888889,0,0,0.008888888888888889,29.475555555555555,0)" xlink:href="#aO"/></g><path fill="#333" d="M1284-209C1170-69 1008 19 759 16c-347-4-553-182-649-442-66-178-66-423 6-596 108-261 330-435 688-440 220-3 375 79 488 188l-90 125c-16 32-68 39-102 12-71-55-162-101-298-96-304 11-465 201-465 510 0 241 101 401 267 477 125 58 330 39 424-24 42-17 97-111 150-54" id="aQ"/><path fill="#333" d="M361-1005c121-49 297-49 417 0 184 74 298 236 298 490 0 330-178 530-506 530C241 15 61-185 61-515c0-254 115-416 300-490zm-45 492c0 201 65 338 254 338 188 0 251-137 251-338s-63-340-251-340c-189 0-254 139-254 340" id="aR"/><path fill="#333" d="M605-850c-102 1-168 52-226 108V0H132v-1026c80 9 198-29 214 45l17 81c77-76 165-142 317-142 235 0 346 154 346 389V0H779v-653c0-121-55-198-174-197" id="aS"/><path fill="#333" d="M928-153C839-49 712 15 524 15c-227 0-358-131-424-305-47-123-49-306-4-434 67-190 213-318 465-318 165 0 270 58 357 143-29 37-52 81-86 112-71 26-104-41-170-55-24-5-52-12-86-12-192 5-260 143-260 339 0 194 67 336 254 342 98 3 148-38 200-79 26-20 67-17 87 9" id="aT"/><g id="r"><use transform="matrix(0.008888888888888889,0,0,0.008888888888888889,0,0)" xlink:href="#aQ"/><use transform="matrix(0.008888888888888889,0,0,0.008888888888888889,11.92,0)" xlink:href="#aR"/><use transform="matrix(0.008888888888888889,0,0,0.008888888888888889,22.026666666666667,0)" xlink:href="#aS"/><use transform="matrix(0.008888888888888889,0,0,0.008888888888888889,32.13333333333333,0)" xlink:href="#aP"/><use transform="matrix(0.008888888888888889,0,0,0.008888888888888889,39.013333333333335,0)" xlink:href="#aM"/><use transform="matrix(0.008888888888888889,0,0,0.008888888888888889,46.01777777777778,0)" xlink:href="#aO"/><use transform="matrix(0.008888888888888889,0,0,0.008888888888888889,55.324444444444445,0)" xlink:href="#aT"/><use transform="matrix(0.008888888888888889,0,0,0.008888888888888889,63.80444444444444,0)" xlink:href="#aP"/></g><path fill="#333" d="M1058-1446v214H417v401h505v207H417v409h641V0H146v-1446h912" id="aU"/><path fill="#333" d="M646 0H422L14-1026h205c36-1 62 20 71 46 75 215 159 421 226 642 9 30 15 61 21 92 13-66 27-126 50-186l203-548c9-25 34-46 68-46h195" id="aV"/><g id="s"><use transform="matrix(0.008888888888888889,0,0,0.008888888888888889,0,0)" xlink:href="#aU"/><use transform="matrix(0.008888888888888889,0,0,0.008888888888888889,10.177777777777777,0)" xlink:href="#aV"/><use transform="matrix(0.008888888888888889,0,0,0.008888888888888889,19.36888888888889,0)" xlink:href="#aL"/><use transform="matrix(0.008888888888888889,0,0,0.008888888888888889,28.871111111111112,0)" xlink:href="#aS"/><use transform="matrix(0.008888888888888889,0,0,0.008888888888888889,38.977777777777774,0)" xlink:href="#aP"/></g><path fill="#333" d="M12-1446h226c47 0 80 25 90 61 87 312 181 618 262 935 6 25 10 51 15 79 10-53 22-104 38-149l284-865c11-30 46-61 89-61 78 0 148-4 169 61l282 865c15 43 27 90 38 142 9-49 18-98 30-142l246-865c9-33 45-61 89-61h211L1632 0h-243c-113-359-232-713-341-1076C938-712 818-360 704 0H461" id="aW"/><path fill="#333" d="M395-1486V0H148v-1486h247" id="aX"/><g id="t"><use transform="matrix(0.008888888888888889,0,0,0.008888888888888889,0,0)" xlink:href="#aW"/><use transform="matrix(0.008888888888888889,0,0,0.008888888888888889,17.724444444444444,0)" xlink:href="#aO"/><use transform="matrix(0.008888888888888889,0,0,0.008888888888888889,27.031111111111105,0)" xlink:href="#aX"/><use transform="matrix(0.008888888888888889,0,0,0.008888888888888889,31.848888888888887,0)" xlink:href="#aX"/><use transform="matrix(0.008888888888888889,0,0,0.008888888888888889,36.666666666666664,0)" xlink:href="#aL"/><use transform="matrix(0.008888888888888889,0,0,0.008888888888888889,46.16888888888889,0)" xlink:href="#aP"/></g><g id="u"><use transform="matrix(0.008888888888888889,0,0,0.008888888888888889,0,0)" xlink:href="#aN"/><use transform="matrix(0.008888888888888889,0,0,0.008888888888888889,13.28888888888889,0)" xlink:href="#aO"/><use transform="matrix(0.008888888888888889,0,0,0.008888888888888889,22.595555555555556,0)" xlink:href="#aP"/><use transform="matrix(0.008888888888888889,0,0,0.008888888888888889,29.475555555555555,0)" xlink:href="#aO"/></g><path fill="#333" d="M243-146c204-7 276-136 277-345v-942h193v938C709-181 572 16 262 16c-65 0-132-9-202-28 7-48 1-109 24-142 47-28 93 10 159 8" id="aY"/><path fill="#333" d="M344-1013V0H166v-1013h178zm-88-446c77 0 128 52 128 128 0 75-52 126-128 126-75 0-126-51-126-126 0-76 50-128 126-128" id="aZ"/><g id="v"><use transform="matrix(0.01111111111111111,0,0,0.01111111111111111,0,0)" xlink:href="#aY"/><use transform="matrix(0.01111111111111111,0,0,0.01111111111111111,9.866666666666665,0)" xlink:href="#au"/><use transform="matrix(0.01111111111111111,0,0,0.01111111111111111,20.777777777777775,0)" xlink:href="#aw"/><use transform="matrix(0.01111111111111111,0,0,0.01111111111111111,32.15555555555555,0)" xlink:href="#au"/><use transform="matrix(0.01111111111111111,0,0,0.01111111111111111,43.42222222222222,0)" xlink:href="#al"/><use transform="matrix(0.01111111111111111,0,0,0.01111111111111111,55.199999999999996,0)" xlink:href="#am"/><use transform="matrix(0.01111111111111111,0,0,0.01111111111111111,65.57777777777777,0)" xlink:href="#ag"/><use transform="matrix(0.01111111111111111,0,0,0.01111111111111111,74.53333333333332,0)" xlink:href="#aZ"/><use transform="matrix(0.01111111111111111,0,0,0.01111111111111111,80.2222222222222,0)" xlink:href="#aE"/><use transform="matrix(0.01111111111111111,0,0,0.01111111111111111,92.48888888888885,0)" xlink:href="#ad"/></g><path fill="#333" d="M550-887c-107 0-172 65-226 132V0H146v-1013c60 6 147-22 154 37l13 104c69-80 148-156 287-157 148-1 223 92 258 211 51-126 153-211 323-211 232 0 338 149 338 384V0h-178v-645c1-148-62-242-203-242-142 0-218 94-218 242V0H742v-645c1-149-54-242-192-242" id="ba"/><g id="w"><use transform="matrix(0.01111111111111111,0,0,0.01111111111111111,0,0)" xlink:href="#aH"/><use transform="matrix(0.01111111111111111,0,0,0.01111111111111111,12.91111111111111,0)" xlink:href="#aI"/><use transform="matrix(0.01111111111111111,0,0,0.01111111111111111,18.599999999999998,0)" xlink:href="#ba"/></g><path fill="#333" d="M103-704c0-220 160-326 384-326 92 0 169 21 228 57h275c-2 53 13 100-42 108l-115 16c43 79 45 196 5 279-58 120-176 191-351 193-47 0-92-6-134-17-50 22-100 108-36 142 165 88 511-13 621 164 40 65 36 170-4 240-77 134-229 213-441 213-193 0-343-50-415-167-19-32-28-66-28-101 3-117 84-175 178-211-54-27-98-64-94-143 4-90 64-137 129-173-91-51-160-139-160-274zM334-85C254-53 162 38 224 138c97 157 586 133 579-83C799-63 659-58 543-68c-70-6-146-6-209-17zm-67-614c0 134 84 204 220 204 137 0 221-69 221-204 0-129-85-203-221-203-135 0-220 74-220 203" id="bb"/><g id="x"><use transform="matrix(0.008888888888888887,0,0,0.008888888888888887,0,0)" xlink:href="#az"/><use transform="matrix(0.008888888888888887,0,0,0.008888888888888887,16.35555555555555,0)" xlink:href="#au"/><use transform="matrix(0.008888888888888887,0,0,0.008888888888888887,25.368888888888883,0)" xlink:href="#at"/><use transform="matrix(0.008888888888888887,0,0,0.008888888888888887,35.25333333333332,0)" xlink:href="#au"/><use transform="matrix(0.008888888888888887,0,0,0.008888888888888887,44.26666666666665,0)" xlink:href="#bb"/><use transform="matrix(0.008888888888888887,0,0,0.008888888888888887,53.351111111111095,0)" xlink:href="#ac"/><use transform="matrix(0.008888888888888887,0,0,0.008888888888888887,62.66666666666664,0)" xlink:href="#ag"/></g><g id="y"><use transform="matrix(0.0066666666666666645,0,0,0.0066666666666666645,0,0)" xlink:href="#as"/><use transform="matrix(0.0066666666666666645,0,0,0.0066666666666666645,9.133333333333331,0)" xlink:href="#au"/><use transform="matrix(0.0066666666666666645,0,0,0.0066666666666666645,15.893333333333327,0)" xlink:href="#at"/><use transform="matrix(0.0066666666666666645,0,0,0.0066666666666666645,23.093333333333327,0)" xlink:href="#aw"/><use transform="matrix(0.0066666666666666645,0,0,0.0066666666666666645,29.91999999999999,0)" xlink:href="#au"/><use transform="matrix(0.0066666666666666645,0,0,0.0066666666666666645,36.67999999999999,0)" xlink:href="#av"/><use transform="matrix(0.0066666666666666645,0,0,0.0066666666666666645,42.466666666666654,0)" xlink:href="#aC"/><use transform="matrix(0.0066666666666666645,0,0,0.0066666666666666645,45.29333333333332,0)" xlink:href="#ac"/><use transform="matrix(0.0066666666666666645,0,0,0.0066666666666666645,52.27999999999999,0)" xlink:href="#aI"/><use transform="matrix(0.0066666666666666645,0,0,0.0066666666666666645,55.693333333333314,0)" xlink:href="#ba"/></g><g id="z"><use transform="matrix(0.0066666666666666645,0,0,0.0066666666666666645,0,0)" xlink:href="#aA"/><use transform="matrix(0.0066666666666666645,0,0,0.0066666666666666645,8.586666666666664,0)" xlink:href="#aE"/><use transform="matrix(0.0066666666666666645,0,0,0.0066666666666666645,15.946666666666662,0)" xlink:href="#am"/><use transform="matrix(0.0066666666666666645,0,0,0.0066666666666666645,22.173333333333325,0)" xlink:href="#aC"/><use transform="matrix(0.0066666666666666645,0,0,0.0066666666666666645,24.99999999999999,0)" xlink:href="#ac"/><use transform="matrix(0.0066666666666666645,0,0,0.0066666666666666645,31.986666666666657,0)" xlink:href="#aI"/><use transform="matrix(0.0066666666666666645,0,0,0.0066666666666666645,35.399999999999984,0)" xlink:href="#ba"/></g><path fill="#333" d="M867-737c186 37 317 126 317 329C1184-123 974 0 681 0H174v-1433h457c293 3 505 90 505 374 0 185-121 273-269 322zm126 324c0-168-128-240-316-240H368v499h310c190-2 315-75 315-259zm-50-623c0-184-115-243-312-244H368v489h256c186-3 319-66 319-245" id="bc"/><g id="A"><use transform="matrix(0.01111111111111111,0,0,0.01111111111111111,0,0)" xlink:href="#bc"/><use transform="matrix(0.01111111111111111,0,0,0.01111111111111111,14.377777777777776,0)" xlink:href="#ag"/><use transform="matrix(0.01111111111111111,0,0,0.01111111111111111,23.333333333333332,0)" xlink:href="#af"/><use transform="matrix(0.01111111111111111,0,0,0.01111111111111111,35.68888888888888,0)" xlink:href="#ae"/><use transform="matrix(0.01111111111111111,0,0,0.01111111111111111,52.7111111111111,0)" xlink:href="#av"/><use transform="matrix(0.01111111111111111,0,0,0.01111111111111111,62.35555555555555,0)" xlink:href="#ac"/><use transform="matrix(0.01111111111111111,0,0,0.01111111111111111,73.99999999999999,0)" xlink:href="#ag"/></g><g id="B"><use transform="matrix(0.008888888888888889,0,0,0.008888888888888889,0,0)" xlink:href="#aA"/><use transform="matrix(0.008888888888888889,0,0,0.008888888888888889,11.448888888888888,0)" xlink:href="#ac"/><use transform="matrix(0.008888888888888889,0,0,0.008888888888888889,20.764444444444443,0)" xlink:href="#at"/><use transform="matrix(0.008888888888888889,0,0,0.008888888888888889,30.648888888888887,0)" xlink:href="#aB"/><use transform="matrix(0.008888888888888889,0,0,0.008888888888888889,40.586666666666666,0)" xlink:href="#ac"/><use transform="matrix(0.008888888888888889,0,0,0.008888888888888889,49.90222222222222,0)" xlink:href="#ag"/></g><g id="C"><use transform="matrix(0.008888888888888889,0,0,0.008888888888888889,0,0)" xlink:href="#as"/><use transform="matrix(0.008888888888888889,0,0,0.008888888888888889,12.177777777777777,0)" xlink:href="#af"/><use transform="matrix(0.008888888888888889,0,0,0.008888888888888889,22.06222222222222,0)" xlink:href="#ba"/><use transform="matrix(0.008888888888888889,0,0,0.008888888888888889,36.65777777777778,0)" xlink:href="#ba"/><use transform="matrix(0.008888888888888889,0,0,0.008888888888888889,51.253333333333345,0)" xlink:href="#au"/><use transform="matrix(0.008888888888888889,0,0,0.008888888888888889,60.26666666666667,0)" xlink:href="#at"/><use transform="matrix(0.008888888888888889,0,0,0.008888888888888889,70.15111111111112,0)" xlink:href="#aB"/></g><path fill="#333" d="M353-563c7 250 130 409 378 409s377-159 377-408v-871h193v871c-5 275-133 450-332 535-136 58-340 59-476 0-200-85-333-259-333-535v-871h193v870" id="bd"/><g id="D"><use transform="matrix(0.008888888888888887,0,0,0.008888888888888887,0,0)" xlink:href="#bd"/><use transform="matrix(0.008888888888888887,0,0,0.008888888888888887,12.977777777777776,0)" xlink:href="#aG"/></g><g id="E"><use transform="matrix(0.0066666666666666645,0,0,0.0066666666666666645,0,0)" xlink:href="#az"/><use transform="matrix(0.0066666666666666645,0,0,0.0066666666666666645,12.266666666666662,0)" xlink:href="#au"/><use transform="matrix(0.0066666666666666645,0,0,0.0066666666666666645,19.02666666666666,0)" xlink:href="#aZ"/><use transform="matrix(0.0066666666666666645,0,0,0.0066666666666666645,22.43999999999999,0)" xlink:href="#at"/><use transform="matrix(0.0066666666666666645,0,0,0.0066666666666666645,29.853333333333325,0)" xlink:href="#aC"/><use transform="matrix(0.0066666666666666645,0,0,0.0066666666666666645,32.679999999999986,0)" xlink:href="#ac"/><use transform="matrix(0.0066666666666666645,0,0,0.0066666666666666645,39.66666666666665,0)" xlink:href="#aI"/><use transform="matrix(0.0066666666666666645,0,0,0.0066666666666666645,43.079999999999984,0)" xlink:href="#ba"/></g><g id="F"><use transform="matrix(0.011111111111111112,0,0,0.011111111111111112,0,0)" xlink:href="#bd"/><use transform="matrix(0.011111111111111112,0,0,0.011111111111111112,16.22222222222222,0)" xlink:href="#av"/><use transform="matrix(0.011111111111111112,0,0,0.011111111111111112,25.866666666666667,0)" xlink:href="#ac"/><use transform="matrix(0.011111111111111112,0,0,0.011111111111111112,37.51111111111111,0)" xlink:href="#ag"/></g><g id="G"><use transform="matrix(0.008888888888888889,0,0,0.008888888888888889,0,0)" xlink:href="#bd"/><use transform="matrix(0.008888888888888889,0,0,0.008888888888888889,12.977777777777778,0)" xlink:href="#aG"/></g><g id="H"><use transform="matrix(0.008888888888888889,0,0,0.008888888888888889,0,0)" xlink:href="#aH"/><use transform="matrix(0.008888888888888889,0,0,0.008888888888888889,10.328888888888889,0)" xlink:href="#aw"/><use transform="matrix(0.008888888888888889,0,0,0.008888888888888889,19.2,0)" xlink:href="#ac"/><use transform="matrix(0.008888888888888889,0,0,0.008888888888888889,28.515555555555554,0)" xlink:href="#at"/><use transform="matrix(0.008888888888888889,0,0,0.008888888888888889,38.4,0)" xlink:href="#ad"/><use transform="matrix(0.008888888888888889,0,0,0.008888888888888889,45.03111111111111,0)" xlink:href="#av"/></g><path fill="#333" d="M8-1433h155c36 0 55 21 66 46L634-376c20 47 34 103 48 157 12-55 25-110 44-157l403-1011c9-22 33-46 66-46h156L767 0H592" id="be"/><path fill="#333" d="M461 16c-231 0-339-149-339-383v-646h178v646c0 148 67 243 213 241 125-2 207-66 274-140v-747h178V0c-60-6-146 22-154-37l-14-109C716-60 619 16 461 16" id="bf"/><g id="I"><use transform="matrix(0.008888888888888887,0,0,0.008888888888888887,0,0)" xlink:href="#be"/><use transform="matrix(0.008888888888888887,0,0,0.008888888888888887,12.088888888888887,0)" xlink:href="#aZ"/><use transform="matrix(0.008888888888888887,0,0,0.008888888888888887,16.639999999999997,0)" xlink:href="#ag"/><use transform="matrix(0.008888888888888887,0,0,0.008888888888888887,23.80444444444444,0)" xlink:href="#ad"/><use transform="matrix(0.008888888888888887,0,0,0.008888888888888887,30.43555555555555,0)" xlink:href="#bf"/><use transform="matrix(0.008888888888888887,0,0,0.008888888888888887,40.31999999999999,0)" xlink:href="#au"/><use transform="matrix(0.008888888888888887,0,0,0.008888888888888887,49.33333333333333,0)" xlink:href="#aI"/></g><g id="J"><use transform="matrix(0.008888888888888889,0,0,0.008888888888888889,0,0)" xlink:href="#ax"/><use transform="matrix(0.008888888888888889,0,0,0.008888888888888889,13.386666666666667,0)" xlink:href="#ay"/><use transform="matrix(0.008888888888888889,0,0,0.008888888888888889,27.573333333333334,0)" xlink:href="#az"/></g><g id="K"><use transform="matrix(0.008888888888888889,0,0,0.008888888888888889,0,0)" xlink:href="#al"/><use transform="matrix(0.008888888888888889,0,0,0.008888888888888889,9.422222222222222,0)" xlink:href="#ac"/><use transform="matrix(0.008888888888888889,0,0,0.008888888888888889,18.73777777777778,0)" xlink:href="#at"/><use transform="matrix(0.008888888888888889,0,0,0.008888888888888889,28.622222222222224,0)" xlink:href="#aB"/><use transform="matrix(0.008888888888888889,0,0,0.008888888888888889,38.56,0)" xlink:href="#ac"/><use transform="matrix(0.008888888888888889,0,0,0.008888888888888889,47.87555555555556,0)" xlink:href="#ag"/></g><path fill="#333" d="M598-887c-125 2-207 68-274 141V0H146v-1473h178v596c81-82 173-152 326-152 232 0 339 151 339 384V0H811v-645c0-149-65-244-213-242" id="bg"/><g id="L"><use transform="matrix(0.013333333333333329,0,0,0.013333333333333329,0,0)" xlink:href="#ap"/><use transform="matrix(0.013333333333333329,0,0,0.013333333333333329,15.733333333333329,0)" xlink:href="#bg"/><use transform="matrix(0.013333333333333329,0,0,0.013333333333333329,30.55999999999999,0)" xlink:href="#ac"/><use transform="matrix(0.013333333333333329,0,0,0.013333333333333329,44.53333333333332,0)" xlink:href="#al"/><use transform="matrix(0.013333333333333329,0,0,0.013333333333333329,58.66666666666665,0)" xlink:href="#aE"/><use transform="matrix(0.013333333333333329,0,0,0.013333333333333329,73.38666666666664,0)" xlink:href="#au"/><use transform="matrix(0.013333333333333329,0,0,0.013333333333333329,86.90666666666664,0)" xlink:href="#am"/><use transform="matrix(0.013333333333333329,0,0,0.013333333333333329,99.35999999999997,0)" xlink:href="#ac"/></g><g id="M"><use transform="matrix(0.013333333333333329,0,0,0.013333333333333329,0,0)" xlink:href="#aF"/><use transform="matrix(0.013333333333333329,0,0,0.013333333333333329,18.133333333333326,0)" xlink:href="#aE"/><use transform="matrix(0.013333333333333329,0,0,0.013333333333333329,32.853333333333325,0)" xlink:href="#aE"/></g><g id="N"><use transform="matrix(0.013333333333333329,0,0,0.013333333333333329,0,0)" xlink:href="#aF"/><use transform="matrix(0.013333333333333329,0,0,0.013333333333333329,18.133333333333326,0)" xlink:href="#ag"/><use transform="matrix(0.013333333333333329,0,0,0.013333333333333329,28.879999999999992,0)" xlink:href="#am"/><use transform="matrix(0.013333333333333329,0,0,0.013333333333333329,41.333333333333314,0)" xlink:href="#bg"/><use transform="matrix(0.013333333333333329,0,0,0.013333333333333329,56.15999999999997,0)" xlink:href="#aZ"/><use transform="matrix(0.013333333333333329,0,0,0.013333333333333329,62.986666666666636,0)" xlink:href="#ad"/><use transform="matrix(0.013333333333333329,0,0,0.013333333333333329,72.9333333333333,0)" xlink:href="#ac"/><use transform="matrix(0.013333333333333329,0,0,0.013333333333333329,86.90666666666662,0)" xlink:href="#am"/><use transform="matrix(0.013333333333333329,0,0,0.013333333333333329,99.35999999999996,0)" xlink:href="#ad"/><use transform="matrix(0.013333333333333329,0,0,0.013333333333333329,109.3066666666666,0)" xlink:href="#bf"/><use transform="matrix(0.013333333333333329,0,0,0.013333333333333329,124.1333333333333,0)" xlink:href="#ag"/><use transform="matrix(0.013333333333333329,0,0,0.013333333333333329,134.87999999999994,0)" xlink:href="#ac"/></g><g id="O"><use transform="matrix(0.007777777777777776,0,0,0.007777777777777776,0,0)" xlink:href="#av"/><use transform="matrix(0.007777777777777776,0,0,0.007777777777777776,6.7511111111111095,0)" xlink:href="#ad"/><use transform="matrix(0.007777777777777776,0,0,0.007777777777777776,12.553333333333331,0)" xlink:href="#au"/><use transform="matrix(0.007777777777777776,0,0,0.007777777777777776,20.439999999999998,0)" xlink:href="#ad"/><use transform="matrix(0.007777777777777776,0,0,0.007777777777777776,26.242222222222217,0)" xlink:href="#ac"/></g><g id="P"><use transform="matrix(0.007777777777777778,0,0,0.007777777777777778,0,0)" xlink:href="#aF"/><use transform="matrix(0.007777777777777778,0,0,0.007777777777777778,10.57777777777778,0)" xlink:href="#aq"/><use transform="matrix(0.007777777777777778,0,0,0.007777777777777778,20.082222222222224,0)" xlink:href="#aG"/></g><g id="Q"><use transform="matrix(0.007777777777777778,0,0,0.007777777777777778,0,0)" xlink:href="#am"/><use transform="matrix(0.007777777777777778,0,0,0.007777777777777778,7.264444444444445,0)" xlink:href="#au"/><use transform="matrix(0.007777777777777778,0,0,0.007777777777777778,15.151111111111113,0)" xlink:href="#aI"/><use transform="matrix(0.007777777777777778,0,0,0.007777777777777778,19.133333333333336,0)" xlink:href="#aI"/></g><g id="R"><use transform="matrix(0.007777777777777778,0,0,0.007777777777777778,0,0)" xlink:href="#af"/><use transform="matrix(0.007777777777777778,0,0,0.007777777777777778,8.648888888888889,0)" xlink:href="#ag"/></g><g id="S"><use transform="matrix(0.007777777777777778,0,0,0.007777777777777778,0,0)" xlink:href="#aG"/><use transform="matrix(0.007777777777777778,0,0,0.007777777777777778,4.775555555555556,0)" xlink:href="#at"/><use transform="matrix(0.007777777777777778,0,0,0.007777777777777778,13.424444444444445,0)" xlink:href="#ad"/><use transform="matrix(0.007777777777777778,0,0,0.007777777777777778,19.226666666666667,0)" xlink:href="#ac"/><use transform="matrix(0.007777777777777778,0,0,0.007777777777777778,27.37777777777778,0)" xlink:href="#ag"/><use transform="matrix(0.007777777777777778,0,0,0.007777777777777778,33.351111111111116,0)" xlink:href="#au"/><use transform="matrix(0.007777777777777778,0,0,0.007777777777777778,41.23777777777779,0)" xlink:href="#am"/><use transform="matrix(0.007777777777777778,0,0,0.007777777777777778,48.50222222222223,0)" xlink:href="#ad"/><use transform="matrix(0.007777777777777778,0,0,0.007777777777777778,54.30444444444445,0)" xlink:href="#aZ"/><use transform="matrix(0.007777777777777778,0,0,0.007777777777777778,58.28666666666667,0)" xlink:href="#af"/><use transform="matrix(0.007777777777777778,0,0,0.007777777777777778,66.93555555555555,0)" xlink:href="#at"/></g><g id="T"><use transform="matrix(0.007777777777777778,0,0,0.007777777777777778,0,0)" xlink:href="#aB"/><use transform="matrix(0.007777777777777778,0,0,0.007777777777777778,8.695555555555556,0)" xlink:href="#au"/><use transform="matrix(0.007777777777777778,0,0,0.007777777777777778,16.582222222222224,0)" xlink:href="#ad"/><use transform="matrix(0.007777777777777778,0,0,0.007777777777777778,22.384444444444448,0)" xlink:href="#au"/></g><g id="U"><use transform="matrix(0.007777777777777776,0,0,0.007777777777777776,0,0)" xlink:href="#am"/><use transform="matrix(0.007777777777777776,0,0,0.007777777777777776,7.264444444444442,0)" xlink:href="#af"/><use transform="matrix(0.007777777777777776,0,0,0.007777777777777776,15.91333333333333,0)" xlink:href="#ba"/><use transform="matrix(0.007777777777777776,0,0,0.007777777777777776,28.684444444444438,0)" xlink:href="#aE"/><use transform="matrix(0.007777777777777776,0,0,0.007777777777777776,37.271111111111104,0)" xlink:href="#af"/><use transform="matrix(0.007777777777777776,0,0,0.007777777777777776,45.91999999999999,0)" xlink:href="#at"/><use transform="matrix(0.007777777777777776,0,0,0.007777777777777776,54.56888888888888,0)" xlink:href="#ac"/><use transform="matrix(0.007777777777777776,0,0,0.007777777777777776,62.719999999999985,0)" xlink:href="#at"/><use transform="matrix(0.007777777777777776,0,0,0.007777777777777776,71.36888888888888,0)" xlink:href="#ad"/></g><g id="V"><use transform="matrix(0.008888888888888889,0,0,0.008888888888888889,0,0)" xlink:href="#aH"/><use transform="matrix(0.008888888888888889,0,0,0.008888888888888889,10.328888888888889,0)" xlink:href="#ba"/><use transform="matrix(0.008888888888888889,0,0,0.008888888888888889,24.924444444444447,0)" xlink:href="#aZ"/><use transform="matrix(0.008888888888888889,0,0,0.008888888888888889,29.47555555555556,0)" xlink:href="#ad"/><use transform="matrix(0.008888888888888889,0,0,0.008888888888888889,36.10666666666667,0)" xlink:href="#av"/></g><path fill="#999" d="M617-1433c323 3 534 130 534 444 0 310-216 446-534 453H387V0H194v-1433h423zm340 444c0-197-128-291-340-291H387v590h230c207-4 340-97 340-299" id="bh"/><path fill="#999" d="M1038-507c0 321-164 521-482 521S72-187 72-507c0-248 107-410 284-485 60-25 126-37 200-37 317 0 482 201 482 522zm-782 1c0 225 80 381 300 381 213 0 298-159 298-381 0-223-84-383-298-383-221 0-300 158-300 383" id="bi"/><path fill="#999" d="M584-856c-148 6-210 94-260 211V0H146v-1013c62 7 151-25 157 49l12 158c66-138 184-259 384-216 23 5 44 16 63 27l-23 133c-5 17-15 25-31 25-36 0-71-21-124-19" id="bj"/><path fill="#999" d="M698-76c-54 52-145 92-245 92-162 1-249-96-249-260v-620c-58-9-160 26-160-39v-71l166-21 41-313c4-50 80-30 131-34v349h290v129H382v608c-2 78 40 125 111 126 60 2 88-33 128-48 9 0 18 6 25 17" id="bk"/><g id="W"><use transform="matrix(0.008888888888888887,0,0,0.008888888888888887,0,0)" xlink:href="#bh"/><use transform="matrix(0.008888888888888887,0,0,0.008888888888888887,10.595555555555553,0)" xlink:href="#bi"/><use transform="matrix(0.008888888888888887,0,0,0.008888888888888887,20.479999999999997,0)" xlink:href="#bj"/><use transform="matrix(0.008888888888888887,0,0,0.008888888888888887,27.64444444444444,0)" xlink:href="#bk"/></g><g id="X"><use transform="matrix(0.007777777777777776,0,0,0.007777777777777776,0,0)" xlink:href="#aF"/><use transform="matrix(0.007777777777777776,0,0,0.007777777777777776,10.577777777777776,0)" xlink:href="#aE"/><use transform="matrix(0.007777777777777776,0,0,0.007777777777777776,19.16444444444444,0)" xlink:href="#aE"/></g><g id="Y"><use transform="matrix(0.007777777777777776,0,0,0.007777777777777776,0,0)" xlink:href="#az"/><use transform="matrix(0.007777777777777776,0,0,0.007777777777777776,14.311111111111108,0)" xlink:href="#au"/><use transform="matrix(0.007777777777777776,0,0,0.007777777777777776,22.197777777777773,0)" xlink:href="#aE"/></g><path fill="#333" d="M1344-139C1208-39 1036 20 799 16c-345-5-555-181-657-435-70-174-66-421 0-596 113-299 413-484 839-421 148 22 259 85 350 168l-55 88c-38 58-99 7-135-18-118-82-379-113-543-44-193 82-310 256-310 526 0 276 118 454 313 536 175 73 436 36 567-45v-316H946c-65 1-35-91-42-148h440v550" id="bl"/><g id="Z"><use transform="matrix(0.007777777777777776,0,0,0.007777777777777776,0,0)" xlink:href="#aA"/><use transform="matrix(0.007777777777777776,0,0,0.007777777777777776,9.659999999999998,0)" xlink:href="#bl"/><use transform="matrix(0.007777777777777776,0,0,0.007777777777777776,21.077777777777776,0)" xlink:href="#bc"/><use transform="matrix(0.007777777777777776,0,0,0.007777777777777776,31.142222222222216,0)" xlink:href="#aF"/></g><path fill="#333" d="M443 299c-13 26-25 44-64 44H247L432-59 14-1013h154c30-1 46 18 55 37 95 228 197 450 287 682 6 14 8 30 11 45 10-32 18-60 30-90l263-637c18-60 124-30 194-37" id="bm"/><g id="aa"><use transform="matrix(0.007777777777777776,0,0,0.007777777777777776,0,0)" xlink:href="#aF"/><use transform="matrix(0.007777777777777776,0,0,0.007777777777777776,10.577777777777776,0)" xlink:href="#ag"/><use transform="matrix(0.007777777777777776,0,0,0.007777777777777776,16.846666666666664,0)" xlink:href="#ag"/><use transform="matrix(0.007777777777777776,0,0,0.007777777777777776,22.819999999999997,0)" xlink:href="#au"/><use transform="matrix(0.007777777777777776,0,0,0.007777777777777776,30.45777777777777,0)" xlink:href="#bm"/></g></defs></g></svg>