<svg xmlns="http://www.w3.org/2000/svg" xmlns:xlink="http://www.w3.org/1999/xlink" xmlns:lucid="lucid" width="1382.2" height="1012.26"><g transform="translate(-220 -187.73521939427104)" lucid:page-tab-id="0_0"><path d="M0 0h1760v1360H0z" fill="#fff"/><path d="M1057.2 726a6 6 0 0 1 6-6h168a6 6 0 0 1 6 6v108a6 6 0 0 1-6 6h-168a6 6 0 0 1-6-6z" stroke="#5e5e5e" stroke-width="3" fill="#fff"/><use xlink:href="#a" transform="matrix(1,0,0,1,1069.200344383753,732) translate(45.48148148148149 41.22222222222222)"/><use xlink:href="#b" transform="matrix(1,0,0,1,1069.200344383753,732) translate(1.2839506172839776 62.55555555555555)"/><path d="M1446.2 775.43c-13.25 0-24-10.75-24-24 0-10.6 6.5-19.55 16.58-22.83-.58-31.17 39.42-37.17 55.42-25.17 8-18 48-12 48 6 24-6 48 18 32 48 16 24 0 54-32 42-8 15.6-40 15.6-48 0-16 12-48 6-48-24z" stroke="#5e5e5e" stroke-width="3" fill="#fff"/><use xlink:href="#c" transform="matrix(1,0,0,1,1427.200344383753,696.4256286869793) translate(26.03086419753086 59.02777777777778)"/><path d="M1057.2 1020.8a6 6 0 0 1 6-6h168a6 6 0 0 1 6 6v108a6 6 0 0 1-6 6h-168a6 6 0 0 1-6-6z" stroke="#5e5e5e" stroke-width="3" fill="#fff"/><use xlink:href="#d" transform="matrix(1,0,0,1,1069.2003443837525,1026.8037721218752) translate(47.90123456790124 50.22222222222222)"/><path d="M1057.2 460.85a6 6 0 0 1 6-6h168a6 6 0 0 1 6 6v108a6 6 0 0 1-6 6h-168a6 6 0 0 1-6-6z" stroke="#5e5e5e" stroke-width="3" fill="#fff"/><use xlink:href="#e" transform="matrix(1,0,0,1,1069.200344383753,466.85125737395845) translate(57.308641975308646 50.22222222222222)"/><path d="M693.5 1020.85a6 6 0 0 1 6-6h168a6 6 0 0 1 6 6v108a6 6 0 0 1-6 6h-168a6 6 0 0 1-6-6z" stroke="#5e5e5e" stroke-width="3" fill="#fff"/><use xlink:href="#f" transform="matrix(1,0,0,1,705.4999999999997,1026.8512573739586) translate(48.40123456790124 32.22222222222222)"/><use xlink:href="#g" transform="matrix(1,0,0,1,705.4999999999997,1026.8512573739586) translate(41.53703703703704 53.55555555555555)"/><use xlink:href="#h" transform="matrix(1,0,0,1,705.4999999999997,1026.8512573739586) translate(50.740740740740755 71.33333333333331)"/><path d="M693.5 726.05a6 6 0 0 1 6-6h168a6 6 0 0 1 6 6v108a6 6 0 0 1-6 6h-168a6 6 0 0 1-6-6z" stroke="#5e5e5e" stroke-width="2" fill="#fff"/><use xlink:href="#i" transform="matrix(1,0,0,1,705.4999999999995,732.0474852520831) translate(59.78395061728395 32.22222222222222)"/><use xlink:href="#j" transform="matrix(1,0,0,1,705.4999999999995,732.0474852520831) translate(49.88271604938272 53.55555555555555)"/><use xlink:href="#k" transform="matrix(1,0,0,1,705.4999999999995,732.0474852520831) translate(62.611111111111114 71.33333333333331)"/><path d="M878.94 1075.85h-2.98v-2h2.98zm9.93 0h-5.96v-2h5.97zm9.93 0h-5.96v-2h5.96zm9.93 0h-5.96v-2h5.96zm9.73 0h-5.76v-2h5.76zm101.32-.05h-6.16v-2h6.16zm10.27 0h-6.16v-2h6.15zm7.2 0h-3.1v-2h3.1z" stroke="#5e5e5e" stroke-width=".05" fill="#5e5e5e"/><path d="M876 1075.85h-1.04v-2H876z" fill="#5e5e5e"/><path d="M876 1075.88h-1.06v-2.05H876zm-1-2v1.95h.96v-1.95z" stroke="#5e5e5e" stroke-width=".05" fill="#5e5e5e"/><path d="M1052.5 1074.8l-14.26 4.64v-9.27z" fill="#5e5e5e"/><path d="M1055.74 1074.8l-18.5 6.02v-12.03zm-16.5 3.26l10.02-3.26-10.02-3.26z" stroke="#5e5e5e" stroke-width=".05" fill="#5e5e5e"/><use xlink:href="#l" transform="matrix(1,0,0,1,918.4612833029871,1064.1608480812502) translate(0.005000000000002558 14.222222222222223)"/><use xlink:href="#m" transform="matrix(1,0,0,1,918.4612833029871,1064.1608480812502) translate(65.14080246913579 14.222222222222223)"/><path d="M1446.2 984c-13.25 0-24-10.75-24-24 0-10.6 6.5-19.55 16.58-22.83C1438.2 906 1478.2 900 1494.2 912c8-18 48-12 48 6 24-6 48 18 32 48 16 24 0 54-32 42-8 15.6-40 15.6-48 0-16 12-48 6-48-24z" stroke="#5e5e5e" stroke-width="3" fill="#fff"/><use xlink:href="#n" transform="matrix(1,0,0,1,1427.200344383753,905) translate(39.54938271604939 59.02777777777778)"/><path d="M1446.2 1144c-13.25 0-24-10.75-24-24 0-10.6 6.5-19.55 16.58-22.83-.58-31.17 39.42-37.17 55.42-25.17 8-18 48-12 48 6 24-6 48 18 32 48 16 24 0 54-32 42-8 15.6-40 15.6-48 0-16 12-48 6-48-24z" stroke="#5e5e5e" stroke-width="3" fill="#fff"/><use xlink:href="#o" transform="matrix(1,0,0,1,1427.200344383753,1065) translate(43.12962962962963 59.02777777777778)"/><path d="M1277.63 742.58h-20.5v-2h20.5zm236.05-92.3l1.07.26 1.02.42.94.57.84.7.7.85.6.94.4 1 .27 1.12.1 16.55h-2l-.08-16.32-.18-.73-.3-.72-.4-.67-.52-.6-.6-.5-.66-.42-.73-.3-.76-.18-.82-.06-151.22.07-.72.17-.72.3-.67.4-.58.52-.5.6-.42.67-.3.72-.2.76-.05.84-.07 73.67h-2l.07-73.74.08-1.06.26-1.07.4-1 .58-.95.72-.84.83-.7.94-.58 1.02-.42 1.1-.27 151.53-.07z" stroke="#5e5e5e" stroke-width=".05" fill="#5e5e5e"/><path d="M1256.14 746.2l-14.27-4.62 14.27-4.64z" fill="#5e5e5e"/><path d="M1257.14 747.6l-18.5-6.02 18.5-6.02zm-12.03-6.02l10.04 3.25v-6.5z" stroke="#5e5e5e" stroke-width=".05" fill="#5e5e5e"/><path d="M1518.6 687.96l-4.65-14.27h9.27z" fill="#5e5e5e"/><path d="M1518.6 691.2l-6.02-18.5h12.02zm-3.27-16.5l3.26 10.02 3.25-10.03z" stroke="#5e5e5e" stroke-width=".05" fill="#5e5e5e"/><use xlink:href="#p" transform="matrix(1,0,0,1,1471.040194641791,625.8626301829207) translate(0 14.222222222222223)"/><use xlink:href="#q" transform="matrix(1,0,0,1,1471.040194641791,625.8626301829207) translate(44.39506172839507 14.222222222222223)"/><use xlink:href="#r" transform="matrix(1,0,0,1,1277.6345679012345,730.908443021776) translate(0 14.222222222222223)"/><use xlink:href="#q" transform="matrix(1,0,0,1,1277.6345679012345,730.908443021776) translate(77.77777777777777 14.222222222222223)"/><path d="M1397.3 779.08l1.06.26 1.02.42.94.57.83.72.72.83.57.94.42 1.02.27 1.1.07 169.02.06.82.2.76.3.73.4.67.5.6.6.5.67.4.73.3.72.2 12.32.06v2l-12.56-.07-1.1-.27-1.02-.42-.94-.57-.83-.72-.72-.83-.57-.94-.42-1.02-.26-1.06-.08-1.06-.07-168.86-.18-.72-.3-.73-.4-.67-.52-.6-.6-.5-.66-.4-.73-.3-.76-.2-.82-.06h-27.44v-2h27.52zM1257.17 781v-2h19.9v2z" stroke="#5e5e5e" stroke-width=".05" fill="#5e5e5e"/><path d="M1256.17 784.64L1241.9 780l14.27-4.64z" fill="#5e5e5e"/><path d="M1257.17 786l-18.5-6 18.5-6zm-12.03-6l10.03 3.26v-6.52z" stroke="#5e5e5e" stroke-width=".05" fill="#5e5e5e"/><path d="M1420.7 959.96l.05 1.04h-1.08v-2h1.13z" fill="#5e5e5e"/><path d="M1420.72 959.96l.06 1.06h-1.13V959h1.18zm-1.02-.94V961h1.03l-.06-1.02.1-.94z" stroke="#5e5e5e" stroke-width=".05" fill="#5e5e5e"/><use xlink:href="#s" transform="matrix(1,0,0,1,1277.0688087842357,769.3333333333334) translate(0 14.222222222222223)"/><use xlink:href="#q" transform="matrix(1,0,0,1,1277.0688087842357,769.3333333333334) translate(53.23456790123458 14.222222222222223)"/><path d="M1357.76 1113.96l.07.82.18.76.3.73.42.67.5.6.6.5.67.4.72.3.72.2 40.26.06v2l-40.5-.07-1.1-.27-1.02-.42-.93-.57-.84-.72-.7-.83-.58-.94-.42-1.02-.25-1.06-.1-1.06v-58.87h2zm-.02-80.12h-2l-.05-205.38h2zM1257.2 818.8v-2h21.05v2z" stroke="#5e5e5e" stroke-width=".05" fill="#5e5e5e"/><path d="M1256.2 822.43l-14.27-4.64 14.26-4.64z" fill="#5e5e5e"/><path d="M1257.2 823.8l-18.5-6 18.5-6.02zm-12.04-6l10.03 3.25v-6.5z" stroke="#5e5e5e" stroke-width=".05" fill="#5e5e5e"/><path d="M1417.46 1120l-14.26 4.64v-9.28z" fill="#5e5e5e"/><path d="M1420.7 1120l-18.5 6v-12zm-16.5 3.26l10.03-3.26-10.03-3.26z" stroke="#5e5e5e" stroke-width=".05" fill="#5e5e5e"/><use xlink:href="#t" transform="matrix(1,0,0,1,1278.2518518518518,807.1275313256522) translate(0 14.222222222222223)"/><use xlink:href="#q" transform="matrix(1,0,0,1,1278.2518518518518,807.1275313256522) translate(56.543209876543216 14.222222222222223)"/><use xlink:href="#p" transform="matrix(1,0,0,1,1315.3552709399432,1033.8376660364024) translate(0 14.222222222222223)"/><use xlink:href="#q" transform="matrix(1,0,0,1,1315.3552709399432,1033.8376660364024) translate(44.39506172839507 14.222222222222223)"/><path d="M923.68 761.26h-48.23v-2h48.23zm113.54-.1h-30.73v-2h30.72z" stroke="#5e5e5e" stroke-width=".05" fill="#5e5e5e"/><path d="M1052.5 760.15l-14.28 4.64v-9.28z" fill="#5e5e5e"/><path d="M1055.72 760.15l-18.5 6.02v-12.03zm-16.5 3.26l10.03-3.25-10.03-3.26z" stroke="#5e5e5e" stroke-width=".05" fill="#5e5e5e"/><path d="M875.48 761.27h-1.03v-2h1.03z" fill="#5e5e5e"/><path d="M875.5 761.3h-1.07v-2.06h1.07zm-1.03-2v1.94h.98v-1.95z" stroke="#5e5e5e" stroke-width=".05" fill="#5e5e5e"/><use xlink:href="#p" transform="matrix(1,0,0,1,923.6793145262383,749.5444053831496) translate(0 14.222222222222223)"/><use xlink:href="#q" transform="matrix(1,0,0,1,923.6793145262383,749.5444053831496) translate(44.39506172839507 14.222222222222223)"/><path d="M1054.75 795.14v2h-70.43v-2zm-108.85-.02v2l-52.93-.06v-2z" stroke="#5e5e5e" stroke-width=".05" fill="#5e5e5e"/><path d="M1055.75 797.14h-1.03v-2h1.03z" fill="#5e5e5e"/><path d="M1055.77 797.17h-1.07v-2.05h1.07zm-1.02-2v1.95h.97v-1.95z" stroke="#5e5e5e" stroke-width=".05" fill="#5e5e5e"/><path d="M891.98 800.7l-14.27-4.64 14.28-4.64z" fill="#5e5e5e"/><path d="M892.98 802.07l-18.5-6 18.5-6.03zm-12.03-6l10.03 3.25v-6.52z" stroke="#5e5e5e" stroke-width=".05" fill="#5e5e5e"/><use xlink:href="#u" transform="matrix(1,0,0,1,945.9012080896771,785.4316124186471) translate(0.004999999999999005 14.222222222222223)"/><path d="M723.63 346a6 6 0 0 1 6-6h107.75a6 6 0 0 1 6 6v28a6 6 0 0 1-6 6H729.63a6 6 0 0 1-6-6z" stroke="#000" stroke-opacity="0" stroke-width="3" fill="#fff" fill-opacity="0"/><use xlink:href="#v" transform="matrix(1,0,0,1,728.6250000000002,345) translate(0 17.777777777777775)"/><path d="M360 346a6 6 0 0 1 6-6h33a6 6 0 0 1 6 6v28a6 6 0 0 1-6 6h-33a6 6 0 0 1-6-6z" stroke="#000" stroke-opacity="0" stroke-width="3" fill="#fff" fill-opacity="0"/><use xlink:href="#w" transform="matrix(1,0,0,1,365,345) translate(0 17.777777777777775)"/><path d="M300 1020.8a6 6 0 0 1 6-6h168a6 6 0 0 1 6 6v108a6 6 0 0 1-6 6H306a6 6 0 0 1-6-6z" stroke="#5e5e5e" stroke-width="3" fill="#fff"/><use xlink:href="#f" transform="matrix(1,0,0,1,311.9999999999998,1026.8037721218752) translate(48.40123456790124 32.22222222222222)"/><use xlink:href="#x" transform="matrix(1,0,0,1,311.9999999999998,1026.8037721218752) translate(43.48765432098766 53.55555555555555)"/><use xlink:href="#y" transform="matrix(1,0,0,1,311.9999999999998,1026.8037721218752) translate(43.37037037037038 71.33333333333331)"/><path d="M300 726a6 6 0 0 1 6-6h168a6 6 0 0 1 6 6v108a6 6 0 0 1-6 6H306a6 6 0 0 1-6-6z" stroke="#5e5e5e" stroke-width="3" fill="#fff"/><use xlink:href="#i" transform="matrix(1,0,0,1,311.99999999999983,732) translate(59.78395061728395 32.22222222222222)"/><use xlink:href="#x" transform="matrix(1,0,0,1,311.99999999999983,732) translate(43.48765432098766 53.55555555555555)"/><use xlink:href="#z" transform="matrix(1,0,0,1,311.99999999999983,732) translate(54.11111111111112 71.33333333333331)"/><path d="M1102.2 346a6 6 0 0 1 6-6h89.25a6 6 0 0 1 6 6v28a6 6 0 0 1-6 6h-89.25a6 6 0 0 1-6-6z" stroke="#000" stroke-opacity="0" stroke-width="3" fill="#fff" fill-opacity="0"/><use xlink:href="#A" transform="matrix(1,0,0,1,1107.200344383753,345) translate(0 17.777777777777775)"/><path d="M673.53 1073.85v2h-2.9v-2zm-6.74 0v2H661v-2zm-9.65 0v2h-5.8v-2zm-9.64 0v2h-5.78v-2zm-9.64 0v2h-5.78v-2zm-9.64 0v2h-.56v-2zm-142.63 1.95h-3.14v-2h3.13zm10.42 0h-6.26v-2h6.26zm10.42 0h-6.25v-2h6.24zm10.43 0h-6.26v-2h6.27zm10.43 0h-6.26v-2h6.26zm10.42 0h-6.25v-2h6.25zm8.12 0h-3.95v-2h3.94z" stroke="#5e5e5e" stroke-width=".05" fill="#5e5e5e"/><path d="M482.5 1075.8h-1.04v-2h1.03z" fill="#5e5e5e"/><path d="M482.5 1075.83h-1.06v-2.05h1.07zm-1-2v1.95h.96v-1.95z" stroke="#5e5e5e" stroke-width=".05" fill="#5e5e5e"/><path d="M688.8 1074.85l-14.27 4.64v-9.28z" fill="#5e5e5e"/><path d="M692.04 1074.85l-18.5 6v-12zm-16.5 3.26l10.02-3.25-10.03-3.26z" stroke="#5e5e5e" stroke-width=".05" fill="#5e5e5e"/><use xlink:href="#B" transform="matrix(1,0,0,1,545.8364197530861,1053.4941814145836) translate(11.83216049382716 14.222222222222223)"/><use xlink:href="#C" transform="matrix(1,0,0,1,545.8364197530861,1053.4941814145836) translate(0.005000000000002558 35.55555555555556)"/><path d="M300 460.85a6 6 0 0 1 6-6h168a6 6 0 0 1 6 6v108a6 6 0 0 1-6 6H306a6 6 0 0 1-6-6z" stroke="#5e5e5e" stroke-width="3" fill="#fff"/><use xlink:href="#D" transform="matrix(1,0,0,1,312.0000000000001,466.85125737395845) translate(69.6358024691358 44.22222222222222)"/><use xlink:href="#E" transform="matrix(1,0,0,1,312.0000000000001,466.85125737395845) translate(51.53703703703705 61.99999999999999)"/><path d="M1425.2 519.04a10.35 10.35 0 0 1 0-10.38l34-58.62a10.4 10.4 0 0 1 9-5.2h68a10.4 10.4 0 0 1 9 5.2l34 58.62a10.35 10.35 0 0 1 0 10.38l-34 58.62a10.4 10.4 0 0 1-9 5.2h-68a10.4 10.4 0 0 1-9-5.2z" stroke="#5e5e5e" stroke-width="3" fill="#fff"/><use xlink:href="#F" transform="matrix(1,0,0,1,1427.200344383753,449.85125737395845) translate(51.60993827160494 69.77777777777777)"/><path d="M1260.1 492.97h-2.95v-2h2.95zm29.54 0h-5.9v-2h5.9zm-9.84 0h-5.9v-2h5.9zm-9.85 0h-5.9v-2h5.9zm37.36 0h-3.87v-2h3.88zm-7.8 0h-5.92v-2h5.9zm132.7 0h-2.9v-2h2.9zm-6.74 0h-5.78v-2h5.78zm-9.63 0h-5.77v-2h5.77zm-9.62 0h-5.77v-2h5.78zm-9.62 0h-5.78v-2h5.78zm-9.63 0h-2.65v-2h2.65z" stroke="#5e5e5e" stroke-width=".05" fill="#5e5e5e"/><path d="M1432.62 492.97h-.45v-2h1.6z" fill="#5e5e5e"/><path d="M1432.64 493h-.5v-2.06h1.68zm-.44-2v1.94h.4l1.13-1.95z" stroke="#5e5e5e" stroke-width=".05" fill="#5e5e5e"/><path d="M1256.15 496.6l-14.27-4.63 14.27-4.64z" fill="#5e5e5e"/><path d="M1257.15 497.98l-18.5-6 18.5-6.02zm-12.03-6l10.03 3.25v-6.52z" stroke="#5e5e5e" stroke-width=".05" fill="#5e5e5e"/><use xlink:href="#G" transform="matrix(1,0,0,1,1307.3084141339648,481.30145701007336) translate(0.005000000000002558 14.222222222222223)"/><use xlink:href="#H" transform="matrix(1,0,0,1,1307.3084141339648,481.30145701007336) translate(22.671666666666674 14.222222222222223)"/><path d="M1054.74 514.85h-89.37a.02.02 0 0 0-.02.02.02.02 0 0 1-.02.03h-89.37" stroke="#5e5e5e" stroke-width="2" fill="none"/><path d="M1055.74 515.85h-1.03v-2h1.04zM876 515.9h-1.04v-2H876z" stroke="#5e5e5e" stroke-width=".05" fill="#5e5e5e"/><path d="M693.5 460.9a6 6 0 0 1 6-6h168a6 6 0 0 1 6 6v108a6 6 0 0 1-6 6h-168a6 6 0 0 1-6-6z" fill-opacity="0"/><path d="M709.3 454.97h9.23m6.14 0h9.2m6.16-.02h9.2m6.16 0h9.2m6.14 0h9.22m6.14-.02h9.22m6.14 0h9.22m6.14 0h9.2m6.16-.02h9.2m6.15 0h9.22m6.14 0h4.6l.94.07.9.22.88.35.8.5.72.6.6.72.5.8.37.87.23.92v4.67m0 6.22v9.34m0 6.22l.02 9.33m0 6.23v9.34m.02 6.22v9.34m0 6.22v9.34m.02 6.23V558m0 6.23v4.67l-.07.94-.22.9-.35.88-.5.8-.6.72-.72.6-.8.5-.88.37-.9.22h-4.62m-6.14 0h-9.23m-6.14.02h-9.2m-6.16 0h-9.2m-6.16 0h-9.2m-6.14.02h-9.22m-6.14 0h-9.22m-6.14 0h-9.22m-6.14.02h-9.2m-6.16 0h-9.2m-6.15 0h-9.22m-6.14.02h-4.6l-.94-.08-.9-.2-.88-.38-.8-.5-.72-.6-.6-.7-.5-.82-.37-.87-.23-.9v-4.68m0-6.23v-9.33m0-6.22l-.02-9.34m0-6.22v-9.34m-.02-6.22v-9.34m0-6.23v-9.34m-.02-6.23v-9.34m0-6.23v-4.67l.07-.94.22-.92.35-.87.5-.8.6-.7.72-.63.8-.5.88-.35.9-.23h4.62" stroke="#5e5e5e" stroke-width="3" fill="none"/><use xlink:href="#I" transform="matrix(1,0,0,1,705.4999999999997,466.89874262604155) translate(53.561728395061735 41.22222222222222)"/><use xlink:href="#e" transform="matrix(1,0,0,1,705.4999999999997,466.89874262604155) translate(57.808641975308646 62.55555555555555)"/><path d="M502.83 479.48h-2.9v-2h2.9zm9.64 0h-5.78v-2h5.77zm9.65 0h-5.8v-2h5.8zm9.64 0h-5.8v-2h5.8zm4.64 0h-.8v-2h.8zm105.6-.02h-4.95v-2H642zm10.43 0h-6.26v-2h6.26zm10.43 0h-6.26v-2h6.26zm10.42 0h-6.25v-2h6.25zm10.43 0h-6.24v-2h6.25zm7.3 0h-3.12v-2H691z" stroke="#5e5e5e" stroke-width=".05" fill="#5e5e5e"/><path d="M498.94 483.1l-14.27-4.62 14.27-4.64z" fill="#5e5e5e"/><path d="M499.94 484.5l-18.5-6.02 18.5-6.02zm-12.03-6.02l10.04 3.25v-6.5z" stroke="#5e5e5e" stroke-width=".05" fill="#5e5e5e"/><path d="M692 479.46h-1v-2h1z" fill="#5e5e5e"/><path d="M692.04 479.48h-1.08v-2.05h1.08zm-1.03-2v1.95h1v-1.95z" stroke="#5e5e5e" stroke-width=".05" fill="#5e5e5e"/><use xlink:href="#J" transform="matrix(1,0,0,1,536.4042953053405,467.7991680295767) translate(0.005000000000002558 14.222222222222223)"/><use xlink:href="#H" transform="matrix(1,0,0,1,536.4042953053405,467.7991680295767) translate(46.325987654321 14.222222222222223)"/><path d="M673.53 515.85h-2.9v-2h2.9zm-6.75 0H661v-2h5.78zm-9.64 0h-5.78v-2h5.78zm-9.64 0h-5.8v-2h5.8zm-9.64 0h-5.8v-2h5.8zm-9.65 0h-3.97v-2h3.98zm-80.04 0h-6.25v-2h6.26zm-10.42 0h-6.26v-2h6.26zm-10.43 0h-6.25v-2h6.26zm-10.42 0h-6.26v-2h6.26zm-10.43 0h-6.26v-2h6.25zm-10.43 0h-6.26v-2h6.26zm-10.43 0h-3.14v-2h3.13z" stroke="#5e5e5e" stroke-width=".05" fill="#5e5e5e"/><path d="M688.8 514.85l-14.27 4.64v-9.28z" fill="#5e5e5e"/><path d="M692.04 514.85l-18.5 6v-12zm-16.5 3.26l10.02-3.25-10.03-3.26z" stroke="#5e5e5e" stroke-width=".05" fill="#5e5e5e"/><path d="M482.5 515.85h-1.04v-2h1.03z" fill="#5e5e5e"/><path d="M482.5 515.88h-1.06v-2.05h1.07zm-1-2v1.95h.96v-1.95z" stroke="#5e5e5e" stroke-width=".05" fill="#5e5e5e"/><use xlink:href="#J" transform="matrix(1,0,0,1,549.2685024068461,504.18460953441314) translate(0.005000000000002558 14.222222222222223)"/><use xlink:href="#m" transform="matrix(1,0,0,1,549.2685024068461,504.18460953441314) translate(46.325987654321 14.222222222222223)"/><path d="M674 746.25v2h-2.9v-2zm-6.75 0v2h-5.8v-2zm-9.66 0v2h-5.8v-2zm-9.68 0v2h-5.8v-2zm-9.66 0v2h-5.8v-2zm-152.7 1.84h-3.12v-2h3.13zm10.46 0h-6.27v-2h6.27zm10.45 0h-6.27v-2h6.27zm10.44 0h-6.26v-2h6.27zm10.46 0h-6.27v-2h6.26zm10.44 0h-6.27v-2h6.27z" stroke="#5e5e5e" stroke-width=".05" fill="#5e5e5e"/><path d="M482.47 748.1h-1.03v-2h1.03z" fill="#5e5e5e"/><path d="M482.5 748.1h-1.08v-2.04h1.07zm-1.03-2v1.96h.97v-1.95z" stroke="#5e5e5e" stroke-width=".05" fill="#5e5e5e"/><path d="M689.28 747.25L675 751.9v-9.28z" fill="#5e5e5e"/><path d="M692.5 747.25l-18.5 6v-12zM676 750.5l10.04-3.25L676 744z" stroke="#5e5e5e" stroke-width=".05" fill="#5e5e5e"/><use xlink:href="#K" transform="matrix(1,0,0,1,541.57028926843,736.5033239492595) translate(0.005000000000002558 14.222222222222223)"/><use xlink:href="#m" transform="matrix(1,0,0,1,541.57028926843,736.5033239492595) translate(62.17783950617285 14.222222222222223)"/><path d="M567.8 813.25l-67.8.06v-2l67.8-.05zm123.76-.13h-85.33v-2h85.33z" stroke="#5e5e5e" stroke-width=".05" fill="#5e5e5e"/><path d="M692.56 813.12h-1.03v-2h1.03z" fill="#5e5e5e"/><path d="M692.58 813.15h-1.07v-2.05h1.08zm-1.02-2v1.95h.97v-1.95z" stroke="#5e5e5e" stroke-width=".05" fill="#5e5e5e"/><path d="M499 816.95l-14.28-4.64L499 807.7z" fill="#5e5e5e"/><path d="M500 818.33l-18.5-6.02 18.5-6zm-12.04-6.02l10.03 3.27v-6.5z" stroke="#5e5e5e" stroke-width=".05" fill="#5e5e5e"/><use xlink:href="#u" transform="matrix(1,0,0,1,567.8119794045024,801.551655277647) translate(0 14.222222222222223)"/><path d="M674.03 779.05v2H628.4v-2zm-191.57 2v-2h63.13v2z" stroke="#5e5e5e" stroke-width=".05" fill="#5e5e5e"/><path d="M482.5 781.05h-1.04v-2h1.03z" fill="#5e5e5e"/><path d="M482.5 781.07h-1.06v-2.05h1.07zm-1-2v1.95h.96v-1.95z" stroke="#5e5e5e" stroke-width=".05" fill="#5e5e5e"/><path d="M689.3 780.05l-14.27 4.63v-9.27z" fill="#5e5e5e"/><path d="M692.54 780.05l-18.5 6v-12zm-16.5 3.26l10.02-3.25-10.03-3.26z" stroke="#5e5e5e" stroke-width=".05" fill="#5e5e5e"/><use xlink:href="#p" transform="matrix(1,0,0,1,545.5926087618723,769.3807997582951) translate(0 14.222222222222223)"/><use xlink:href="#q" transform="matrix(1,0,0,1,545.5926087618723,769.3807997582951) translate(44.39506172839507 14.222222222222223)"/><path d="M545.36 547.6H500v-2h45.36zm145.7-.02h-62.88v-2h62.88z" stroke="#5e5e5e" stroke-width=".05" fill="#5e5e5e"/><path d="M692.06 547.58h-1.03v-2h1.03z" fill="#5e5e5e"/><path d="M692.08 547.6H691v-2.05h1.08zm-1.02-2v1.95h.97v-1.95z" stroke="#5e5e5e" stroke-width=".05" fill="#5e5e5e"/><path d="M499 551.23l-14.28-4.64 14.27-4.64z" fill="#5e5e5e"/><path d="M500 552.6l-18.52-6 18.5-6.02zm-12.04-6l10.03 3.25v-6.5z" stroke="#5e5e5e" stroke-width=".05" fill="#5e5e5e"/><use xlink:href="#p" transform="matrix(1,0,0,1,545.3641210801771,535.9206359585908) translate(0 14.222222222222223)"/><use xlink:href="#q" transform="matrix(1,0,0,1,545.3641210801771,535.9206359585908) translate(44.39506172839507 14.222222222222223)"/><path d="M240 213.74a6 6 0 0 1 6-6h348a6 6 0 0 1 6 6v45.48a6 6 0 0 1-6 6H246a6 6 0 0 1-6-6z" stroke="#000" stroke-opacity="0" stroke-width="3" fill="#fff" fill-opacity="0"/><use xlink:href="#L" transform="matrix(1,0,0,1,245,212.73521939427104) translate(0 30.33333333333333)"/><use xlink:href="#M" transform="matrix(1,0,0,1,245,212.73521939427104) translate(128.81481481481475 30.33333333333333)"/><use xlink:href="#N" transform="matrix(1,0,0,1,245,212.73521939427104) translate(183.62962962962956 30.33333333333333)"/><path d="M1136 240c10.5 0 19 8.95 19 20s-8.5 20-19 20h-57c-10.5 0-19-8.95-19-20s8.5-20 19-20z" stroke="#5e5e5e" stroke-width="3" fill="#fff"/><use xlink:href="#O" transform="matrix(1,0,0,1,1065,245) translate(25.648148148148152 18.069444444444443)"/><path d="M1321 265.15h3m4.02 0h6m4.02 0h6m4.02 0h6m4.02 0h6.02m4 0h6.02m4 0h6.02m4 0h6.03m4 0h6.02m4 0h6m4.02 0h6m4.02 0h6.02m4 0h6.02m4 0h6.02m4 0h6.02m4 0h6.03m4 0h6.02m4 0h6.02m4 0h6m4.02 0h6.02m4 0h6.02m4 0h6.02m4 0h3.02M1321.03 265.15H1320" stroke="#5e5e5e" stroke-width="2" fill="none"/><path d="M1556.76 265.15l-14.26 4.63v-9.27z" stroke="#5e5e5e" stroke-width="2" fill="#5e5e5e"/><use xlink:href="#P" transform="matrix(1,0,0,1,1366.219135802469,242.4820759593749) translate(0 12.444444444444446)"/><use xlink:href="#Q" transform="matrix(1,0,0,1,1366.219135802469,242.4820759593749) translate(29.38271604938272 12.444444444444446)"/><use xlink:href="#R" transform="matrix(1,0,0,1,1366.219135802469,242.4820759593749) translate(56.95061728395062 12.444444444444446)"/><use xlink:href="#S" transform="matrix(1,0,0,1,1366.219135802469,242.4820759593749) translate(75.05555555555556 12.444444444444446)"/><path d="M1181 265.15h95.5M1181.03 265.15H1180" stroke="#5e5e5e" stroke-width="2" fill="none"/><path d="M1291.76 265.15l-14.26 4.63v-9.27z" stroke="#5e5e5e" stroke-width="2" fill="#5e5e5e"/><use xlink:href="#T" transform="matrix(1,0,0,1,1216.396543209876,242.4820759593749) translate(0 12.444444444444446)"/><path d="M900 246a6 6 0 0 1 6-6h113a6 6 0 0 1 6 6v31.25a6 6 0 0 1-6 6H906a6 6 0 0 1-6-6z" stroke="#5e5e5e" stroke-width="3" fill="#fff"/><use xlink:href="#U" transform="matrix(1,0,0,1,905,245) translate(19.064814814814824 20.944444444444443)"/><path d="M437.72 700h-2l-.02-41.93h2zm-.03-63.26h-2V577.3h2z" stroke="#5e5e5e" stroke-width=".05" fill="#5e5e5e"/><path d="M437.7 577.32h-2v-1.03h2z" fill="#5e5e5e"/><path d="M437.7 577.34h-2.04v-1.07h2.05zm-2-1.02v.97h1.96v-.98z" stroke="#5e5e5e" stroke-width=".05" fill="#5e5e5e"/><path d="M436.72 715.28L432.1 701h9.26z" fill="#5e5e5e"/><path d="M436.72 718.52l-6-18.5h12zm-3.26-16.5l3.26 10.02 3.26-10.03z" stroke="#5e5e5e" stroke-width=".05" fill="#5e5e5e"/><use xlink:href="#p" transform="matrix(1,0,0,1,395.2979884258132,636.7385161452553) translate(0 14.222222222222223)"/><use xlink:href="#q" transform="matrix(1,0,0,1,395.2979884258132,636.7385161452553) translate(44.39506172839507 14.222222222222223)"/><path d="M340.45 717.56h-2V658.1h2zm0-80.78h-2l-.04-41.94h2z" stroke="#5e5e5e" stroke-width=".05" fill="#5e5e5e"/><path d="M340.45 718.56h-2v-1.03h2z" fill="#5e5e5e"/><path d="M340.47 718.58h-2.05v-1.07h2.05zm-2-1.02v.97h1.95v-.97z" stroke="#5e5e5e" stroke-width=".05" fill="#5e5e5e"/><path d="M344.05 593.84h-9.27l4.63-14.27z" fill="#5e5e5e"/><path d="M345.42 594.84H333.4l6-18.5zm-9.27-2h6.52l-3.26-10.03z" stroke="#5e5e5e" stroke-width=".05" fill="#5e5e5e"/><g><use xlink:href="#u" transform="matrix(1,0,0,1,320.2203715118613,636.781099565911) translate(0 14.222222222222223)"/></g><path d="M280.04 1073.8v2h-3.75v-2zm-8.74-.02v2l-7.5-.02v-2zm-17.57-.52l.73.3.72.17h3.63v2h-3.86l-1.1-.27-1.02-.42-.63-.38 1.04-1.7zm-2.73-7.44v2.94l.06.83.2.75.2.53-1.84.77-.28-.68-.26-1.07-.08-1.06v-3.02zm0-9.93v5.95h-2v-5.96zm0-9.95v5.96h-2v-5.95zm0-9.94v5.98h-2V1036zm0-9.92v5.96h-2v-5.96zm0-9.94v5.96h-2v-5.96zm0-9.93v5.97h-2v-5.96zm0-9.93v5.96h-2v-5.96zm0-9.94v5.97h-2v-5.97zm0-9.93v5.96h-2v-5.96zm0-9.94v5.96h-2v-5.96zm0-9.93v5.96h-2v-5.97zm.02-9.94v5.95h-2v-5.96zm0-9.95v5.97h-2v-5.97zm0-9.93v5.96h-2v-5.96zm0-9.94v5.96h-2v-5.96zm0-9.93v5.96h-2v-5.95zm0-9.94v5.97h-2v-5.96zm0-9.93v5.97h-2v-5.97zm0-9.93V883h-2v-5.96zm0-9.94v5.96h-2v-5.96zm0-9.93v5.96h-2v-5.96zm0-9.94v5.96h-2v-5.97zm0-9.94v5.96h-2v-5.97zm0-9.94v5.96h-2v-5.96zm0-9.94v5.96h-2v-5.96zm0-9.93v5.95h-2v-5.97zm0-9.95v5.96h-2v-5.95zm.02-9.94v5.97h-2v-5.96zm0-9.92v5.96h-2v-5.96zm0-9.94v5.96h-2v-5.96zm0-9.94v5.97h-2v-5.97zm0-9.93v5.96h-2v-5.96zm0-9.94v5.96h-2v-5.97zm0-9.93v5.96h-2V728zm0-9.94v5.96h-2v-5.96zm0-9.94v5.97h-2v-5.98zm0-9.93v5.95h-2v-5.96zm0-9.95v5.96h-2v-5.95zm0-9.93v5.96h-2v-5.96zm0-9.94v5.96h-2v-5.96zm0-9.94v5.97h-2v-5.96zm0-9.93v5.97h-2v-5.96zm0-9.93v5.96h-2v-5.96zm.02-9.93v5.96h-2v-5.96zm0-9.94v5.96h-2v-5.96zm0-9.94v5.97h-2v-5.97zm0-9.93v5.96h-2v-5.97zm0-9.94v5.95h-2v-5.96zm0-9.94v5.96h-2v-5.96zm0-9.94v5.96h-2v-5.96zm0-9.94v5.97h-2v-5.97zm0-9.93v5.96h-2v-5.95zm0-9.94v5.97h-2v-5.96zm0-9.92v5.96h-2v-5.96zm0-9.94v5.96h-2v-5.96zm0-9.94v5.96h-2v-5.96zm0-9.93v5.96h-2v-5.96zm0-9.94v5.96h-2v-5.97zm.8-8.78l-.3.5-.3.72-.2.72v2.86h-2v-3.1l.28-1.1.42-1.03.4-.62zm7.25-2.24h-3.06l-.82.08-.76.18-.54.22-.77-1.84.7-.3 1.05-.24 1.06-.1h3.15zm38.4 0h-3.1v-2h3.1zm-7.25 0h-6.23v-2h6.23zm-10.38 0h-6.23v-2h6.23zm-10.38 0h-6.24v-2h6.23z" stroke="#5e5e5e" stroke-width=".05" fill="#5e5e5e"/><path d="M298.5 478.5h-1v-2h1z" fill="#5e5e5e"/><path d="M298.54 478.54h-1.08v-2.05h1.08zm-1.03-2v1.95h1v-1.96z" stroke="#5e5e5e" stroke-width=".05" fill="#5e5e5e"/><path d="M295.3 1074.8l-14.27 4.64v-9.27z" fill="#5e5e5e"/><path d="M298.54 1074.8l-18.5 6.02v-12.03zm-16.5 3.26l10.02-3.26-10.03-3.26z" stroke="#5e5e5e" stroke-width=".05" fill="#5e5e5e"/><g><use xlink:href="#B" transform="matrix(1,0,0,1,258.00000000000006,911.1127406501814) translate(11.83216049382716 14.222222222222223)"/><use xlink:href="#C" transform="matrix(1,0,0,1,258.00000000000006,911.1127406501814) translate(0.005000000000002558 35.55555555555556)"/></g><path d="M1519.5 881.26h-2v-2.9h2zm0-6.76h-2v-5.8h2zm0-9.67h-2v-4.76h2zm0-29.02h-2V830h2zm0-9.66h-2v-5.8h2zm0-9.67h-2v-2.9h2z" stroke="#5e5e5e" stroke-width=".05" fill="#5e5e5e"/><path d="M1519.5 813.6h-2v-1.02h2z" fill="#5e5e5e"/><path d="M1519.53 813.62h-2.05v-1.07h2.05zm-2-1.02v.97h1.95v-.98z" stroke="#5e5e5e" stroke-width=".05" fill="#5e5e5e"/><path d="M1518.5 896.53l-4.63-14.27h9.27z" fill="#5e5e5e"/><path d="M1518.5 899.77l-6-18.5h12.02zm-3.25-16.5l3.26 10.02 3.27-10.04z" stroke="#5e5e5e" stroke-width=".05" fill="#5e5e5e"/><g><use xlink:href="#V" transform="matrix(1,0,0,1,1496.3334389047272,838.732222299634) translate(0 14.222222222222223)"/></g><path d="M500 706a6 6 0 0 1 6-6h54a6 6 0 0 1 6 6v12.85a6 6 0 0 1-6 6h-54a6 6 0 0 1-6-6z" stroke="#000" stroke-opacity="0" stroke-width="3" fill="#fff" fill-opacity="0"/><g><use xlink:href="#W" transform="matrix(1,0,0,1,505,705) translate(12.2283950617284 14.222222222222221)"/></g><path d="M520 1026a6 6 0 0 1 6-6h12a6 6 0 0 1 6 6v9.75a6 6 0 0 1-6 6h-12a6 6 0 0 1-6-6z" stroke="#000" stroke-opacity="0" stroke-width="3" fill="#fff" fill-opacity="0"/><g><use xlink:href="#W" transform="matrix(1,0,0,1,525,1025) translate(-8.7716049382716 14.222222222222221)"/></g><path d="M1431.64 533.82v2h-42.17v-2zm-124.98 0v2h-49.48v-2z" stroke="#5e5e5e" stroke-width=".05" fill="#5e5e5e"/><path d="M1433.22 535.82h-1.6v-2h.44z" fill="#5e5e5e"/><path d="M1433.26 535.84h-1.67v-2.05h.47zm-1.62-2v1.95h1.53l-1.13-1.96z" stroke="#5e5e5e" stroke-width=".05" fill="#5e5e5e"/><path d="M1256.18 539.45l-14.27-4.63 14.28-4.64z" fill="#5e5e5e"/><path d="M1257.18 540.83l-18.5-6 18.5-6.03zm-12.03-6l10.03 3.24v-6.5z" stroke="#5e5e5e" stroke-width=".05" fill="#5e5e5e"/><g><use xlink:href="#p" transform="matrix(1,0,0,1,1306.6558392057402,524.1500651422932) translate(0.005000000000002558 14.222222222222223)"/><use xlink:href="#q" transform="matrix(1,0,0,1,1306.6558392057402,524.1500651422932) translate(44.40006172839507 14.222222222222223)"/></g><path d="M435 417c16.57 0 30 14.1 30 31.5S451.57 480 435 480h-90c-16.57 0-30-14.1-30-31.5s13.43-31.5 30-31.5z" stroke="#5e5e5e" stroke-width="3" fill="#fff"/><g><use xlink:href="#X" transform="matrix(1,0,0,1,320,422) translate(56.67283950617284 29.006944444444443)"/></g><path d="M825.46 974c15.45 0 27.98 13.43 27.98 30s-12.53 30-27.98 30h-83.92c-15.45 0-27.98-13.43-27.98-30s12.53-30 27.98-30z" stroke="#5e5e5e" stroke-width="3" fill="#fff"/><g><use xlink:href="#Y" transform="matrix(1,0,0,1,718.5624999999993,979) translate(5.456790123456798 28.069444444444443)"/><use xlink:href="#Z" transform="matrix(1,0,0,1,718.5624999999993,979) translate(39.98148148148148 28.069444444444443)"/><use xlink:href="#aa" transform="matrix(1,0,0,1,718.5624999999993,979) translate(87.46913580246913 28.069444444444443)"/></g><defs><path fill="#333" d="M190 0L58-211 59 0H30v-248h39L202-35l-2-213h31V0h-41" id="ab"/><path fill="#333" d="M100-194c63 0 86 42 84 106H49c0 40 14 67 53 68 26 1 43-12 49-29l28 8c-11 28-37 45-77 45C44 4 14-33 15-96c1-61 26-98 85-98zm52 81c6-60-76-77-97-28-3 7-6 17-6 28h103" id="ac"/><path fill="#333" d="M59-47c-2 24 18 29 38 22v24C64 9 27 4 27-40v-127H5v-23h24l9-43h21v43h35v23H59v120" id="ad"/><path fill="#333" d="M206 0h-36l-40-164L89 0H53L-1-190h32L70-26l43-164h34l41 164 42-164h31" id="ae"/><path fill="#333" d="M100-194c62-1 85 37 85 99 1 63-27 99-86 99S16-35 15-95c0-66 28-99 85-99zM99-20c44 1 53-31 53-75 0-43-8-75-51-75s-53 32-53 75 10 74 51 75" id="af"/><path fill="#333" d="M114-163C36-179 61-72 57 0H25l-1-190h30c1 12-1 29 2 39 6-27 23-49 58-41v29" id="ag"/><path fill="#333" d="M143 0L79-87 56-68V0H24v-261h32v163l83-92h37l-77 82L181 0h-38" id="ah"/><g id="a"><use transform="matrix(0.049382716049382706,0,0,0.049382716049382706,0,0)" xlink:href="#ab"/><use transform="matrix(0.049382716049382706,0,0,0.049382716049382706,12.790123456790122,0)" xlink:href="#ac"/><use transform="matrix(0.049382716049382706,0,0,0.049382716049382706,22.666666666666664,0)" xlink:href="#ad"/><use transform="matrix(0.049382716049382706,0,0,0.049382716049382706,27.60493827160494,0)" xlink:href="#ae"/><use transform="matrix(0.049382716049382706,0,0,0.049382716049382706,40.395061728395056,0)" xlink:href="#af"/><use transform="matrix(0.049382716049382706,0,0,0.049382716049382706,50.271604938271594,0)" xlink:href="#ag"/><use transform="matrix(0.049382716049382706,0,0,0.049382716049382706,56.14814814814814,0)" xlink:href="#ah"/></g><path fill="#333" d="M87 75C49 33 22-17 22-94c0-76 28-126 65-167h31c-38 41-64 92-64 168S80 34 118 75H87" id="ai"/><path fill="#333" d="M266 0h-40l-56-210L115 0H75L2-248h35L96-30l15-64 43-154h32l59 218 59-218h35" id="aj"/><path fill="#333" d="M115-194c53 0 69 39 70 98 0 66-23 100-70 100C84 3 66-7 56-30L54 0H23l1-261h32v101c10-23 28-34 59-34zm-8 174c40 0 45-34 45-75 0-40-5-75-45-74-42 0-51 32-51 76 0 43 10 73 51 73" id="ak"/><path fill="#333" d="M185-189c-5-48-123-54-124 2 14 75 158 14 163 119 3 78-121 87-175 55-17-10-28-26-33-46l33-7c5 56 141 63 141-1 0-78-155-14-162-118-5-82 145-84 179-34 5 7 8 16 11 25" id="al"/><path fill="#333" d="M96-169c-40 0-48 33-48 73s9 75 48 75c24 0 41-14 43-38l32 2c-6 37-31 61-74 61-59 0-76-41-82-99-10-93 101-131 147-64 4 7 5 14 7 22l-32 3c-4-21-16-35-41-35" id="am"/><path fill="#333" d="M0 4l72-265h28L28 4H0" id="an"/><path fill="#333" d="M197 0v-115H63V0H30v-248h33v105h134v-105h34V0h-34" id="ao"/><path fill="#333" d="M127-220V0H93v-220H8v-28h204v28h-85" id="ap"/><path fill="#333" d="M30-248c87 1 191-15 191 75 0 78-77 80-158 76V0H30v-248zm33 125c57 0 124 11 124-50 0-59-68-47-124-48v98" id="aq"/><path fill="#333" d="M33-261c38 41 65 92 65 168S71 34 33 75H2C39 34 66-17 66-93S39-220 2-261h31" id="ar"/><g id="b"><use transform="matrix(0.049382716049382706,0,0,0.049382716049382706,0,0)" xlink:href="#ai"/><use transform="matrix(0.049382716049382706,0,0,0.049382716049382706,5.876543209876542,0)" xlink:href="#aj"/><use transform="matrix(0.049382716049382706,0,0,0.049382716049382706,22.2716049382716,0)" xlink:href="#ac"/><use transform="matrix(0.049382716049382706,0,0,0.049382716049382706,32.14814814814814,0)" xlink:href="#ak"/><use transform="matrix(0.049382716049382706,0,0,0.049382716049382706,42.02469135802468,0)" xlink:href="#al"/><use transform="matrix(0.049382716049382706,0,0,0.049382716049382706,53.87654320987653,0)" xlink:href="#af"/><use transform="matrix(0.049382716049382706,0,0,0.049382716049382706,63.753086419753075,0)" xlink:href="#am"/><use transform="matrix(0.049382716049382706,0,0,0.049382716049382706,72.64197530864196,0)" xlink:href="#ah"/><use transform="matrix(0.049382716049382706,0,0,0.049382716049382706,81.53086419753085,0)" xlink:href="#ac"/><use transform="matrix(0.049382716049382706,0,0,0.049382716049382706,91.40740740740739,0)" xlink:href="#ad"/><use transform="matrix(0.049382716049382706,0,0,0.049382716049382706,96.34567901234566,0)" xlink:href="#an"/><use transform="matrix(0.049382716049382706,0,0,0.049382716049382706,101.28395061728394,0)" xlink:href="#ao"/><use transform="matrix(0.049382716049382706,0,0,0.049382716049382706,114.07407407407405,0)" xlink:href="#ap"/><use transform="matrix(0.049382716049382706,0,0,0.049382716049382706,124.88888888888886,0)" xlink:href="#ap"/><use transform="matrix(0.049382716049382706,0,0,0.049382716049382706,135.70370370370367,0)" xlink:href="#aq"/><use transform="matrix(0.049382716049382706,0,0,0.049382716049382706,147.55555555555551,0)" xlink:href="#ar"/></g><path fill="#333" d="M212-179c-10-28-35-45-73-45-59 0-87 40-87 99 0 60 29 101 89 101 43 0 62-24 78-52l27 14C228-24 195 4 139 4 59 4 22-46 18-125c-6-104 99-153 187-111 19 9 31 26 39 46" id="as"/><path fill="#333" d="M117-194c89-4 53 116 60 194h-32v-121c0-31-8-49-39-48C34-167 62-67 57 0H25l-1-190h30c1 10-1 24 2 32 11-22 29-35 61-36" id="at"/><path fill="#333" d="M141-36C126-15 110 5 73 4 37 3 15-17 15-53c-1-64 63-63 125-63 3-35-9-54-41-54-24 1-41 7-42 31l-33-3c5-37 33-52 76-52 45 0 72 20 72 64v82c-1 20 7 32 28 27v20c-31 9-61-2-59-35zM48-53c0 20 12 33 32 33 41-3 63-29 60-74-43 2-92-5-92 41" id="au"/><path fill="#333" d="M135-143c-3-34-86-38-87 0 15 53 115 12 119 90S17 21 10-45l28-5c4 36 97 45 98 0-10-56-113-15-118-90-4-57 82-63 122-42 12 7 21 19 24 35" id="av"/><g id="c"><use transform="matrix(0.06172839506172839,0,0,0.06172839506172839,0,0)" xlink:href="#as"/><use transform="matrix(0.06172839506172839,0,0,0.06172839506172839,15.987654320987653,0)" xlink:href="#af"/><use transform="matrix(0.06172839506172839,0,0,0.06172839506172839,28.333333333333332,0)" xlink:href="#at"/><use transform="matrix(0.06172839506172839,0,0,0.06172839506172839,40.67901234567901,0)" xlink:href="#ad"/><use transform="matrix(0.06172839506172839,0,0,0.06172839506172839,46.851851851851855,0)" xlink:href="#ag"/><use transform="matrix(0.06172839506172839,0,0,0.06172839506172839,54.19753086419753,0)" xlink:href="#au"/><use transform="matrix(0.06172839506172839,0,0,0.06172839506172839,66.54320987654322,0)" xlink:href="#am"/><use transform="matrix(0.06172839506172839,0,0,0.06172839506172839,77.65432098765433,0)" xlink:href="#ad"/><use transform="matrix(0.06172839506172839,0,0,0.06172839506172839,83.82716049382717,0)" xlink:href="#av"/></g><path fill="#333" d="M108 0H70L1-190h34L89-25l56-165h34" id="aw"/><g id="d"><use transform="matrix(0.049382716049382706,0,0,0.049382716049382706,0,0)" xlink:href="#as"/><use transform="matrix(0.049382716049382706,0,0,0.049382716049382706,12.790123456790122,0)" xlink:href="#au"/><use transform="matrix(0.049382716049382706,0,0,0.049382716049382706,22.666666666666664,0)" xlink:href="#at"/><use transform="matrix(0.049382716049382706,0,0,0.049382716049382706,32.5432098765432,0)" xlink:href="#aw"/><use transform="matrix(0.049382716049382706,0,0,0.049382716049382706,41.43209876543209,0)" xlink:href="#au"/><use transform="matrix(0.049382716049382706,0,0,0.049382716049382706,51.30864197530863,0)" xlink:href="#av"/></g><path fill="#333" d="M30-248c118-7 216 8 213 122C240-48 200 0 122 0H30v-248zM63-27c89 8 146-16 146-99s-60-101-146-95v194" id="ax"/><path fill="#333" d="M140-251c81 0 123 46 123 126C263-46 219 4 140 4 59 4 17-45 17-125s42-126 123-126zm0 227c63 0 89-41 89-101s-29-99-89-99c-61 0-89 39-89 99S79-25 140-24" id="ay"/><path fill="#333" d="M240 0l2-218c-23 76-54 145-80 218h-23L58-218 59 0H30v-248h44l77 211c21-75 51-140 76-211h43V0h-30" id="az"/><g id="e"><use transform="matrix(0.049382716049382706,0,0,0.049382716049382706,0,0)" xlink:href="#ax"/><use transform="matrix(0.049382716049382706,0,0,0.049382716049382706,12.790123456790122,0)" xlink:href="#ay"/><use transform="matrix(0.049382716049382706,0,0,0.049382716049382706,26.617283950617278,0)" xlink:href="#az"/></g><g id="f"><use transform="matrix(0.049382716049382706,0,0,0.049382716049382706,0,0)" xlink:href="#as"/><use transform="matrix(0.049382716049382706,0,0,0.049382716049382706,12.790123456790122,0)" xlink:href="#au"/><use transform="matrix(0.049382716049382706,0,0,0.049382716049382706,22.666666666666664,0)" xlink:href="#at"/><use transform="matrix(0.049382716049382706,0,0,0.049382716049382706,32.5432098765432,0)" xlink:href="#aw"/><use transform="matrix(0.049382716049382706,0,0,0.049382716049382706,41.43209876543209,0)" xlink:href="#au"/><use transform="matrix(0.049382716049382706,0,0,0.049382716049382706,51.30864197530863,0)" xlink:href="#av"/></g><path fill="#333" d="M233-177c-1 41-23 64-60 70L243 0h-38l-65-103H63V0H30v-248c88 3 205-21 203 71zM63-129c60-2 137 13 137-47 0-61-80-42-137-45v92" id="aA"/><path fill="#333" d="M85-194c31 0 48 13 60 33l-1-100h32l1 261h-30c-2-10 0-23-3-31C134-8 116 4 85 4 32 4 16-35 15-94c0-66 23-100 70-100zm9 24c-40 0-46 34-46 75 0 40 6 74 45 74 42 0 51-32 51-76 0-42-9-74-50-73" id="aB"/><g id="g"><use transform="matrix(0.049382716049382706,0,0,0.049382716049382706,0,0)" xlink:href="#aA"/><use transform="matrix(0.049382716049382706,0,0,0.049382716049382706,12.790123456790122,0)" xlink:href="#ac"/><use transform="matrix(0.049382716049382706,0,0,0.049382716049382706,22.666666666666664,0)" xlink:href="#at"/><use transform="matrix(0.049382716049382706,0,0,0.049382716049382706,32.5432098765432,0)" xlink:href="#aB"/><use transform="matrix(0.049382716049382706,0,0,0.049382716049382706,42.419753086419746,0)" xlink:href="#ac"/><use transform="matrix(0.049382716049382706,0,0,0.049382716049382706,52.29629629629628,0)" xlink:href="#ag"/><use transform="matrix(0.049382716049382706,0,0,0.049382716049382706,58.17283950617284,0)" xlink:href="#ac"/><use transform="matrix(0.049382716049382706,0,0,0.049382716049382706,68.04938271604938,0)" xlink:href="#ag"/></g><path fill="#333" d="M33 0v-38h34V0H33" id="aC"/><path fill="#333" d="M24-231v-30h32v30H24zM-9 49c24 4 33-6 33-30v-209h32V24c2 40-23 58-65 49V49" id="aD"/><g id="h"><use transform="matrix(0.03703703703703702,0,0,0.03703703703703702,0,0)" xlink:href="#am"/><use transform="matrix(0.03703703703703702,0,0,0.03703703703703702,6.666666666666663,0)" xlink:href="#au"/><use transform="matrix(0.03703703703703702,0,0,0.03703703703703702,14.074074074074067,0)" xlink:href="#at"/><use transform="matrix(0.03703703703703702,0,0,0.03703703703703702,21.481481481481474,0)" xlink:href="#aw"/><use transform="matrix(0.03703703703703702,0,0,0.03703703703703702,28.148148148148135,0)" xlink:href="#au"/><use transform="matrix(0.03703703703703702,0,0,0.03703703703703702,35.555555555555536,0)" xlink:href="#av"/><use transform="matrix(0.03703703703703702,0,0,0.03703703703703702,42.22222222222221,0)" xlink:href="#aC"/><use transform="matrix(0.03703703703703702,0,0,0.03703703703703702,45.92592592592591,0)" xlink:href="#aD"/><use transform="matrix(0.03703703703703702,0,0,0.03703703703703702,48.85185185185182,0)" xlink:href="#av"/></g><g id="i"><use transform="matrix(0.049382716049382706,0,0,0.049382716049382706,0,0)" xlink:href="#aA"/><use transform="matrix(0.049382716049382706,0,0,0.049382716049382706,12.790123456790122,0)" xlink:href="#aq"/><use transform="matrix(0.049382716049382706,0,0,0.049382716049382706,24.64197530864197,0)" xlink:href="#as"/></g><g id="j"><use transform="matrix(0.049382716049382706,0,0,0.049382716049382706,0,0)" xlink:href="#al"/><use transform="matrix(0.049382716049382706,0,0,0.049382716049382706,11.85185185185185,0)" xlink:href="#ac"/><use transform="matrix(0.049382716049382706,0,0,0.049382716049382706,21.728395061728392,0)" xlink:href="#at"/><use transform="matrix(0.049382716049382706,0,0,0.049382716049382706,31.604938271604933,0)" xlink:href="#aB"/><use transform="matrix(0.049382716049382706,0,0,0.049382716049382706,41.481481481481474,0)" xlink:href="#ac"/><use transform="matrix(0.049382716049382706,0,0,0.049382716049382706,51.35802469135801,0)" xlink:href="#ag"/></g><path fill="#333" d="M115-194c55 1 70 41 70 98S169 2 115 4C84 4 66-9 55-30l1 105H24l-1-265h31l2 30c10-21 28-34 59-34zm-8 174c40 0 45-34 45-75s-6-73-45-74c-42 0-51 32-51 76 0 43 10 73 51 73" id="aE"/><g id="k"><use transform="matrix(0.03703703703703702,0,0,0.03703703703703702,0,0)" xlink:href="#ag"/><use transform="matrix(0.03703703703703702,0,0,0.03703703703703702,4.407407407407406,0)" xlink:href="#aE"/><use transform="matrix(0.03703703703703702,0,0,0.03703703703703702,11.81481481481481,0)" xlink:href="#am"/><use transform="matrix(0.03703703703703702,0,0,0.03703703703703702,18.481481481481474,0)" xlink:href="#aC"/><use transform="matrix(0.03703703703703702,0,0,0.03703703703703702,22.185185185185176,0)" xlink:href="#aD"/><use transform="matrix(0.03703703703703702,0,0,0.03703703703703702,25.1111111111111,0)" xlink:href="#av"/></g><g id="l"><use transform="matrix(0.04938271604938272,0,0,0.04938271604938272,0,0)" xlink:href="#as"/><use transform="matrix(0.04938271604938272,0,0,0.04938271604938272,12.790123456790125,0)" xlink:href="#au"/><use transform="matrix(0.04938271604938272,0,0,0.04938271604938272,22.66666666666667,0)" xlink:href="#at"/><use transform="matrix(0.04938271604938272,0,0,0.04938271604938272,32.543209876543216,0)" xlink:href="#aw"/><use transform="matrix(0.04938271604938272,0,0,0.04938271604938272,41.4320987654321,0)" xlink:href="#au"/><use transform="matrix(0.04938271604938272,0,0,0.04938271604938272,51.308641975308646,0)" xlink:href="#av"/></g><path fill="#333" d="M205 0l-28-72H64L36 0H1l101-248h38L239 0h-34zm-38-99l-47-123c-12 45-31 82-46 123h93" id="aF"/><path fill="#333" d="M33 0v-248h34V0H33" id="aG"/><g id="m"><use transform="matrix(0.04938271604938272,0,0,0.04938271604938272,0,0)" xlink:href="#aF"/><use transform="matrix(0.04938271604938272,0,0,0.04938271604938272,11.851851851851853,0)" xlink:href="#aq"/><use transform="matrix(0.04938271604938272,0,0,0.04938271604938272,23.703703703703706,0)" xlink:href="#aG"/></g><path fill="#333" d="M30 0v-248h187v28H63v79h144v27H63v87h162V0H30" id="aH"/><g id="n"><use transform="matrix(0.06172839506172839,0,0,0.06172839506172839,0,0)" xlink:href="#aH"/><use transform="matrix(0.06172839506172839,0,0,0.06172839506172839,14.814814814814813,0)" xlink:href="#aw"/><use transform="matrix(0.06172839506172839,0,0,0.06172839506172839,25.925925925925924,0)" xlink:href="#ac"/><use transform="matrix(0.06172839506172839,0,0,0.06172839506172839,38.2716049382716,0)" xlink:href="#at"/><use transform="matrix(0.06172839506172839,0,0,0.06172839506172839,50.61728395061728,0)" xlink:href="#ad"/><use transform="matrix(0.06172839506172839,0,0,0.06172839506172839,56.79012345679012,0)" xlink:href="#av"/></g><path fill="#333" d="M24 0v-261h32V0H24" id="aI"/><g id="o"><use transform="matrix(0.06172839506172839,0,0,0.06172839506172839,0,0)" xlink:href="#aj"/><use transform="matrix(0.06172839506172839,0,0,0.06172839506172839,20.123456790123456,0)" xlink:href="#au"/><use transform="matrix(0.06172839506172839,0,0,0.06172839506172839,32.46913580246913,0)" xlink:href="#aI"/><use transform="matrix(0.06172839506172839,0,0,0.06172839506172839,37.34567901234568,0)" xlink:href="#aI"/><use transform="matrix(0.06172839506172839,0,0,0.06172839506172839,42.22222222222222,0)" xlink:href="#ac"/><use transform="matrix(0.06172839506172839,0,0,0.06172839506172839,54.5679012345679,0)" xlink:href="#ad"/></g><path fill="#333" d="M238-95c0 69-44 99-111 99C63 4 22-25 22-93v-155h51v151c-1 38 19 59 55 60 90 1 49-130 58-211h52v153" id="aJ"/><path fill="#333" d="M137-138c1-29-70-34-71-4 15 46 118 7 119 86 1 83-164 76-172 9l43-7c4 19 20 25 44 25 33 8 57-30 24-41C81-84 22-81 20-136c-2-80 154-74 161-7" id="aK"/><path fill="#333" d="M185-48c-13 30-37 53-82 52C43 2 14-33 14-96s30-98 90-98c62 0 83 45 84 108H66c0 31 8 55 39 56 18 0 30-7 34-22zm-45-69c5-46-57-63-70-21-2 6-4 13-4 21h74" id="aL"/><path fill="#333" d="M135-150c-39-12-60 13-60 57V0H25l-1-190h47c2 13-1 29 3 40 6-28 27-53 61-41v41" id="aM"/><g id="p"><use transform="matrix(0.04938271604938272,0,0,0.04938271604938272,0,0)" xlink:href="#aJ"/><use transform="matrix(0.04938271604938272,0,0,0.04938271604938272,12.790123456790125,0)" xlink:href="#aK"/><use transform="matrix(0.04938271604938272,0,0,0.04938271604938272,22.66666666666667,0)" xlink:href="#aL"/><use transform="matrix(0.04938271604938272,0,0,0.04938271604938272,32.543209876543216,0)" xlink:href="#aM"/></g><path fill="#333" d="M24-248c120-7 223 5 221 122C244-46 201 0 124 0H24v-248zM76-40c74 7 117-18 117-86 0-67-45-88-117-82v168" id="aN"/><path fill="#333" d="M133-34C117-15 103 5 69 4 32 3 11-16 11-54c-1-60 55-63 116-61 1-26-3-47-28-47-18 1-26 9-28 27l-52-2c7-38 36-58 82-57s74 22 75 68l1 82c-1 14 12 18 25 15v27c-30 8-71 5-69-32zm-48 3c29 0 43-24 42-57-32 0-66-3-65 30 0 17 8 27 23 27" id="aO"/><path fill="#333" d="M115-3C79 11 28 4 28-45v-112H4v-33h27l15-45h31v45h36v33H77v99c-1 23 16 31 38 25v30" id="aP"/><g id="q"><use transform="matrix(0.04938271604938272,0,0,0.04938271604938272,0,0)" xlink:href="#aN"/><use transform="matrix(0.04938271604938272,0,0,0.04938271604938272,12.790123456790125,0)" xlink:href="#aO"/><use transform="matrix(0.04938271604938272,0,0,0.04938271604938272,22.66666666666667,0)" xlink:href="#aP"/><use transform="matrix(0.04938271604938272,0,0,0.04938271604938272,28.54320987654322,0)" xlink:href="#aO"/></g><path fill="#333" d="M67-125c0 53 21 87 73 88 37 1 54-22 65-47l45 17C233-25 199 4 140 4 58 4 20-42 15-125 8-235 124-281 211-232c18 10 29 29 36 50l-46 12c-8-25-30-41-62-41-52 0-71 34-72 86" id="aQ"/><path fill="#333" d="M110-194c64 0 96 36 96 99 0 64-35 99-97 99-61 0-95-36-95-99 0-62 34-99 96-99zm-1 164c35 0 45-28 45-65 0-40-10-65-43-65-34 0-45 26-45 65 0 36 10 65 43 65" id="aR"/><path fill="#333" d="M135-194c87-1 58 113 63 194h-50c-7-57 23-157-34-157-59 0-34 97-39 157H25l-1-190h47c2 12-1 28 3 38 12-26 28-41 61-42" id="aS"/><path fill="#333" d="M190-63c-7 42-38 67-86 67-59 0-84-38-90-98-12-110 154-137 174-36l-49 2c-2-19-15-32-35-32-30 0-35 28-38 64-6 74 65 87 74 30" id="aT"/><g id="r"><use transform="matrix(0.04938271604938272,0,0,0.04938271604938272,0,0)" xlink:href="#aQ"/><use transform="matrix(0.04938271604938272,0,0,0.04938271604938272,12.790123456790125,0)" xlink:href="#aR"/><use transform="matrix(0.04938271604938272,0,0,0.04938271604938272,23.60493827160494,0)" xlink:href="#aS"/><use transform="matrix(0.04938271604938272,0,0,0.04938271604938272,34.41975308641975,0)" xlink:href="#aP"/><use transform="matrix(0.04938271604938272,0,0,0.04938271604938272,40.2962962962963,0)" xlink:href="#aM"/><use transform="matrix(0.04938271604938272,0,0,0.04938271604938272,47.20987654320988,0)" xlink:href="#aO"/><use transform="matrix(0.04938271604938272,0,0,0.04938271604938272,57.086419753086425,0)" xlink:href="#aT"/><use transform="matrix(0.04938271604938272,0,0,0.04938271604938272,66.96296296296296,0)" xlink:href="#aP"/></g><path fill="#333" d="M24 0v-248h195v40H76v63h132v40H76v65h150V0H24" id="aU"/><path fill="#333" d="M128 0H69L1-190h53L99-40l48-150h52" id="aV"/><g id="s"><use transform="matrix(0.04938271604938272,0,0,0.04938271604938272,0,0)" xlink:href="#aU"/><use transform="matrix(0.04938271604938272,0,0,0.04938271604938272,11.851851851851853,0)" xlink:href="#aV"/><use transform="matrix(0.04938271604938272,0,0,0.04938271604938272,21.7283950617284,0)" xlink:href="#aL"/><use transform="matrix(0.04938271604938272,0,0,0.04938271604938272,31.60493827160494,0)" xlink:href="#aS"/><use transform="matrix(0.04938271604938272,0,0,0.04938271604938272,42.41975308641976,0)" xlink:href="#aP"/></g><path fill="#333" d="M275 0h-61l-44-196L126 0H64L0-248h53L97-49l45-199h58l43 199 44-199h52" id="aW"/><path fill="#333" d="M25 0v-261h50V0H25" id="aX"/><g id="t"><use transform="matrix(0.04938271604938272,0,0,0.04938271604938272,0,0)" xlink:href="#aW"/><use transform="matrix(0.04938271604938272,0,0,0.04938271604938272,16.098765432098766,0)" xlink:href="#aO"/><use transform="matrix(0.04938271604938272,0,0,0.04938271604938272,25.97530864197531,0)" xlink:href="#aX"/><use transform="matrix(0.04938271604938272,0,0,0.04938271604938272,30.913580246913583,0)" xlink:href="#aX"/><use transform="matrix(0.04938271604938272,0,0,0.04938271604938272,35.851851851851855,0)" xlink:href="#aL"/><use transform="matrix(0.04938271604938272,0,0,0.04938271604938272,45.7283950617284,0)" xlink:href="#aP"/></g><g id="u"><use transform="matrix(0.04938271604938272,0,0,0.04938271604938272,0,0)" xlink:href="#aN"/><use transform="matrix(0.04938271604938272,0,0,0.04938271604938272,12.790123456790125,0)" xlink:href="#aO"/><use transform="matrix(0.04938271604938272,0,0,0.04938271604938272,22.66666666666667,0)" xlink:href="#aP"/><use transform="matrix(0.04938271604938272,0,0,0.04938271604938272,28.54320987654322,0)" xlink:href="#aO"/></g><path fill="#333" d="M153-248C145-148 188 4 80 4 36 3 13-21 6-62l32-5c4 25 16 42 43 43 27 0 39-20 39-49v-147H72v-28h81" id="aY"/><path fill="#333" d="M24-231v-30h32v30H24zM24 0v-190h32V0H24" id="aZ"/><g id="v"><use transform="matrix(0.061728395061728385,0,0,0.061728395061728385,0,0)" xlink:href="#aY"/><use transform="matrix(0.061728395061728385,0,0,0.061728395061728385,11.111111111111109,0)" xlink:href="#au"/><use transform="matrix(0.061728395061728385,0,0,0.061728395061728385,23.456790123456784,0)" xlink:href="#aw"/><use transform="matrix(0.061728395061728385,0,0,0.061728395061728385,34.56790123456789,0)" xlink:href="#au"/><use transform="matrix(0.061728395061728385,0,0,0.061728395061728385,46.91358024691357,0)" xlink:href="#al"/><use transform="matrix(0.061728395061728385,0,0,0.061728395061728385,61.72839506172838,0)" xlink:href="#am"/><use transform="matrix(0.061728395061728385,0,0,0.061728395061728385,72.83950617283949,0)" xlink:href="#ag"/><use transform="matrix(0.061728395061728385,0,0,0.061728395061728385,80.18518518518518,0)" xlink:href="#aZ"/><use transform="matrix(0.061728395061728385,0,0,0.061728395061728385,85.06172839506172,0)" xlink:href="#aE"/><use transform="matrix(0.061728395061728385,0,0,0.061728395061728385,97.40740740740739,0)" xlink:href="#ad"/></g><path fill="#333" d="M210-169c-67 3-38 105-44 169h-31v-121c0-29-5-50-35-48C34-165 62-65 56 0H25l-1-190h30c1 10-1 24 2 32 10-44 99-50 107 0 11-21 27-35 58-36 85-2 47 119 55 194h-31v-121c0-29-5-49-35-48" id="ba"/><g id="w"><use transform="matrix(0.061728395061728385,0,0,0.061728395061728385,0,0)" xlink:href="#aH"/><use transform="matrix(0.061728395061728385,0,0,0.061728395061728385,14.814814814814813,0)" xlink:href="#aI"/><use transform="matrix(0.061728395061728385,0,0,0.061728395061728385,19.691358024691354,0)" xlink:href="#ba"/></g><path fill="#333" d="M177-190C167-65 218 103 67 71c-23-6-38-20-44-43l32-5c15 47 100 32 89-28v-30C133-14 115 1 83 1 29 1 15-40 15-95c0-56 16-97 71-98 29-1 48 16 59 35 1-10 0-23 2-32h30zM94-22c36 0 50-32 50-73 0-42-14-75-50-75-39 0-46 34-46 75s6 73 46 73" id="bb"/><g id="x"><use transform="matrix(0.049382716049382706,0,0,0.049382716049382706,0,0)" xlink:href="#az"/><use transform="matrix(0.049382716049382706,0,0,0.049382716049382706,14.765432098765428,0)" xlink:href="#au"/><use transform="matrix(0.049382716049382706,0,0,0.049382716049382706,24.641975308641968,0)" xlink:href="#at"/><use transform="matrix(0.049382716049382706,0,0,0.049382716049382706,34.518518518518505,0)" xlink:href="#au"/><use transform="matrix(0.049382716049382706,0,0,0.049382716049382706,44.39506172839505,0)" xlink:href="#bb"/><use transform="matrix(0.049382716049382706,0,0,0.049382716049382706,54.271604938271594,0)" xlink:href="#ac"/><use transform="matrix(0.049382716049382706,0,0,0.049382716049382706,64.14814814814814,0)" xlink:href="#ag"/></g><g id="y"><use transform="matrix(0.03703703703703702,0,0,0.03703703703703702,0,0)" xlink:href="#as"/><use transform="matrix(0.03703703703703702,0,0,0.03703703703703702,9.592592592592588,0)" xlink:href="#au"/><use transform="matrix(0.03703703703703702,0,0,0.03703703703703702,16.999999999999993,0)" xlink:href="#at"/><use transform="matrix(0.03703703703703702,0,0,0.03703703703703702,24.407407407407398,0)" xlink:href="#aw"/><use transform="matrix(0.03703703703703702,0,0,0.03703703703703702,31.074074074074062,0)" xlink:href="#au"/><use transform="matrix(0.03703703703703702,0,0,0.03703703703703702,38.48148148148147,0)" xlink:href="#av"/><use transform="matrix(0.03703703703703702,0,0,0.03703703703703702,45.14814814814813,0)" xlink:href="#aC"/><use transform="matrix(0.03703703703703702,0,0,0.03703703703703702,48.85185185185183,0)" xlink:href="#ac"/><use transform="matrix(0.03703703703703702,0,0,0.03703703703703702,56.25925925925924,0)" xlink:href="#aI"/><use transform="matrix(0.03703703703703702,0,0,0.03703703703703702,59.18518518518516,0)" xlink:href="#ba"/></g><g id="z"><use transform="matrix(0.03703703703703702,0,0,0.03703703703703702,0,0)" xlink:href="#aA"/><use transform="matrix(0.03703703703703702,0,0,0.03703703703703702,9.592592592592588,0)" xlink:href="#aE"/><use transform="matrix(0.03703703703703702,0,0,0.03703703703703702,16.999999999999993,0)" xlink:href="#am"/><use transform="matrix(0.03703703703703702,0,0,0.03703703703703702,23.666666666666657,0)" xlink:href="#aC"/><use transform="matrix(0.03703703703703702,0,0,0.03703703703703702,27.37037037037036,0)" xlink:href="#ac"/><use transform="matrix(0.03703703703703702,0,0,0.03703703703703702,34.777777777777764,0)" xlink:href="#aI"/><use transform="matrix(0.03703703703703702,0,0,0.03703703703703702,37.70370370370369,0)" xlink:href="#ba"/></g><path fill="#333" d="M160-131c35 5 61 23 61 61C221 17 115-2 30 0v-248c76 3 177-17 177 60 0 33-19 50-47 57zm-97-11c50-1 110 9 110-42 0-47-63-36-110-37v79zm0 115c55-2 124 14 124-45 0-56-70-42-124-44v89" id="bc"/><g id="A"><use transform="matrix(0.061728395061728385,0,0,0.061728395061728385,0,0)" xlink:href="#bc"/><use transform="matrix(0.061728395061728385,0,0,0.061728395061728385,14.814814814814813,0)" xlink:href="#ag"/><use transform="matrix(0.061728395061728385,0,0,0.061728395061728385,22.16049382716049,0)" xlink:href="#af"/><use transform="matrix(0.061728395061728385,0,0,0.061728395061728385,34.50617283950616,0)" xlink:href="#ae"/><use transform="matrix(0.061728395061728385,0,0,0.061728395061728385,50.493827160493815,0)" xlink:href="#av"/><use transform="matrix(0.061728395061728385,0,0,0.061728395061728385,61.60493827160492,0)" xlink:href="#ac"/><use transform="matrix(0.061728395061728385,0,0,0.061728395061728385,73.9506172839506,0)" xlink:href="#ag"/></g><g id="B"><use transform="matrix(0.04938271604938272,0,0,0.04938271604938272,0,0)" xlink:href="#aA"/><use transform="matrix(0.04938271604938272,0,0,0.04938271604938272,12.790123456790125,0)" xlink:href="#ac"/><use transform="matrix(0.04938271604938272,0,0,0.04938271604938272,22.66666666666667,0)" xlink:href="#at"/><use transform="matrix(0.04938271604938272,0,0,0.04938271604938272,32.543209876543216,0)" xlink:href="#aB"/><use transform="matrix(0.04938271604938272,0,0,0.04938271604938272,42.41975308641976,0)" xlink:href="#ac"/><use transform="matrix(0.04938271604938272,0,0,0.04938271604938272,52.2962962962963,0)" xlink:href="#ag"/></g><g id="C"><use transform="matrix(0.04938271604938272,0,0,0.04938271604938272,0,0)" xlink:href="#as"/><use transform="matrix(0.04938271604938272,0,0,0.04938271604938272,12.790123456790125,0)" xlink:href="#af"/><use transform="matrix(0.04938271604938272,0,0,0.04938271604938272,22.66666666666667,0)" xlink:href="#ba"/><use transform="matrix(0.04938271604938272,0,0,0.04938271604938272,37.4320987654321,0)" xlink:href="#ba"/><use transform="matrix(0.04938271604938272,0,0,0.04938271604938272,52.19753086419754,0)" xlink:href="#au"/><use transform="matrix(0.04938271604938272,0,0,0.04938271604938272,62.074074074074076,0)" xlink:href="#at"/><use transform="matrix(0.04938271604938272,0,0,0.04938271604938272,71.95061728395062,0)" xlink:href="#aB"/></g><path fill="#333" d="M232-93c-1 65-40 97-104 97C67 4 28-28 28-90v-158h33c8 89-33 224 67 224 102 0 64-133 71-224h33v155" id="bd"/><g id="D"><use transform="matrix(0.049382716049382706,0,0,0.049382716049382706,0,0)" xlink:href="#bd"/><use transform="matrix(0.049382716049382706,0,0,0.049382716049382706,12.790123456790122,0)" xlink:href="#aG"/></g><g id="E"><use transform="matrix(0.03703703703703702,0,0,0.03703703703703702,0,0)" xlink:href="#az"/><use transform="matrix(0.03703703703703702,0,0,0.03703703703703702,11.074074074074069,0)" xlink:href="#au"/><use transform="matrix(0.03703703703703702,0,0,0.03703703703703702,18.481481481481474,0)" xlink:href="#aZ"/><use transform="matrix(0.03703703703703702,0,0,0.03703703703703702,21.407407407407398,0)" xlink:href="#at"/><use transform="matrix(0.03703703703703702,0,0,0.03703703703703702,28.814814814814802,0)" xlink:href="#aC"/><use transform="matrix(0.03703703703703702,0,0,0.03703703703703702,32.518518518518505,0)" xlink:href="#ac"/><use transform="matrix(0.03703703703703702,0,0,0.03703703703703702,39.92592592592591,0)" xlink:href="#aI"/><use transform="matrix(0.03703703703703702,0,0,0.03703703703703702,42.85185185185183,0)" xlink:href="#ba"/></g><g id="F"><use transform="matrix(0.06172839506172839,0,0,0.06172839506172839,0,0)" xlink:href="#bd"/><use transform="matrix(0.06172839506172839,0,0,0.06172839506172839,15.987654320987653,0)" xlink:href="#av"/><use transform="matrix(0.06172839506172839,0,0,0.06172839506172839,27.098765432098766,0)" xlink:href="#ac"/><use transform="matrix(0.06172839506172839,0,0,0.06172839506172839,39.44444444444444,0)" xlink:href="#ag"/></g><g id="G"><use transform="matrix(0.04938271604938272,0,0,0.04938271604938272,0,0)" xlink:href="#bd"/><use transform="matrix(0.04938271604938272,0,0,0.04938271604938272,12.790123456790125,0)" xlink:href="#aG"/></g><g id="H"><use transform="matrix(0.04938271604938272,0,0,0.04938271604938272,0,0)" xlink:href="#aH"/><use transform="matrix(0.04938271604938272,0,0,0.04938271604938272,11.851851851851853,0)" xlink:href="#aw"/><use transform="matrix(0.04938271604938272,0,0,0.04938271604938272,20.74074074074074,0)" xlink:href="#ac"/><use transform="matrix(0.04938271604938272,0,0,0.04938271604938272,30.617283950617285,0)" xlink:href="#at"/><use transform="matrix(0.04938271604938272,0,0,0.04938271604938272,40.49382716049383,0)" xlink:href="#ad"/><use transform="matrix(0.04938271604938272,0,0,0.04938271604938272,45.4320987654321,0)" xlink:href="#av"/></g><path fill="#333" d="M137 0h-34L2-248h35l83 218 83-218h36" id="be"/><path fill="#333" d="M84 4C-5 8 30-112 23-190h32v120c0 31 7 50 39 49 72-2 45-101 50-169h31l1 190h-30c-1-10 1-25-2-33-11 22-28 36-60 37" id="bf"/><g id="I"><use transform="matrix(0.049382716049382706,0,0,0.049382716049382706,0,0)" xlink:href="#be"/><use transform="matrix(0.049382716049382706,0,0,0.049382716049382706,11.50617283950617,0)" xlink:href="#aZ"/><use transform="matrix(0.049382716049382706,0,0,0.049382716049382706,15.407407407407405,0)" xlink:href="#ag"/><use transform="matrix(0.049382716049382706,0,0,0.049382716049382706,21.283950617283946,0)" xlink:href="#ad"/><use transform="matrix(0.049382716049382706,0,0,0.049382716049382706,26.222222222222218,0)" xlink:href="#bf"/><use transform="matrix(0.049382716049382706,0,0,0.049382716049382706,36.09876543209876,0)" xlink:href="#au"/><use transform="matrix(0.049382716049382706,0,0,0.049382716049382706,45.9753086419753,0)" xlink:href="#aI"/></g><g id="J"><use transform="matrix(0.04938271604938272,0,0,0.04938271604938272,0,0)" xlink:href="#ax"/><use transform="matrix(0.04938271604938272,0,0,0.04938271604938272,12.790123456790125,0)" xlink:href="#ay"/><use transform="matrix(0.04938271604938272,0,0,0.04938271604938272,26.617283950617285,0)" xlink:href="#az"/></g><g id="K"><use transform="matrix(0.04938271604938272,0,0,0.04938271604938272,0,0)" xlink:href="#al"/><use transform="matrix(0.04938271604938272,0,0,0.04938271604938272,11.851851851851853,0)" xlink:href="#ac"/><use transform="matrix(0.04938271604938272,0,0,0.04938271604938272,21.7283950617284,0)" xlink:href="#at"/><use transform="matrix(0.04938271604938272,0,0,0.04938271604938272,31.60493827160494,0)" xlink:href="#aB"/><use transform="matrix(0.04938271604938272,0,0,0.04938271604938272,41.48148148148149,0)" xlink:href="#ac"/><use transform="matrix(0.04938271604938272,0,0,0.04938271604938272,51.35802469135803,0)" xlink:href="#ag"/></g><path fill="#333" d="M106-169C34-169 62-67 57 0H25v-261h32l-1 103c12-21 28-36 61-36 89 0 53 116 60 194h-32v-121c2-32-8-49-39-48" id="bg"/><g id="L"><use transform="matrix(0.07407407407407404,0,0,0.07407407407407404,0,0)" xlink:href="#ap"/><use transform="matrix(0.07407407407407404,0,0,0.07407407407407404,16.222222222222214,0)" xlink:href="#bg"/><use transform="matrix(0.07407407407407404,0,0,0.07407407407407404,31.037037037037024,0)" xlink:href="#ac"/><use transform="matrix(0.07407407407407404,0,0,0.07407407407407404,45.85185185185183,0)" xlink:href="#al"/><use transform="matrix(0.07407407407407404,0,0,0.07407407407407404,63.629629629629605,0)" xlink:href="#aE"/><use transform="matrix(0.07407407407407404,0,0,0.07407407407407404,78.44444444444441,0)" xlink:href="#au"/><use transform="matrix(0.07407407407407404,0,0,0.07407407407407404,93.25925925925922,0)" xlink:href="#am"/><use transform="matrix(0.07407407407407404,0,0,0.07407407407407404,106.59259259259255,0)" xlink:href="#ac"/></g><g id="M"><use transform="matrix(0.07407407407407404,0,0,0.07407407407407404,0,0)" xlink:href="#aF"/><use transform="matrix(0.07407407407407404,0,0,0.07407407407407404,17.77777777777777,0)" xlink:href="#aE"/><use transform="matrix(0.07407407407407404,0,0,0.07407407407407404,32.59259259259258,0)" xlink:href="#aE"/></g><g id="N"><use transform="matrix(0.07407407407407404,0,0,0.07407407407407404,0,0)" xlink:href="#aF"/><use transform="matrix(0.07407407407407404,0,0,0.07407407407407404,17.77777777777777,0)" xlink:href="#ag"/><use transform="matrix(0.07407407407407404,0,0,0.07407407407407404,26.59259259259258,0)" xlink:href="#am"/><use transform="matrix(0.07407407407407404,0,0,0.07407407407407404,39.92592592592591,0)" xlink:href="#bg"/><use transform="matrix(0.07407407407407404,0,0,0.07407407407407404,54.74074074074072,0)" xlink:href="#aZ"/><use transform="matrix(0.07407407407407404,0,0,0.07407407407407404,60.59259259259257,0)" xlink:href="#ad"/><use transform="matrix(0.07407407407407404,0,0,0.07407407407407404,67.99999999999997,0)" xlink:href="#ac"/><use transform="matrix(0.07407407407407404,0,0,0.07407407407407404,82.81481481481478,0)" xlink:href="#am"/><use transform="matrix(0.07407407407407404,0,0,0.07407407407407404,96.14814814814811,0)" xlink:href="#ad"/><use transform="matrix(0.07407407407407404,0,0,0.07407407407407404,103.55555555555551,0)" xlink:href="#bf"/><use transform="matrix(0.07407407407407404,0,0,0.07407407407407404,118.37037037037032,0)" xlink:href="#ag"/><use transform="matrix(0.07407407407407404,0,0,0.07407407407407404,127.18518518518513,0)" xlink:href="#ac"/></g><g id="O"><use transform="matrix(0.04320987654320987,0,0,0.04320987654320987,0,0)" xlink:href="#av"/><use transform="matrix(0.04320987654320987,0,0,0.04320987654320987,7.777777777777776,0)" xlink:href="#ad"/><use transform="matrix(0.04320987654320987,0,0,0.04320987654320987,12.098765432098762,0)" xlink:href="#au"/><use transform="matrix(0.04320987654320987,0,0,0.04320987654320987,20.740740740740733,0)" xlink:href="#ad"/><use transform="matrix(0.04320987654320987,0,0,0.04320987654320987,25.061728395061724,0)" xlink:href="#ac"/></g><g id="P"><use transform="matrix(0.04320987654320988,0,0,0.04320987654320988,0,0)" xlink:href="#aF"/><use transform="matrix(0.04320987654320988,0,0,0.04320987654320988,10.370370370370372,0)" xlink:href="#aq"/><use transform="matrix(0.04320987654320988,0,0,0.04320987654320988,20.740740740740744,0)" xlink:href="#aG"/></g><g id="Q"><use transform="matrix(0.04320987654320988,0,0,0.04320987654320988,0,0)" xlink:href="#am"/><use transform="matrix(0.04320987654320988,0,0,0.04320987654320988,7.777777777777779,0)" xlink:href="#au"/><use transform="matrix(0.04320987654320988,0,0,0.04320987654320988,16.419753086419753,0)" xlink:href="#aI"/><use transform="matrix(0.04320987654320988,0,0,0.04320987654320988,19.833333333333336,0)" xlink:href="#aI"/></g><g id="R"><use transform="matrix(0.04320987654320988,0,0,0.04320987654320988,0,0)" xlink:href="#af"/><use transform="matrix(0.04320987654320988,0,0,0.04320987654320988,8.641975308641976,0)" xlink:href="#ag"/></g><g id="S"><use transform="matrix(0.04320987654320988,0,0,0.04320987654320988,0,0)" xlink:href="#aG"/><use transform="matrix(0.04320987654320988,0,0,0.04320987654320988,4.320987654320988,0)" xlink:href="#at"/><use transform="matrix(0.04320987654320988,0,0,0.04320987654320988,12.962962962962964,0)" xlink:href="#ad"/><use transform="matrix(0.04320987654320988,0,0,0.04320987654320988,17.283950617283953,0)" xlink:href="#ac"/><use transform="matrix(0.04320987654320988,0,0,0.04320987654320988,25.925925925925927,0)" xlink:href="#ag"/><use transform="matrix(0.04320987654320988,0,0,0.04320987654320988,31.067901234567906,0)" xlink:href="#au"/><use transform="matrix(0.04320987654320988,0,0,0.04320987654320988,39.70987654320988,0)" xlink:href="#am"/><use transform="matrix(0.04320987654320988,0,0,0.04320987654320988,47.48765432098766,0)" xlink:href="#ad"/><use transform="matrix(0.04320987654320988,0,0,0.04320987654320988,51.808641975308646,0)" xlink:href="#aZ"/><use transform="matrix(0.04320987654320988,0,0,0.04320987654320988,55.22222222222223,0)" xlink:href="#af"/><use transform="matrix(0.04320987654320988,0,0,0.04320987654320988,63.8641975308642,0)" xlink:href="#at"/></g><g id="T"><use transform="matrix(0.04320987654320988,0,0,0.04320987654320988,0,0)" xlink:href="#aB"/><use transform="matrix(0.04320987654320988,0,0,0.04320987654320988,8.641975308641976,0)" xlink:href="#au"/><use transform="matrix(0.04320987654320988,0,0,0.04320987654320988,17.283950617283953,0)" xlink:href="#ad"/><use transform="matrix(0.04320987654320988,0,0,0.04320987654320988,21.60493827160494,0)" xlink:href="#au"/></g><g id="U"><use transform="matrix(0.04320987654320987,0,0,0.04320987654320987,0,0)" xlink:href="#am"/><use transform="matrix(0.04320987654320987,0,0,0.04320987654320987,7.777777777777776,0)" xlink:href="#af"/><use transform="matrix(0.04320987654320987,0,0,0.04320987654320987,16.41975308641975,0)" xlink:href="#ba"/><use transform="matrix(0.04320987654320987,0,0,0.04320987654320987,29.3395061728395,0)" xlink:href="#aE"/><use transform="matrix(0.04320987654320987,0,0,0.04320987654320987,37.981481481481474,0)" xlink:href="#af"/><use transform="matrix(0.04320987654320987,0,0,0.04320987654320987,46.62345679012345,0)" xlink:href="#at"/><use transform="matrix(0.04320987654320987,0,0,0.04320987654320987,55.26543209876542,0)" xlink:href="#ac"/><use transform="matrix(0.04320987654320987,0,0,0.04320987654320987,63.90740740740739,0)" xlink:href="#at"/><use transform="matrix(0.04320987654320987,0,0,0.04320987654320987,72.54938271604937,0)" xlink:href="#ad"/></g><g id="V"><use transform="matrix(0.04938271604938272,0,0,0.04938271604938272,0,0)" xlink:href="#aH"/><use transform="matrix(0.04938271604938272,0,0,0.04938271604938272,11.851851851851853,0)" xlink:href="#ba"/><use transform="matrix(0.04938271604938272,0,0,0.04938271604938272,26.617283950617285,0)" xlink:href="#aZ"/><use transform="matrix(0.04938271604938272,0,0,0.04938271604938272,30.518518518518523,0)" xlink:href="#ad"/><use transform="matrix(0.04938271604938272,0,0,0.04938271604938272,35.45679012345679,0)" xlink:href="#av"/></g><path fill="#999" d="M30-248c87 1 191-15 191 75 0 78-77 80-158 76V0H30v-248zm33 125c57 0 124 11 124-50 0-59-68-47-124-48v98" id="bh"/><path fill="#999" d="M100-194c62-1 85 37 85 99 1 63-27 99-86 99S16-35 15-95c0-66 28-99 85-99zM99-20c44 1 53-31 53-75 0-43-8-75-51-75s-53 32-53 75 10 74 51 75" id="bi"/><path fill="#999" d="M114-163C36-179 61-72 57 0H25l-1-190h30c1 12-1 29 2 39 6-27 23-49 58-41v29" id="bj"/><path fill="#999" d="M59-47c-2 24 18 29 38 22v24C64 9 27 4 27-40v-127H5v-23h24l9-43h21v43h35v23H59v120" id="bk"/><g id="W"><use transform="matrix(0.049382716049382706,0,0,0.049382716049382706,0,0)" xlink:href="#bh"/><use transform="matrix(0.049382716049382706,0,0,0.049382716049382706,11.85185185185185,0)" xlink:href="#bi"/><use transform="matrix(0.049382716049382706,0,0,0.049382716049382706,21.728395061728392,0)" xlink:href="#bj"/><use transform="matrix(0.049382716049382706,0,0,0.049382716049382706,27.604938271604933,0)" xlink:href="#bk"/></g><g id="X"><use transform="matrix(0.04320987654320987,0,0,0.04320987654320987,0,0)" xlink:href="#aF"/><use transform="matrix(0.04320987654320987,0,0,0.04320987654320987,10.370370370370368,0)" xlink:href="#aE"/><use transform="matrix(0.04320987654320987,0,0,0.04320987654320987,19.01234567901234,0)" xlink:href="#aE"/></g><g id="Y"><use transform="matrix(0.04320987654320987,0,0,0.04320987654320987,0,0)" xlink:href="#az"/><use transform="matrix(0.04320987654320987,0,0,0.04320987654320987,12.91975308641975,0)" xlink:href="#au"/><use transform="matrix(0.04320987654320987,0,0,0.04320987654320987,21.56172839506172,0)" xlink:href="#aE"/></g><path fill="#333" d="M143 4C61 4 22-44 18-125c-5-107 100-154 193-111 17 8 29 25 37 43l-32 9c-13-25-37-40-76-40-61 0-88 39-88 99 0 61 29 100 91 101 35 0 62-11 79-27v-45h-74v-28h105v86C228-13 192 4 143 4" id="bl"/><g id="Z"><use transform="matrix(0.04320987654320987,0,0,0.04320987654320987,0,0)" xlink:href="#aA"/><use transform="matrix(0.04320987654320987,0,0,0.04320987654320987,11.191358024691356,0)" xlink:href="#bl"/><use transform="matrix(0.04320987654320987,0,0,0.04320987654320987,23.29012345679012,0)" xlink:href="#bc"/><use transform="matrix(0.04320987654320987,0,0,0.04320987654320987,33.66049382716049,0)" xlink:href="#aF"/></g><path fill="#333" d="M179-190L93 31C79 59 56 82 12 73V49c39 6 53-20 64-50L1-190h34L92-34l54-156h33" id="bm"/><g id="aa"><use transform="matrix(0.04320987654320987,0,0,0.04320987654320987,0,0)" xlink:href="#aF"/><use transform="matrix(0.04320987654320987,0,0,0.04320987654320987,10.370370370370368,0)" xlink:href="#ag"/><use transform="matrix(0.04320987654320987,0,0,0.04320987654320987,15.512345679012343,0)" xlink:href="#ag"/><use transform="matrix(0.04320987654320987,0,0,0.04320987654320987,20.654320987654316,0)" xlink:href="#au"/><use transform="matrix(0.04320987654320987,0,0,0.04320987654320987,29.29629629629629,0)" xlink:href="#bm"/></g></defs></g></svg>