<svg xmlns="http://www.w3.org/2000/svg" xmlns:xlink="http://www.w3.org/1999/xlink" xmlns:lucid="lucid" width="1360" height="1151.34"><g transform="translate(-40 -60)" lucid:page-tab-id="0_0"><path d="M0 0h1870.87v1322.83H0z" fill="#fff"/><path d="M100 193a6 6 0 0 1 6-6h148a6 6 0 0 1 6 6v48a6 6 0 0 1-6 6H106a6 6 0 0 1-6-6z" stroke="#3a414a" fill="#fff"/><use xlink:href="#a" transform="matrix(1,0,0,1,111.99999999999999,199) translate(33.881111111111125 24.35333333333333)"/><use xlink:href="#b" transform="matrix(1,0,0,1,111.99999999999999,199) translate(69.83000000000001 24.35333333333333)"/><path d="M100 343.33a6 6 0 0 1 6-6h148a6 6 0 0 1 6 6v65.34a6 6 0 0 1-6 6H106a6 6 0 0 1-6-6z" stroke="#3a414a" fill="#fff"/><use xlink:href="#c" transform="matrix(1,0,0,1,111.99999999999999,349.33333333333337) translate(28.10222222222223 22.10333333333333)"/><use xlink:href="#d" transform="matrix(1,0,0,1,111.99999999999999,349.33333333333337) translate(54.31333333333333 22.10333333333333)"/><use xlink:href="#e" transform="matrix(1,0,0,1,111.99999999999999,349.33333333333337) translate(36.891111111111115 40.769999999999996)"/><path d="M100 526a6 6 0 0 1 6-6h148a6 6 0 0 1 6 6v65.33a6 6 0 0 1-6 6H106a6 6 0 0 1-6-6z" stroke="#3a414a" fill="#fff"/><use xlink:href="#f" transform="matrix(1,0,0,1,111.99999999999997,532) translate(23.60666666666667 22.10333333333333)"/><use xlink:href="#g" transform="matrix(1,0,0,1,111.99999999999997,532) translate(61.98222222222221 22.10333333333333)"/><use xlink:href="#h" transform="matrix(1,0,0,1,111.99999999999997,532) translate(39.076666666666675 40.769999999999996)"/><path d="M100 1074.08a6 6 0 0 1 6-6h148a6 6 0 0 1 6 6v48a6 6 0 0 1-6 6H106a6 6 0 0 1-6-6z" stroke="#3a414a" fill="#fff"/><use xlink:href="#i" transform="matrix(1,0,0,1,111.99999999999999,1080.083989501312) translate(55.168888888888894 24.35333333333333)"/><path d="M100 865.43a6 6 0 0 1 6-6h148a6 6 0 0 1 6 6v108a6 6 0 0 1-6 6H106a6 6 0 0 1-6-6z" stroke="#3a414a" fill="#fff"/><use xlink:href="#j" transform="matrix(1,0,0,1,112,871.4274934383201) translate(39.527777777777786 27.35333333333333)"/><use xlink:href="#k" transform="matrix(1,0,0,1,112,871.4274934383201) translate(42.794444444444444 46.019999999999996)"/><use xlink:href="#l" transform="matrix(1,0,0,1,112,871.4274934383201) translate(34.75222222222223 64.68666666666665)"/><use xlink:href="#m" transform="matrix(1,0,0,1,112,871.4274934383201) translate(36.48666666666667 83.35333333333332)"/><path d="M100 719.67a6 6 0 0 1 6-6h148a6 6 0 0 1 6 6v48a6 6 0 0 1-6 6H106a6 6 0 0 1-6-6z" stroke="#3a414a" fill="#fff"/><use xlink:href="#n" transform="matrix(1,0,0,1,111.99999999999999,725.6666666666666) translate(49.545555555555566 24.35333333333333)"/><path d="M180 247.96v72.53" stroke="#3a414a" fill="none"/><path d="M180.5 247.98h-1v-.52h1z" stroke="#3a414a" stroke-width=".05" fill="#3a414a"/><path d="M180 335.25L175.36 321h9.28z" stroke="#3a414a" fill="#3a414a"/><path d="M180.5 503.15h-1v-33.87h1zm0-52.53h-1v-35h1z" stroke="#3a414a" stroke-width=".05" fill="#3a414a"/><path d="M180.5 415.64h-1v-.5h1z" fill="#3a414a"/><path d="M180.53 415.67h-1.06v-.56h1.06zm-1-.5v.45h.94v-.47z" stroke="#3a414a" stroke-width=".05" fill="#3a414a"/><path d="M180 517.92l-4.64-14.27h9.28z" fill="#3a414a"/><path d="M180 519.54l-5.32-16.4h10.64zm-3.95-15.4L180 516.3l3.95-12.15z" stroke="#3a414a" stroke-width=".05" fill="#3a414a"/><use xlink:href="#o" transform="matrix(1,0,0,1,107.49166666666669,450.61784283042795) translate(0 15.35333333333333)"/><use xlink:href="#p" transform="matrix(1,0,0,1,107.49166666666669,450.61784283042795) translate(100.62888888888885 15.35333333333333)"/><use xlink:href="#q" transform="matrix(1,0,0,1,107.49166666666669,450.61784283042795) translate(116.91555555555551 15.35333333333333)"/><path d="M180.5 696.82h-1v-38.8h1zm0-57.46h-1V598.3h1z" stroke="#3a414a" stroke-width=".05" fill="#3a414a"/><path d="M180.5 598.3h-1v-.5h1z" fill="#3a414a"/><path d="M180.53 598.33h-1.06v-.56h1.06zm-1-.5v.45h.94v-.46z" stroke="#3a414a" stroke-width=".05" fill="#3a414a"/><path d="M180 711.6l-4.64-14.28h9.28z" fill="#3a414a"/><path d="M180 713.2l-5.32-16.38h10.64zm-3.95-15.38l3.95 12.15 3.95-12.15z" stroke="#3a414a" stroke-width=".05" fill="#3a414a"/><use xlink:href="#r" transform="matrix(1,0,0,1,110.63000000000014,639.3606918688156) translate(0 15.35333333333333)"/><use xlink:href="#p" transform="matrix(1,0,0,1,110.63000000000014,639.3606918688156) translate(94.3522222222222 15.35333333333333)"/><use xlink:href="#q" transform="matrix(1,0,0,1,110.63000000000014,639.3606918688156) translate(110.63888888888886 15.35333333333333)"/><path d="M180 774.63v67.95" stroke="#3a414a" fill="none"/><path d="M180.5 774.64h-1v-.5h1z" stroke="#3a414a" stroke-width=".05" fill="#3a414a"/><path d="M180 857.35l-4.64-14.27h9.28z" stroke="#3a414a" fill="#3a414a"/><path d="M180 980.4v70.84" stroke="#3a414a" fill="none"/><path d="M180.5 980.4h-1v-.5h1z" stroke="#3a414a" stroke-width=".05" fill="#3a414a"/><path d="M180 1066l-4.64-14.26h9.28z" stroke="#3a414a" fill="#3a414a"/><path d="M60 86a6 6 0 0 1 6-6h268a6 6 0 0 1 6 6v94a6 6 0 0 1-6 6H66a6 6 0 0 1-6-6z" stroke="#000" stroke-opacity="0" fill="#fff" fill-opacity="0"/><use xlink:href="#s" transform="matrix(1,0,0,1,65,85) translate(31.833333333333343 59.31999999999999)"/><use xlink:href="#t" transform="matrix(1,0,0,1,65,85) translate(145.16666666666666 59.31999999999999)"/><path d="M817 204.67a6 6 0 0 1 6-6h208a6 6 0 0 1 6 6v24.66a6 6 0 0 1-6 6H823a6 6 0 0 1-6-6z" stroke="#000" stroke-opacity="0" fill="#fff" fill-opacity="0"/><use xlink:href="#u" transform="matrix(1,0,0,1,822,203.66666666666669) translate(13.7222222222223 21.933333333333316)"/><use xlink:href="#v" transform="matrix(1,0,0,1,822,203.66666666666669) translate(66.01111111111115 21.933333333333316)"/><use xlink:href="#w" transform="matrix(1,0,0,1,822,203.66666666666669) translate(118.77777777777776 21.933333333333316)"/><path d="M260.96 217h5m5 0h10m5 0h9.98m5 0h10m5 0h10m4.98 0h10m5 0h10m5 0h9.98m5 0h10m5 0h9.98m5 0h10m5 0h10m4.98 0h10m5 0h10m5 0h9.98m5 0h10m5 0h9.98m5 0h10m5 0h9.98m5 0h10m5 0h10m4.98 0h10m5 0h10m5 0h9.98m5 0h10m5 0h9.98m5 0h10m5 0h10m4.98 0h10m5 0h10m5 0h9.98m5 0h10m5 0h9.98m5 0h10m5 0h10m4.98 0h10m5 0h5" stroke="#979ea8" fill="none"/><path d="M260.98 217.5h-.52v-1h.52z" stroke="#979ea8" stroke-width=".05" fill="#979ea8"/><path d="M815.42 217l-14.27 4.64v-9.28z" stroke="#979ea8" fill="#979ea8"/><path d="M480 249a6 6 0 0 1 6-6h212.9a6 6 0 0 1 6 6v62a6 6 0 0 1-6 6H486a6 6 0 0 1-6-6z" stroke="#000" stroke-opacity="0" fill="#fff" fill-opacity="0"/><use xlink:href="#x" transform="matrix(1,0,0,1,484.99999999999994,248) translate(9.90500000000003 39.739999999999995)"/><use xlink:href="#y" transform="matrix(1,0,0,1,484.99999999999994,248) translate(56.96500000000002 39.739999999999995)"/><use xlink:href="#z" transform="matrix(1,0,0,1,484.99999999999994,248) translate(123.955 39.739999999999995)"/><path d="M1116.62 249a6 6 0 0 1 6-6h186.76a6 6 0 0 1 6 6v62a6 6 0 0 1-6 6h-186.76a6 6 0 0 1-6-6z" stroke="#000" stroke-opacity="0" fill="#fff" fill-opacity="0"/><use xlink:href="#x" transform="matrix(1,0,0,1,1121.6167979002626,248) translate(2.755000000000024 39.739999999999995)"/><use xlink:href="#A" transform="matrix(1,0,0,1,1121.6167979002626,248) translate(49.81500000000001 39.739999999999995)"/><use xlink:href="#z" transform="matrix(1,0,0,1,1121.6167979002626,248) translate(105.105 39.739999999999995)"/><path d="M512.43 483.8a6 6 0 0 1 6-6h148a6 6 0 0 1 6 6v65.35a6 6 0 0 1-6 6h-148a6 6 0 0 1-6-6z" stroke="#3a414a" fill="#fff"/><use xlink:href="#B" transform="matrix(1,0,0,1,524.4330708661416,489.81266404199465) translate(12.350000000000016 22.10333333333333)"/><use xlink:href="#C" transform="matrix(1,0,0,1,524.4330708661416,489.81266404199465) translate(40.72333333333334 22.10333333333333)"/><use xlink:href="#D" transform="matrix(1,0,0,1,524.4330708661416,489.81266404199465) translate(86.11444444444444 22.10333333333333)"/><use xlink:href="#E" transform="matrix(1,0,0,1,524.4330708661416,489.81266404199465) translate(56.333333333333336 40.769999999999996)"/><path d="M512.43 638.63a6 6 0 0 1 6-6h148a6 6 0 0 1 6 6v65.33a6 6 0 0 1-6 6h-148a6 6 0 0 1-6-6z" stroke="#3a414a" fill="#fff"/><use xlink:href="#B" transform="matrix(1,0,0,1,524.4330708661416,644.6253280839894) translate(12.350000000000016 32.22833333333333)"/><use xlink:href="#C" transform="matrix(1,0,0,1,524.4330708661416,644.6253280839894) translate(40.72333333333334 32.22833333333333)"/><use xlink:href="#F" transform="matrix(1,0,0,1,524.4330708661416,644.6253280839894) translate(86.11444444444444 32.22833333333333)"/><path d="M587.63 795.85a8 8 0 0 1 9.6 0l70.4 52.8a4.5 4.5 0 0 1 0 7.2l-70.4 52.8a8 8 0 0 1-9.6 0l-70.4-52.8a4.5 4.5 0 0 1 0-7.2z" stroke="#3a414a" fill="#fff"/><use xlink:href="#G" transform="matrix(1,0,0,1,517.4330708661416,797.2506561679788) translate(27.972777777777786 60.04083333333333)"/><use xlink:href="#H" transform="matrix(1,0,0,1,517.4330708661416,797.2506561679788) translate(82.55722222222222 60.04083333333333)"/><path d="M360 1010.17a6 6 0 0 1 6-6h168a6 6 0 0 1 6 6v65.33a6 6 0 0 1-6 6H366a6 6 0 0 1-6-6z" stroke="#3a414a" fill="#fff"/><use xlink:href="#I" transform="matrix(1,0,0,1,372,1016.1679790026245) translate(28.408888888888903 22.10333333333333)"/><use xlink:href="#d" transform="matrix(1,0,0,1,372,1016.1679790026245) translate(73.00666666666666 22.10333333333333)"/><use xlink:href="#e" transform="matrix(1,0,0,1,372,1016.1679790026245) translate(46.391111111111115 40.769999999999996)"/><path d="M657 1010.17a6 6 0 0 1 6-6h148a6 6 0 0 1 6 6v65.33a6 6 0 0 1-6 6H663a6 6 0 0 1-6-6z" stroke="#3a414a" fill="#fff"/><use xlink:href="#B" transform="matrix(1,0,0,1,669,1016.1679790026245) translate(17.701111111111118 32.22833333333333)"/><use xlink:href="#J" transform="matrix(1,0,0,1,669,1016.1679790026245) translate(46.074444444444445 32.22833333333333)"/><use xlink:href="#F" transform="matrix(1,0,0,1,669,1016.1679790026245) translate(80.76333333333332 32.22833333333333)"/><path d="M498 1131.08c17.67 0 32 13.44 32 30 0 16.57-14.33 30-32 30h-96c-17.67 0-32-13.43-32-30 0-16.56 14.33-30 32-30z" stroke="#3a414a" fill="#fff"/><use xlink:href="#K" transform="matrix(1,0,0,1,375,1136.083989501312) translate(56.418888888888894 30.97833333333333)"/><path d="M592.43 556.1v59.68" stroke="#3a414a" fill="none"/><path d="M592.93 556.12h-1v-.5h1z" stroke="#3a414a" stroke-width=".05" fill="#3a414a"/><path d="M592.43 630.54l-4.63-14.26h9.27z" stroke="#3a414a" fill="#3a414a"/><path d="M592.43 710.92v66.45" stroke="#3a414a" fill="none"/><path d="M592.93 710.93h-1v-.5h1z" stroke="#3a414a" stroke-width=".05" fill="#3a414a"/><path d="M592.43 792.13l-4.63-14.26h9.27z" stroke="#3a414a" fill="#3a414a"/><path d="M450.5 987.32h-1l.03-59.36h1zm63.93-134.57h-58.4l-.9.07-.83.2-.8.33-.73.45-.66.56-.55.66-.45.73-.33.8-.2.82-.03 54.6h-1l.03-54.72.25-1 .4-.95.52-.87.66-.78.78-.66.87-.54.94-.4.98-.23 1-.08h58.45z" stroke="#3a414a" stroke-width=".05" fill="#3a414a"/><path d="M514.93 852.25l.05.5h-.56v-1h.56z" fill="#3a414a"/><path d="M514.96 852.25l.04.53h-.6v-1.05h.6zm-.52-.47v.95h.5l-.03-.48.05-.47z" stroke="#3a414a" stroke-width=".05" fill="#3a414a"/><path d="M450 1002.1l-4.64-14.28h9.28z" fill="#3a414a"/><path d="M450 1003.7l-5.32-16.38h10.64zm-3.95-15.38l3.95 12.15 3.95-12.15z" stroke="#3a414a" stroke-width=".05" fill="#3a414a"/><use xlink:href="#L" transform="matrix(1,0,0,1,439.6933333333333,911.9594073283957) translate(0 13.159999999999998)"/><path d="M450 1082.46v31.74" stroke="#3a414a" fill="none"/><path d="M450.5 1082.48h-1v-.52h1z" stroke="#3a414a" stroke-width=".05" fill="#3a414a"/><path d="M450 1128.97l-4.64-14.27h9.28z" stroke="#3a414a" fill="#3a414a"/><path d="M737.5 987.32h-1l-.03-58.75h1zm-5.48-135.5l1 .25.93.4.87.52.78.65.66.78.53.87.38.94.25 1 .03 55.33h-1l-.03-55.2-.2-.82-.33-.8-.45-.73-.56-.66-.67-.56-.73-.45-.8-.33-.84-.2-.88-.07h-60.54v-1h60.58z" stroke="#3a414a" stroke-width=".05" fill="#3a414a"/><path d="M670.45 852.75h-.56l.04-.5-.05-.5h.55z" fill="#3a414a"/><path d="M670.47 852.78h-.6l.04-.53-.04-.52h.6zm-.55-1l.04.47-.04.48h.5v-.95z" stroke="#3a414a" stroke-width=".05" fill="#3a414a"/><path d="M737 1002.1l-4.64-14.28h9.28z" fill="#3a414a"/><path d="M737 1003.7l-5.32-16.38h10.64zm-3.95-15.38l3.95 12.15 3.95-12.15z" stroke="#3a414a" stroke-width=".05" fill="#3a414a"/><use xlink:href="#M" transform="matrix(1,0,0,1,728.17,912.5700859117302) translate(0 13.159999999999998)"/><path d="M656.04 1042.83h-57.6a6 6 0 0 1-6-6v-109.7" stroke="#3a414a" fill="none"/><path d="M656.54 1043.33h-.52v-1h.52z" stroke="#3a414a" stroke-width=".05" fill="#3a414a"/><path d="M592.43 912.37l4.64 14.27h-9.27z" stroke="#3a414a" fill="#3a414a"/><path d="M512.43 329a6 6 0 0 1 6-6h148a6 6 0 0 1 6 6v65.33a6 6 0 0 1-6 6h-148a6 6 0 0 1-6-6z" stroke="#3a414a" fill="#fff"/><use xlink:href="#N" transform="matrix(1,0,0,1,524.4330708661416,335) translate(26.8088888888889 22.10333333333333)"/><use xlink:href="#O" transform="matrix(1,0,0,1,524.4330708661416,335) translate(66.80222222222223 22.10333333333333)"/><use xlink:href="#P" transform="matrix(1,0,0,1,524.4330708661416,335) translate(25.821111111111115 40.769999999999996)"/><path d="M592.43 401.3v59.67" stroke="#3a414a" fill="none"/><path d="M592.93 401.3h-1v-.5h1z" stroke="#3a414a" stroke-width=".05" fill="#3a414a"/><path d="M592.43 475.73l-4.63-14.26h9.27z" stroke="#3a414a" fill="#3a414a"/><path d="M1137.43 329a6 6 0 0 1 6-6h148a6 6 0 0 1 6 6v48.33a6 6 0 0 1-6 6h-148a6 6 0 0 1-6-6z" stroke="#3a414a" fill="#fff"/><use xlink:href="#B" transform="matrix(1,0,0,1,1149.4330708661419,335) translate(29.842222222222233 24.60333333333333)"/><use xlink:href="#Q" transform="matrix(1,0,0,1,1149.4330708661419,335) translate(58.21555555555556 24.60333333333333)"/><use xlink:href="#E" transform="matrix(1,0,0,1,1149.4330708661419,335) translate(82.82444444444445 24.60333333333333)"/><path d="M1137.43 414.83a6 6 0 0 1 6-6h148a6 6 0 0 1 6 6v48.34a6 6 0 0 1-6 6h-148a6 6 0 0 1-6-6z" stroke="#3a414a" fill="#fff"/><use xlink:href="#B" transform="matrix(1,0,0,1,1149.4330708661419,420.8333333333334) translate(35.045555555555566 24.60333333333333)"/><use xlink:href="#F" transform="matrix(1,0,0,1,1149.4330708661419,420.8333333333334) translate(63.418888888888894 24.60333333333333)"/><path d="M1217.43 384.3v7.7" stroke="#3a414a" fill="none"/><path d="M1217.93 384.3h-1v-.5h1z" stroke="#3a414a" stroke-width=".05" fill="#3a414a"/><path d="M1217.43 406.75l-4.63-14.26h9.27z" stroke="#3a414a" fill="#3a414a"/><path d="M1211.2 668.02a8 8 0 0 1 9.6 0l70.4 52.8a4.5 4.5 0 0 1 0 7.2l-70.4 52.8a8 8 0 0 1-9.6 0l-70.4-52.8a4.5 4.5 0 0 1 0-7.2z" stroke="#3a414a" fill="#fff"/><use xlink:href="#R" transform="matrix(1,0,0,1,1141,669.4173228346456) translate(51.48500000000001 42.85333333333333)"/><use xlink:href="#S" transform="matrix(1,0,0,1,1141,669.4173228346456) translate(58.32944444444445 61.519999999999996)"/><use xlink:href="#T" transform="matrix(1,0,0,1,1141,669.4173228346456) translate(53.14166666666667 80.18666666666665)"/><path d="M1135.2 886.6a8 8 0 0 1 9.6 0l70.4 52.8a4.5 4.5 0 0 1 0 7.2l-70.4 52.8a8 8 0 0 1-9.6 0l-70.4-52.8a4.5 4.5 0 0 1 0-7.2z" stroke="#3a414a" fill="#fff"/><use xlink:href="#G" transform="matrix(1,0,0,1,1065,888) translate(27.972777777777786 60.04083333333333)"/><use xlink:href="#H" transform="matrix(1,0,0,1,1065,888) translate(82.55722222222222 60.04083333333333)"/><path d="M900 1010.17a6 6 0 0 1 6-6h168a6 6 0 0 1 6 6v65.33a6 6 0 0 1-6 6H906a6 6 0 0 1-6-6z" stroke="#3a414a" fill="#fff"/><use xlink:href="#I" transform="matrix(1,0,0,1,912,1016.1679790026245) translate(28.408888888888903 22.10333333333333)"/><use xlink:href="#d" transform="matrix(1,0,0,1,912,1016.1679790026245) translate(73.00666666666666 22.10333333333333)"/><use xlink:href="#e" transform="matrix(1,0,0,1,912,1016.1679790026245) translate(46.391111111111115 40.769999999999996)"/><path d="M1038 1131.34c17.67 0 32 13.43 32 30 0 16.56-14.33 30-32 30h-96c-17.67 0-32-13.44-32-30 0-16.57 14.33-30 32-30z" stroke="#3a414a" fill="#fff"/><use xlink:href="#K" transform="matrix(1,0,0,1,915,1136.3359580052484) translate(56.418888888888894 30.97833333333333)"/><path d="M900 769a6 6 0 0 1 6-6h148a6 6 0 0 1 6 6v65.33a6 6 0 0 1-6 6H906a6 6 0 0 1-6-6z" stroke="#3a414a" fill="#fff"/><use xlink:href="#N" transform="matrix(1,0,0,1,912,775) translate(5.8244444444444525 32.22833333333333)"/><use xlink:href="#P" transform="matrix(1,0,0,1,912,775) translate(45.81777777777778 32.22833333333333)"/><path d="M1216.5 827.73l-.08 1-.24 1-.4.93-.52.87-.66.78-.78.67-.87.53-.94.4-1 .23-64.98.08-.88.08-.84.2-.8.33-.73.46-.66.56-.55.66-.45.73-.33.8-.2.83-.07 29.3-1-.02.07-29.4.25-1 .4-.94.52-.87.66-.8.78-.65.87-.53.94-.4.98-.23 1-.1 64.9-.07.82-.2.8-.32.73-.44.66-.56.55-.66.45-.74.33-.8.2-.83.07-.88v-13.5h1zm0-29.53h-1v-14.78h1z" stroke="#3a414a" stroke-width=".05" fill="#3a414a"/><path d="M1216 782.92l.5-.03v.53h-1v-.54z" fill="#3a414a"/><path d="M1216 782.9l.53-.04v.6h-1.06v-.6zm-.47.5h.94v-.5l-.47.04-.47-.03z" stroke="#3a414a" stroke-width=".05" fill="#3a414a"/><path d="M1140 882.88l-4.64-14.26h9.28z" fill="#3a414a"/><path d="M1140 884.5l-5.32-16.38h10.64zm-3.95-15.38l3.95 12.14 3.95-12.14z" stroke="#3a414a" stroke-width=".05" fill="#3a414a"/><use xlink:href="#M" transform="matrix(1,0,0,1,1207.17,798.2000000000002) translate(0 13.159999999999998)"/><path d="M1057.74 724.92h-71.72l-.88.07-.84.2-.8.32-.73.45-.66.56-.55.66-.45.72-.33.8-.2.82-.07 16.62h-1l.07-16.74.25-1 .4-.95.52-.87.66-.78.78-.66.87-.54.94-.4.98-.22 1-.08h71.76zm80.26 0h-59.65v-1H1138z" stroke="#3a414a" stroke-width=".05" fill="#3a414a"/><path d="M1138.5 724.42l.04.5h-.55v-1h.54z" fill="#3a414a"/><path d="M1138.52 724.42l.05.52h-.6v-1.05h.6zm-.5-.48v.95h.5l-.05-.48.05-.48z" stroke="#3a414a" stroke-width=".05" fill="#3a414a"/><path d="M980 760.92l-4.64-14.27h9.28z" fill="#3a414a"/><path d="M980 762.54l-5.32-16.4h10.64zm-3.95-15.4L980 759.3l3.95-12.15z" stroke="#3a414a" stroke-width=".05" fill="#3a414a"/><use xlink:href="#L" transform="matrix(1,0,0,1,1057.7372508940718,716.4173228346456) translate(0 13.159999999999998)"/><path d="M990.5 987.32h-1l.06-33.65h1zm71.5-43.82h-61.7v-1h61.7z" stroke="#3a414a" stroke-width=".05" fill="#3a414a"/><path d="M1062.5 943l.04.5h-.55v-1h.54z" fill="#3a414a"/><path d="M1062.52 943l.05.52h-.6v-1.04h.6zm-.5-.48v.96h.5l-.05-.48.05-.48z" stroke="#3a414a" stroke-width=".05" fill="#3a414a"/><path d="M990 1002.1l-4.64-14.28h9.28z" fill="#3a414a"/><path d="M990 1003.7l-5.32-16.38h10.64zm-3.95-15.38l3.95 12.15 3.95-12.15z" stroke="#3a414a" stroke-width=".05" fill="#3a414a"/><use xlink:href="#L" transform="matrix(1,0,0,1,979.6933333333334,937.6666666666669) translate(0 13.159999999999998)"/><path d="M990 1082.46v32" stroke="#3a414a" fill="none"/><path d="M990.5 1082.48h-1v-.52h1z" stroke="#3a414a" stroke-width=".05" fill="#3a414a"/><path d="M990 1129.22l-4.64-14.27h9.28z" stroke="#3a414a" fill="#3a414a"/><path d="M1220 1010.17a6 6 0 0 1 6-6h148a6 6 0 0 1 6 6v65.33a6 6 0 0 1-6 6h-148a6 6 0 0 1-6-6z" stroke="#3a414a" fill="#fff"/><g><use xlink:href="#B" transform="matrix(1,0,0,1,1232,1016.1679790026245) translate(17.701111111111118 32.22833333333333)"/><use xlink:href="#J" transform="matrix(1,0,0,1,1232,1016.1679790026245) translate(46.074444444444445 32.22833333333333)"/><use xlink:href="#F" transform="matrix(1,0,0,1,1232,1016.1679790026245) translate(80.76333333333332 32.22833333333333)"/></g><path d="M1297.54 987.32h-1l-.07-36.32h1zM1218 943.5v-1h69.84v1z" stroke="#3a414a" stroke-width=".05" fill="#3a414a"/><path d="M1218 943.5h-.54l.04-.5-.04-.5h.55z" fill="#3a414a"/><path d="M1218.04 943.52h-.6l.04-.52-.05-.52h.6zm-.56-1l.05.48-.05.48h.5v-.96z" stroke="#3a414a" stroke-width=".05" fill="#3a414a"/><path d="M1297.04 1002.1l-4.63-14.28h9.28z" fill="#3a414a"/><path d="M1297.04 1003.7l-5.32-16.38h10.64zm-3.95-15.38l3.94 12.15 3.95-12.15z" stroke="#3a414a" stroke-width=".05" fill="#3a414a"/><g><use xlink:href="#M" transform="matrix(1,0,0,1,1287.836666666667,935) translate(0 13.159999999999998)"/></g><path d="M1212.63 496.93a8 8 0 0 1 9.6 0l70.4 52.8a4.5 4.5 0 0 1 0 7.2l-70.4 52.8a8 8 0 0 1-9.6 0l-70.4-52.8a4.5 4.5 0 0 1 0-7.2z" stroke="#3a414a" fill="#fff"/><g><use xlink:href="#R" transform="matrix(1,0,0,1,1142.4330708661419,498.33333333333337) translate(51.48500000000001 42.85333333333333)"/><use xlink:href="#U" transform="matrix(1,0,0,1,1142.4330708661419,498.33333333333337) translate(52.42611111111112 61.519999999999996)"/><use xlink:href="#T" transform="matrix(1,0,0,1,1142.4330708661419,498.33333333333337) translate(53.14166666666667 80.18666666666665)"/></g><path d="M1217.43 470.13v8.32" stroke="#3a414a" fill="none"/><path d="M1217.93 470.14h-1v-.5h1z" stroke="#3a414a" stroke-width=".05" fill="#3a414a"/><path d="M1217.43 493.2l-4.63-14.25h9.27z" stroke="#3a414a" fill="#3a414a"/><path d="M1217.92 638.35l-.05.2-.08.18-.22.3-.3.2-.2.1-.17.03h-.14l-.08.02h-.03l-.08.06-.05.07v.03l-.02 10h-1v-10.1l.06-.2.08-.2.2-.3.3-.22.2-.07.2-.04.14-.02h.07l.03-.02h.02l.07-.05.05-.06v-.02h1zm0-16.13h-1v-9.9h1z" stroke="#3a414a" stroke-width=".05" fill="#3a414a"/><path d="M1217.43 611.83l.5-.03v.55h-1v-.55z" fill="#3a414a"/><path d="M1217.43 611.8l.53-.02v.6h-1.05v-.6zm-.47.52h.95v-.5l-.47.04-.47-.03z" stroke="#3a414a" stroke-width=".05" fill="#3a414a"/><path d="M1216 664.3l-4.64-14.27h9.28z" fill="#3a414a"/><path d="M1216 665.92l-5.32-16.4h10.64zm-3.95-15.4l3.95 12.16 3.95-12.15z" stroke="#3a414a" stroke-width=".05" fill="#3a414a"/><g><use xlink:href="#M" transform="matrix(1,0,0,1,1208.603070866142,622.2205116476883) translate(0 13.159999999999998)"/></g><path d="M1028 591.67c17.67 0 32 13.43 32 30s-14.33 30-32 30h-96c-17.67 0-32-13.43-32-30s14.33-30 32-30z" stroke="#3a414a" fill="#fff"/><g><use xlink:href="#V" transform="matrix(1,0,0,1,905,596.6666666666666) translate(62.67222222222223 30.97833333333333)"/></g><path d="M1219.04 1042.83H1146a6 6 0 0 1-6-6v-18.95" stroke="#3a414a" fill="none"/><path d="M1219.54 1043.33h-.52v-1h.52z" stroke="#3a414a" stroke-width=".05" fill="#3a414a"/><path d="M1140 1003.12l4.64 14.26h-9.28z" stroke="#3a414a" fill="#3a414a"/><path d="M926.5 235.4l-4.9.98m-4.88 1l-9.8 1.96m-4.88.98l-9.8 1.97m-4.9.98l-9.78 1.97m-4.9.98l-9.78 1.97m-4.9 1l-9.8 1.96m-4.88.98l-9.8 1.97m-4.9 1l-9.78 1.97m-4.9.98l-9.78 1.97m-4.9 1l-9.8 1.96m-4.88.98l-9.8 1.97m-4.9 1l-9.78 1.96m-4.9.97l-9.78 1.97m-4.9 1l-9.78 1.96m-4.9.98l-4.9 1" stroke="#979ea8" fill="none"/><path d="M926.6 235.9l-.12-.6h3.06z" stroke="#979ea8" stroke-width=".05" fill="#979ea8"/><path d="M706.45 279.68l13.07-7.36 1.83 9.1z" stroke="#979ea8" fill="#979ea8"/><path d="M927.5 235.4l4.8 1.15m4.8 1.13l9.63 2.27m4.8 1.13l9.64 2.27m4.8 1.13l9.63 2.27m4.8 1.14l9.64 2.26m4.8 1.13l9.63 2.26m4.8 1.13l9.64 2.26m4.82 1.13l9.62 2.26m4.8 1.14l9.64 2.27m4.8 1.13l9.63 2.27m4.82 1.13l9.63 2.27m4.8 1.13l9.63 2.27m4.8 1.14l4.83 1.14" stroke="#979ea8" fill="none"/><path d="M927.38 235.9l-2.56-.6h2.7z" stroke="#979ea8" stroke-width=".05" fill="#979ea8"/><path d="M1115.08 279.63l-14.95 1.24 2.13-9.03z" stroke="#979ea8" fill="#979ea8"/><path d="M1057.86 553.83h-63.4l-.9.07-.83.2-.8.33-.73.45-.66.57-.56.65-.45.74-.33.8-.2.82-.07 16.33-1-.02.08-16.45.25-1 .4-.95.52-.87.66-.76.78-.67.88-.53.94-.4 1-.23 1-.07h63.44zm81.57 0h-64.4v-1h64.4z" stroke="#3a414a" stroke-width=".05" fill="#3a414a"/><path d="M1139.93 553.33l.05.5h-.56v-1h.56z" fill="#3a414a"/><path d="M1139.96 553.33l.04.53h-.6v-1.05h.6zm-.52-.47v.95h.5l-.03-.47.05-.47z" stroke="#3a414a" stroke-width=".05" fill="#3a414a"/><path d="M988.43 589.55l-4.63-14.27h9.27z" fill="#3a414a"/><path d="M988.43 591.17l-5.32-16.4h10.65zm-3.95-15.4l3.95 12.16 3.95-12.15z" stroke="#3a414a" stroke-width=".05" fill="#3a414a"/><g><use xlink:href="#W" transform="matrix(1,0,0,1,1057.8586444372881,546.6666666666667) translate(0 10.966666666666667)"/></g><path d="M980 841.3v37.2a6 6 0 0 0 6 6h137.62" stroke="#3a414a" fill="none"/><path d="M980.5 841.3h-1v-.5h1z" stroke="#3a414a" stroke-width=".05" fill="#3a414a"/><path d="M1138.38 884.5l-14.26 4.63v-9.27z" stroke="#3a414a" fill="#3a414a"/><defs><path fill="#3a414a" d="M368-163h620V0H174v-1433h194v1270" id="X"/><path fill="#3a414a" d="M1038-507c0 321-164 521-482 521S72-187 72-507c0-248 107-410 284-485 60-25 126-37 200-37 317 0 482 201 482 522zm-782 1c0 225 80 381 300 381 213 0 298-159 298-381 0-223-84-383-298-383-221 0-300 158-300 383" id="Y"/><path fill="#3a414a" d="M537-1031c235 0 353 147 353 383V0c-58-5-129 17-142-42l-20-94C637-55 545 19 375 16 200 13 92-76 92-253c0-184 160-243 332-285 79-19 176-28 291-31 12-184-31-318-200-318-113 0-181 45-243 91-36 26-82 14-99-17l-32-57c101-96 215-161 396-161zM263-261c0 103 62 152 165 152 140 0 216-64 287-136v-211c-141 4-258 19-349 60-60 27-103 62-103 135" id="Z"/><path fill="#3a414a" d="M510-1031c133 0 210 49 277 120v-562h178V0c-60-6-146 21-154-37l-16-123C716-67 616 14 455 14 173 14 72-209 72-503c0-237 94-406 254-487 54-27 115-41 184-41zM256-503c2 212 53 373 258 373 136 0 207-69 273-153v-490c-57-77-121-119-237-119-208 0-296 164-294 389" id="aa"/><g id="a"><use transform="matrix(0.007777777777777776,0,0,0.007777777777777776,0,0)" xlink:href="#X"/><use transform="matrix(0.007777777777777776,0,0,0.007777777777777776,7.715555555555554,0)" xlink:href="#Y"/><use transform="matrix(0.007777777777777776,0,0,0.007777777777777776,16.36444444444444,0)" xlink:href="#Z"/><use transform="matrix(0.007777777777777776,0,0,0.007777777777777776,24.251111111111108,0)" xlink:href="#aa"/></g><path fill="#3a414a" d="M1365-1009c68 170 68 416 0 586C1264-171 1053 0 710 0H174v-1433h536c343 5 555 172 655 424zM710-157c338-11 507-216 507-559s-169-560-507-560H369v1119h341" id="ab"/><path fill="#3a414a" d="M698-76c-54 52-145 92-245 92-162 1-249-96-249-260v-620c-58-9-160 26-160-39v-71l166-21 41-313c4-50 80-30 131-34v349h290v129H382v608c-2 78 40 125 111 126 60 2 88-33 128-48 9 0 18 6 25 17" id="ac"/><g id="b"><use transform="matrix(0.007777777777777776,0,0,0.007777777777777776,0,0)" xlink:href="#ab"/><use transform="matrix(0.007777777777777776,0,0,0.007777777777777776,11.713333333333331,0)" xlink:href="#Z"/><use transform="matrix(0.007777777777777776,0,0,0.007777777777777776,19.599999999999994,0)" xlink:href="#ac"/><use transform="matrix(0.007777777777777776,0,0,0.007777777777777776,25.402222222222214,0)" xlink:href="#Z"/></g><path fill="#3a414a" d="M404 0H210v-1433h194V0" id="ad"/><path fill="#3a414a" d="M598-887c-125 2-207 68-274 141V0H146v-1013c60 6 147-22 154 37l14 110c82-87 177-163 336-163 232 0 339 151 339 384V0H811v-645c0-149-65-244-213-242" id="ae"/><path fill="#3a414a" d="M344-1013V0H166v-1013h178zm-88-446c77 0 128 52 128 128 0 75-52 126-128 126-75 0-126-51-126-126 0-76 50-128 126-128" id="af"/><g id="c"><use transform="matrix(0.007777777777777776,0,0,0.007777777777777776,0,0)" xlink:href="#ad"/><use transform="matrix(0.007777777777777776,0,0,0.007777777777777776,4.775555555555554,0)" xlink:href="#ae"/><use transform="matrix(0.007777777777777776,0,0,0.007777777777777776,13.424444444444442,0)" xlink:href="#af"/><use transform="matrix(0.007777777777777776,0,0,0.007777777777777776,17.406666666666663,0)" xlink:href="#ac"/></g><path fill="#3a414a" d="M513-145c178-4 292-88 292-262 0-193-194-213-343-263-182-61-347-142-342-385 4-188 111-303 254-361 117-48 292-41 408 5 66 26 124 62 173 110-22 37-36 86-66 115-51 25-83-28-123-48-53-26-114-56-200-54-157 4-266 71-266 223 0 186 200 204 344 258 175 65 343 135 343 372 0 289-185 446-480 451-198 4-349-81-449-187 26-36 42-83 76-111 60-25 93 39 140 65 62 34 135 75 239 72" id="ag"/><path fill="#3a414a" d="M584-856c-148 6-210 94-260 211V0H146v-1013c62 7 151-25 157 49l12 158c66-138 184-259 384-216 23 5 44 16 63 27l-23 133c-5 17-15 25-31 25-36 0-71-21-124-19" id="ah"/><path fill="#3a414a" d="M103-704c0-220 160-326 384-326 92 0 169 21 228 57h275c-2 53 13 100-42 108l-115 16c43 79 45 196 5 279-58 120-176 191-351 193-47 0-92-6-134-17-50 22-100 108-36 142 165 88 511-13 621 164 40 65 36 170-4 240-77 134-229 213-441 213-193 0-343-50-415-167-19-32-28-66-28-101 3-117 84-175 178-211-54-27-98-64-94-143 4-90 64-137 129-173-91-51-160-139-160-274zM334-85C254-53 162 38 224 138c97 157 586 133 579-83C799-63 659-58 543-68c-70-6-146-6-209-17zm-67-614c0 134 84 204 220 204 137 0 221-69 221-204 0-129-85-203-221-203-135 0-220 74-220 203" id="ai"/><g id="d"><use transform="matrix(0.007777777777777776,0,0,0.007777777777777776,0,0)" xlink:href="#ag"/><use transform="matrix(0.007777777777777776,0,0,0.007777777777777776,8.244444444444442,0)" xlink:href="#ac"/><use transform="matrix(0.007777777777777776,0,0,0.007777777777777776,14.046666666666663,0)" xlink:href="#Z"/><use transform="matrix(0.007777777777777776,0,0,0.007777777777777776,21.93333333333333,0)" xlink:href="#ah"/><use transform="matrix(0.007777777777777776,0,0,0.007777777777777776,28.20222222222222,0)" xlink:href="#ac"/><use transform="matrix(0.007777777777777776,0,0,0.007777777777777776,34.00444444444444,0)" xlink:href="#af"/><use transform="matrix(0.007777777777777776,0,0,0.007777777777777776,37.98666666666666,0)" xlink:href="#ae"/><use transform="matrix(0.007777777777777776,0,0,0.007777777777777776,46.63555555555554,0)" xlink:href="#ai"/></g><path fill="#3a414a" d="M602 14c-133 0-212-47-278-119v448H146v-1356c60 6 147-22 154 37l15 120c80-93 179-175 341-175 282 0 383 224 383 518 0 237-92 406-253 487-54 27-116 40-184 40zm253-527c-3-212-53-374-258-374-136 0-207 69-273 153v490c57 77 121 120 238 120 207 0 295-164 293-389" id="aj"/><path fill="#3a414a" d="M409-112c121-3 207-52 207-167 0-134-157-142-264-181-133-48-263-98-263-275 0-197 153-290 360-294 139-3 243 49 317 118-26 35-46 114-111 76-53-31-114-63-202-61-108 3-195 44-195 147 0 129 158 136 262 175 128 48 263 93 263 264C783-89 627 12 400 16 255 19 139-39 62-107c27-41 57-128 128-81 57 38 118 78 219 76" id="ak"/><path fill="#3a414a" d="M598-887c-125 2-207 68-274 141V0H146v-1473h178v596c81-82 173-152 326-152 232 0 339 151 339 384V0H811v-645c0-149-65-244-213-242" id="al"/><g id="e"><use transform="matrix(0.007777777777777776,0,0,0.007777777777777776,0,0)" xlink:href="#ag"/><use transform="matrix(0.007777777777777776,0,0,0.007777777777777776,8.244444444444442,0)" xlink:href="#ae"/><use transform="matrix(0.007777777777777776,0,0,0.007777777777777776,16.89333333333333,0)" xlink:href="#Z"/><use transform="matrix(0.007777777777777776,0,0,0.007777777777777776,24.779999999999994,0)" xlink:href="#aj"/><use transform="matrix(0.007777777777777776,0,0,0.007777777777777776,33.36666666666666,0)" xlink:href="#ak"/><use transform="matrix(0.007777777777777776,0,0,0.007777777777777776,40.11777777777777,0)" xlink:href="#al"/><use transform="matrix(0.007777777777777776,0,0,0.007777777777777776,48.76666666666665,0)" xlink:href="#Y"/><use transform="matrix(0.007777777777777776,0,0,0.007777777777777776,57.41555555555554,0)" xlink:href="#ac"/></g><path fill="#3a414a" d="M867-737c186 37 317 126 317 329C1184-123 974 0 681 0H174v-1433h457c293 3 505 90 505 374 0 185-121 273-269 322zm126 324c0-168-128-240-316-240H368v499h310c190-2 315-75 315-259zm-50-623c0-184-115-243-312-244H368v489h256c186-3 319-66 319-245" id="am"/><path fill="#3a414a" d="M461 16c-231 0-339-149-339-383v-646h178v646c0 148 67 243 213 241 125-2 207-66 274-140v-747h178V0c-60-6-146 22-154-37l-14-109C716-60 619 16 461 16" id="an"/><path fill="#3a414a" d="M344-1473V0H166v-1473h178" id="ao"/><g id="f"><use transform="matrix(0.007777777777777776,0,0,0.007777777777777776,0,0)" xlink:href="#am"/><use transform="matrix(0.007777777777777776,0,0,0.007777777777777776,10.064444444444442,0)" xlink:href="#an"/><use transform="matrix(0.007777777777777776,0,0,0.007777777777777776,18.71333333333333,0)" xlink:href="#af"/><use transform="matrix(0.007777777777777776,0,0,0.007777777777777776,22.69555555555555,0)" xlink:href="#ao"/><use transform="matrix(0.007777777777777776,0,0,0.007777777777777776,26.67777777777777,0)" xlink:href="#aa"/></g><path fill="#3a414a" d="M1124-1036c0 240-152 355-353 406 24 14 45 35 64 61L1253 0c-92-9-205 21-250-41L631-553c-24-32-41-45-97-45H387V0H194v-1433h405c307 3 525 101 525 397zm-189 14c0-188-133-258-336-258H387v541h203c205-3 345-85 345-283" id="ap"/><path fill="#3a414a" d="M954-142C850-8 572 61 364-22 180-96 74-268 74-527c0-234 108-389 275-463 59-26 125-39 198-39 273 0 420 174 420 453 0 48-2 70-43 70H250c8 226 98 375 322 380 114 2 191-38 258-82 70-46 94 37 124 66zM807-617c-5-171-86-278-256-281-181-3-273 116-295 281h551" id="aq"/><path fill="#3a414a" d="M14-1013c70 8 177-25 195 37l194 652c10 46 20 89 27 137 77-272 174-527 253-793 13-44 73-34 126-35 27-1 44 16 51 35 81 265 173 518 245 792 7-44 18-96 30-136l198-652c15-59 118-30 186-37L1191 0h-141c-17 0-29-11-36-34-79-245-162-486-237-734-5-15-7-31-10-46-7 32-12 65-23 94L517-34C501 26 405-10 342 0" id="ar"/><g id="g"><use transform="matrix(0.007777777777777776,0,0,0.007777777777777776,0,0)" xlink:href="#ap"/><use transform="matrix(0.007777777777777776,0,0,0.007777777777777776,10.017777777777775,0)" xlink:href="#aq"/><use transform="matrix(0.007777777777777776,0,0,0.007777777777777776,18.168888888888887,0)" xlink:href="#ar"/><use transform="matrix(0.007777777777777776,0,0,0.007777777777777776,30.08444444444444,0)" xlink:href="#af"/><use transform="matrix(0.007777777777777776,0,0,0.007777777777777776,34.06666666666666,0)" xlink:href="#ae"/><use transform="matrix(0.007777777777777776,0,0,0.007777777777777776,42.715555555555554,0)" xlink:href="#aa"/></g><path fill="#3a414a" d="M1150-1433v163H687V0H493v-1270H28v-163h1122" id="as"/><path fill="#3a414a" d="M550-887c-107 0-172 65-226 132V0H146v-1013c60 6 147-22 154 37l13 104c69-80 148-156 287-157 148-1 223 92 258 211 51-126 153-211 323-211 232 0 338 149 338 384V0h-178v-645c1-148-62-242-203-242-142 0-218 94-218 242V0H742v-645c1-149-54-242-192-242" id="at"/><g id="h"><use transform="matrix(0.007777777777777776,0,0,0.007777777777777776,0,0)" xlink:href="#as"/><use transform="matrix(0.007777777777777776,0,0,0.007777777777777776,9.177777777777775,0)" xlink:href="#af"/><use transform="matrix(0.007777777777777776,0,0,0.007777777777777776,13.159999999999997,0)" xlink:href="#at"/><use transform="matrix(0.007777777777777776,0,0,0.007777777777777776,25.931111111111104,0)" xlink:href="#aq"/><use transform="matrix(0.007777777777777776,0,0,0.007777777777777776,34.082222222222214,0)" xlink:href="#ao"/><use transform="matrix(0.007777777777777776,0,0,0.007777777777777776,38.06444444444443,0)" xlink:href="#af"/><use transform="matrix(0.007777777777777776,0,0,0.007777777777777776,42.04666666666665,0)" xlink:href="#ae"/><use transform="matrix(0.007777777777777776,0,0,0.007777777777777776,50.69555555555554,0)" xlink:href="#aq"/></g><path fill="#3a414a" d="M1057-1433v158H369v476h557v152H369v489h688V0H174v-1433h883" id="au"/><path fill="#3a414a" d="M383-519L42-1013h171c30 0 38 9 50 27l248 380c6-19 14-38 26-56l218-320c12-15 21-30 45-31h164L623-529 978 0H807c-30 1-44-19-55-37L497-434c-5 19-11 37-21 52L240-37c-13 16-24 37-53 37H28" id="av"/><g id="i"><use transform="matrix(0.007777777777777776,0,0,0.007777777777777776,0,0)" xlink:href="#au"/><use transform="matrix(0.007777777777777776,0,0,0.007777777777777776,9.037777777777775,0)" xlink:href="#av"/><use transform="matrix(0.007777777777777776,0,0,0.007777777777777776,16.877777777777773,0)" xlink:href="#af"/><use transform="matrix(0.007777777777777776,0,0,0.007777777777777776,20.859999999999992,0)" xlink:href="#ac"/></g><path fill="#3a414a" d="M1057-1433v158H369v501h588v158H369V0H174v-1433h883" id="aw"/><g id="j"><use transform="matrix(0.007777777777777776,0,0,0.007777777777777776,0,0)" xlink:href="#aw"/><use transform="matrix(0.007777777777777776,0,0,0.007777777777777776,8.259999999999998,0)" xlink:href="#Y"/><use transform="matrix(0.007777777777777776,0,0,0.007777777777777776,16.908888888888885,0)" xlink:href="#ah"/><use transform="matrix(0.007777777777777776,0,0,0.007777777777777776,23.177777777777774,0)" xlink:href="#ar"/><use transform="matrix(0.007777777777777776,0,0,0.007777777777777776,35.09333333333333,0)" xlink:href="#Z"/><use transform="matrix(0.007777777777777776,0,0,0.007777777777777776,42.97999999999999,0)" xlink:href="#ah"/><use transform="matrix(0.007777777777777776,0,0,0.007777777777777776,49.24888888888888,0)" xlink:href="#aa"/></g><g id="k"><use transform="matrix(0.007777777777777776,0,0,0.007777777777777776,0,0)" xlink:href="#ap"/><use transform="matrix(0.007777777777777776,0,0,0.007777777777777776,10.017777777777775,0)" xlink:href="#aq"/><use transform="matrix(0.007777777777777776,0,0,0.007777777777777776,18.168888888888887,0)" xlink:href="#ar"/><use transform="matrix(0.007777777777777776,0,0,0.007777777777777776,30.08444444444444,0)" xlink:href="#af"/><use transform="matrix(0.007777777777777776,0,0,0.007777777777777776,34.06666666666666,0)" xlink:href="#ae"/><use transform="matrix(0.007777777777777776,0,0,0.007777777777777776,42.715555555555554,0)" xlink:href="#aa"/></g><path fill="#3a414a" d="M617-1433c323 3 534 130 534 444 0 310-216 446-534 453H387V0H194v-1433h423zm340 444c0-197-128-291-340-291H387v590h230c207-4 340-97 340-299" id="ax"/><path fill="#3a414a" d="M443 299c-13 26-25 44-64 44H247L432-59 14-1013h154c30-1 46 18 55 37 95 228 197 450 287 682 6 14 8 30 11 45 10-32 18-60 30-90l263-637c18-60 124-30 194-37" id="ay"/><path fill="#3a414a" d="M1353 0h-150c-36 0-55-21-66-46l-134-346H360L226-46c-9 23-33 46-66 46H10l573-1433h197zM414-532h535l-225-583c-15-36-29-81-43-135-13 48-26 95-42 136" id="az"/><g id="l"><use transform="matrix(0.007777777777777776,0,0,0.007777777777777776,0,0)" xlink:href="#ax"/><use transform="matrix(0.007777777777777776,0,0,0.007777777777777776,9.504444444444442,0)" xlink:href="#ao"/><use transform="matrix(0.007777777777777776,0,0,0.007777777777777776,13.486666666666663,0)" xlink:href="#Z"/><use transform="matrix(0.007777777777777776,0,0,0.007777777777777776,21.12444444444444,0)" xlink:href="#ay"/><use transform="matrix(0.007777777777777776,0,0,0.007777777777777776,28.451111111111103,0)" xlink:href="#az"/><use transform="matrix(0.007777777777777776,0,0,0.007777777777777776,39.02888888888888,0)" xlink:href="#Z"/><use transform="matrix(0.007777777777777776,0,0,0.007777777777777776,46.91555555555554,0)" xlink:href="#ai"/><use transform="matrix(0.007777777777777776,0,0,0.007777777777777776,54.86444444444443,0)" xlink:href="#af"/><use transform="matrix(0.007777777777777776,0,0,0.007777777777777776,58.84666666666665,0)" xlink:href="#ae"/></g><g id="m"><use transform="matrix(0.007777777777777776,0,0,0.007777777777777776,0,0)" xlink:href="#ag"/><use transform="matrix(0.007777777777777776,0,0,0.007777777777777776,8.244444444444442,0)" xlink:href="#aq"/><use transform="matrix(0.007777777777777776,0,0,0.007777777777777776,16.395555555555553,0)" xlink:href="#ac"/><use transform="matrix(0.007777777777777776,0,0,0.007777777777777776,22.197777777777773,0)" xlink:href="#ag"/><use transform="matrix(0.007777777777777776,0,0,0.007777777777777776,30.442222222222213,0)" xlink:href="#aj"/><use transform="matrix(0.007777777777777776,0,0,0.007777777777777776,39.02888888888888,0)" xlink:href="#aq"/><use transform="matrix(0.007777777777777776,0,0,0.007777777777777776,47.17999999999999,0)" xlink:href="#aq"/><use transform="matrix(0.007777777777777776,0,0,0.007777777777777776,55.3311111111111,0)" xlink:href="#aa"/></g><g id="n"><use transform="matrix(0.007777777777777776,0,0,0.007777777777777776,0,0)" xlink:href="#au"/><use transform="matrix(0.007777777777777776,0,0,0.007777777777777776,9.037777777777775,0)" xlink:href="#ae"/><use transform="matrix(0.007777777777777776,0,0,0.007777777777777776,17.68666666666666,0)" xlink:href="#ac"/><use transform="matrix(0.007777777777777776,0,0,0.007777777777777776,23.48888888888888,0)" xlink:href="#aq"/><use transform="matrix(0.007777777777777776,0,0,0.007777777777777776,31.63999999999999,0)" xlink:href="#ah"/></g><path fill="#333" d="M234-125c148 44 313-21 305-171-8-157-208-144-311-214-59-40-114-89-109-188 11-210 152-324 370-330 127-3 216 48 280 113-20 26-37 59-61 81-37 18-62-16-90-30-36-18-81-37-140-36-114 4-202 52-202 161 0 112 123 127 210 163 105 44 211 92 211 239 0 170-103 272-231 324-97 40-243 39-334-5-49-24-90-53-121-89 28-37 58-129 123-81 29 21 57 50 100 63" id="aA"/><path fill="#333" d="M775-645c15-122 0-244-121-235-142 10-215 112-278 214-27 44-49 96-68 151L250 0H72l121-1014c68 2 156-16 149 60l-15 196c54-89 115-157 183-202s137-68 210-68c193-2 258 172 233 383L877 0H699" id="aB"/><path fill="#333" d="M314 14C120 14 49-141 49-343c0-285 143-462 315-587 132-96 396-132 574-50L817 0h-92c-44 1-63-24-60-62l18-205C619-155 541-56 420-6c-34 13-69 20-106 20zm438-903c-292-39-444 147-509 379-12 43-16 89-16 135 0 210 112 297 250 211 119-74 212-218 232-377" id="aC"/><path fill="#333" d="M631-13C493 48 319-2 256-100l-54 443H29l165-1357c68 2 156-16 149 60l-17 216c69-116 153-218 281-270 36-14 73-20 110-20 193 5 277 155 273 369-5 258-101 444-240 571-36 33-76 57-119 75zm141-389c59-157 83-494-122-483-146 8-215 132-278 242-28 48-50 103-69 161l-32 258c50 85 188 130 298 78 101-47 162-147 203-256" id="aD"/><path fill="#333" d="M782-645c15-123 0-245-122-236-135 10-207 108-269 203-27 42-49 89-68 141L258 0H80l178-1473h178l-83 684c86-128 195-233 373-239 195-6 259 171 234 383L884 0H706" id="aE"/><path fill="#333" d="M235-408c-1 169 59 283 214 283 178 0 257-149 300-300 16-58 23-119 23-182 1-168-60-282-214-282-179 0-257 148-300 299-17 58-23 119-23 182zm339-621c250 0 377 166 377 421 0 277-129 473-314 572-63 34-131 50-204 50C183 14 56-152 56-407c0-277 129-474 314-573 63-33 131-49 204-49" id="aF"/><path fill="#333" d="M371 16c-145 1-226-95-209-250 23-210 52-421 77-630H126c-50-1-22-70-21-110l156-21 75-313c7-50 83-30 136-34l-44 349h266l-15 129H412c-25 212-58 418-75 634-5 63 29 99 88 100 57 2 84-33 123-48 14 1 17 6 22 17l37 85c-55 50-140 91-236 92" id="aG"/><path fill="#333" d="M1109-1091c0 264-157 403-375 459 21 15 39 35 53 60L1096 0c-86-9-202 25-236-40L590-556c-19-34-32-44-84-45H374L300 0H114l175-1433h377c260 3 443 90 443 342zm-186 29c0-157-105-224-274-224H459l-68 549h183c217-5 349-112 349-325" id="aH"/><path fill="#333" d="M586-1027c169 0 296 78 296 231 0 199-149 250-324 299-84 24-192 40-324 53-23 223 98 359 320 308 85-19 133-74 195-113 57-36 83 37 109 62C750-79 642 14 433 14 184 14 60-146 60-397c0-248 101-426 246-537 71-54 162-93 280-93zm121 307c48-99-21-186-131-179-202 12-279 166-325 337 166-21 286-42 390-96 34-18 55-40 66-62" id="aI"/><path fill="#333" d="M547-1028c109 0 189 47 240 112l69-557h175L849 0h-92c-44 1-63-24-60-62l19-211C647-159 563-57 436-6c-36 14-72 20-109 20C133 10 50-141 54-355c5-257 100-447 240-572 62-56 145-101 253-101zM254-554c-44 167-43 425 140 425 145 0 213-130 276-237 28-47 49-101 68-158l33-268c-58-98-237-130-341-50-84 65-144 169-176 288" id="aJ"/><path fill="#333" d="M317 302c-24 65-115 34-192 41L344-60 82-1013h147c28-1 40 16 46 37 56 227 119 449 171 680 3 14 4 28 5 42 13-29 22-58 37-85l320-639c21-57 123-28 193-35" id="aK"/><g id="o"><use transform="matrix(0.007777777777777776,0,0,0.007777777777777776,0,0)" xlink:href="#aA"/><use transform="matrix(0.007777777777777776,0,0,0.007777777777777776,6.0666666666666655,0)" xlink:href="#aB"/><use transform="matrix(0.007777777777777776,0,0,0.007777777777777776,14.26444444444444,0)" xlink:href="#aC"/><use transform="matrix(0.007777777777777776,0,0,0.007777777777777776,22.13555555555555,0)" xlink:href="#aD"/><use transform="matrix(0.007777777777777776,0,0,0.007777777777777776,30.20888888888888,0)" xlink:href="#aA"/><use transform="matrix(0.007777777777777776,0,0,0.007777777777777776,36.27555555555554,0)" xlink:href="#aE"/><use transform="matrix(0.007777777777777776,0,0,0.007777777777777776,44.53555555555554,0)" xlink:href="#aF"/><use transform="matrix(0.007777777777777776,0,0,0.007777777777777776,52.36777777777776,0)" xlink:href="#aG"/><use transform="matrix(0.007777777777777776,0,0,0.007777777777777776,57.711111111111094,0)" xlink:href="#aH"/><use transform="matrix(0.007777777777777776,0,0,0.007777777777777776,66.95111111111109,0)" xlink:href="#aI"/><use transform="matrix(0.007777777777777776,0,0,0.007777777777777776,74.13777777777776,0)" xlink:href="#aC"/><use transform="matrix(0.007777777777777776,0,0,0.007777777777777776,82.00888888888886,0)" xlink:href="#aJ"/><use transform="matrix(0.007777777777777776,0,0,0.007777777777777776,90.20666666666664,0)" xlink:href="#aK"/></g><path fill="#333" d="M115-672h457l-19 146H97" id="aL"/><path fill="#333" d="M947-636L125-235c15-65 0-153 58-179 176-78 343-169 521-246 15-7 33-10 50-14-32-7-61-18-86-31L246-932c-57-26-13-117-13-180l723 402" id="aM"/><g id="p"><use transform="matrix(0.007777777777777776,0,0,0.007777777777777776,0,0)" xlink:href="#aL"/><use transform="matrix(0.007777777777777776,0,0,0.007777777777777776,4.985555555555554,0)" xlink:href="#aM"/></g><path fill="#333" d="M1177-1433l-20 157H734L578 0H392l156-1276H123l19-157h1035" id="aN"/><path fill="#333" d="M283-1014c58-5 61 46 57 101l-14 184c43-93 92-166 146-216 77-71 152-97 253-58l-32 171c-112-42-192-12-264 76-51 63-111 154-127 286L246 0H72l122-1014h89" id="aO"/><path fill="#333" d="M335 14C143 15 77-159 102-369l76-644h177c-26 240-81 471-81 717 0 101 31 162 127 162 138 0 211-109 273-207 27-43 49-92 68-145l63-527h177L860 0c-68-2-157 16-153-57 3-65 10-129 15-191-54 86-114 152-181 196S406 14 335 14" id="aP"/><g id="q"><use transform="matrix(0.007777777777777776,0,0,0.007777777777777776,0,0)" xlink:href="#aN"/><use transform="matrix(0.007777777777777776,0,0,0.007777777777777776,7.256666666666665,0)" xlink:href="#aO"/><use transform="matrix(0.007777777777777776,0,0,0.007777777777777776,12.73222222222222,0)" xlink:href="#aP"/><use transform="matrix(0.007777777777777776,0,0,0.007777777777777776,20.91444444444444,0)" xlink:href="#aI"/></g><path fill="#333" d="M393-1013L271 0H96l122-1013h175zm-56-446c74 0 123 53 123 128 0 74-51 126-124 126-72 0-120-53-120-126 0-74 49-128 121-128" id="aQ"/><path fill="#333" d="M720-645c12-110 21-244-99-235-135 10-195 105-250 204-24 43-43 93-62 148L246 0H72l122-1014c68 2 156-16 149 60l-14 181c50-84 105-148 164-191s122-64 188-64c150 2 200 113 201 272 51-93 107-162 170-206s130-66 199-66c195 0 240 179 216 383L1391 0h-175l76-645c13-113 15-243-103-235-127 9-189 96-243 188-24 40-44 88-62 141L819 0H643" id="aR"/><path fill="#333" d="M89 0l179-1473h175L264 0H89" id="aS"/><g id="r"><use transform="matrix(0.007777777777777776,0,0,0.007777777777777776,0,0)" xlink:href="#aG"/><use transform="matrix(0.007777777777777776,0,0,0.007777777777777776,5.343333333333332,0)" xlink:href="#aQ"/><use transform="matrix(0.007777777777777776,0,0,0.007777777777777776,9.146666666666665,0)" xlink:href="#aR"/><use transform="matrix(0.007777777777777776,0,0,0.007777777777777776,21.349999999999994,0)" xlink:href="#aI"/><use transform="matrix(0.007777777777777776,0,0,0.007777777777777776,28.536666666666658,0)" xlink:href="#aS"/><use transform="matrix(0.007777777777777776,0,0,0.007777777777777776,32.246666666666655,0)" xlink:href="#aQ"/><use transform="matrix(0.007777777777777776,0,0,0.007777777777777776,36.04999999999999,0)" xlink:href="#aB"/><use transform="matrix(0.007777777777777776,0,0,0.007777777777777776,44.24777777777776,0)" xlink:href="#aI"/><use transform="matrix(0.007777777777777776,0,0,0.007777777777777776,51.43444444444443,0)" xlink:href="#aH"/><use transform="matrix(0.007777777777777776,0,0,0.007777777777777776,60.67444444444443,0)" xlink:href="#aI"/><use transform="matrix(0.007777777777777776,0,0,0.007777777777777776,67.8611111111111,0)" xlink:href="#aC"/><use transform="matrix(0.007777777777777776,0,0,0.007777777777777776,75.7322222222222,0)" xlink:href="#aJ"/><use transform="matrix(0.007777777777777776,0,0,0.007777777777777776,83.92999999999998,0)" xlink:href="#aK"/></g><path fill="#3a414a" d="M1187-985c0 329-222 471-561 476H424V0H155v-1446h471c337 4 561 134 561 461zm-269 0c0-176-112-253-292-253H424v519h202c184-1 292-85 292-266" id="aT"/><path fill="#3a414a" d="M395-1486V0H148v-1486h247" id="aU"/><path fill="#3a414a" d="M556-1045c246 0 380 151 380 397V0c-79-6-181 23-196-53l-22-73C630-49 541 18 379 16 194 13 81-77 81-262c0-184 152-247 321-292 78-21 176-31 293-34 10-155-29-262-170-262-104 0-161 40-224 77-47 28-107 5-127-31l-45-79c118-108 260-162 427-162zM317-275c-3 86 56 121 139 121 117 0 179-51 239-111v-173c-122 6-219 17-297 53-49 22-79 51-81 110" id="aV"/><path fill="#3a414a" d="M496 282c-21 85-170 43-266 53L422-76 7-1026h216c39-1 60 21 70 46 80 195 164 386 238 586 7 18 10 37 14 56 74-221 164-427 244-642 9-24 36-46 68-46h198" id="aW"/><path fill="#3a414a" d="M638 15c-134 0-208-58-269-132-10 52-5 117-71 117H135v-1486h247v586c77-79 169-142 318-142 277 0 379 230 379 521 0 241-97 412-259 495-54 27-115 41-182 41zm186-536c0-181-37-329-209-329-117 0-175 55-233 124v460c48 61 104 93 199 93 187 0 243-152 243-348" id="aX"/><path fill="#3a414a" d="M928-153C839-49 712 15 524 15c-227 0-358-131-424-305-47-123-49-306-4-434 67-190 213-318 465-318 165 0 270 58 357 143-29 37-52 81-86 112-71 26-104-41-170-55-24-5-52-12-86-12-192 5-260 143-260 339 0 194 67 336 254 342 98 3 148-38 200-79 26-20 67-17 87 9" id="aY"/><path fill="#3a414a" d="M382-1486v851c54 1 89-1 115-33l255-315c22-25 41-43 86-43h226C946-887 832-742 710-606c-11 12-25 21-39 30 29 21 48 49 69 78L1082 0H859c-44-1-65-15-85-44L513-433c-20-29-30-36-75-37h-56V0H135v-1486h247" id="aZ"/><g id="s"><use transform="matrix(0.013333333333333332,0,0,0.013333333333333332,0,0)" xlink:href="#aT"/><use transform="matrix(0.013333333333333332,0,0,0.013333333333333332,16.666666666666664,0)" xlink:href="#aU"/><use transform="matrix(0.013333333333333332,0,0,0.013333333333333332,23.89333333333333,0)" xlink:href="#aV"/><use transform="matrix(0.013333333333333332,0,0,0.013333333333333332,37.37333333333333,0)" xlink:href="#aW"/><use transform="matrix(0.013333333333333332,0,0,0.013333333333333332,51.599999999999994,0)" xlink:href="#aX"/><use transform="matrix(0.013333333333333332,0,0,0.013333333333333332,66.8,0)" xlink:href="#aV"/><use transform="matrix(0.013333333333333332,0,0,0.013333333333333332,80.75999999999999,0)" xlink:href="#aY"/><use transform="matrix(0.013333333333333332,0,0,0.013333333333333332,93.47999999999999,0)" xlink:href="#aZ"/></g><path fill="#3a414a" d="M604-806c-122 5-180 74-225 167V0H132v-1026c83 11 206-35 218 62l15 124c63-106 147-205 295-205 51 0 93 12 126 35l-32 185c-4 23-15 33-40 33-33 0-65-16-110-14" id="ba"/><path fill="#3a414a" d="M361-1005c121-49 297-49 417 0 184 74 298 236 298 490 0 330-178 530-506 530C241 15 61-185 61-515c0-254 115-416 300-490zm-45 492c0 201 65 338 254 338 188 0 251-137 251-338s-63-340-251-340c-189 0-254 139-254 340" id="bb"/><path fill="#3a414a" d="M991-153C899-47 760 15 568 15 237 15 63-197 63-535c0-237 116-392 287-467 61-27 129-40 206-40 287 0 444 174 444 465 0 54-3 95-57 95H309c4 226 158 349 385 292 52-13 93-39 132-62 32-19 73-16 93 9zM778-631c-4-143-73-234-217-234-154 0-226 95-247 234h464" id="bc"/><path fill="#3a414a" d="M254-198c95 60 334 64 323-83-9-119-156-122-253-159C192-490 72-550 72-729c0-214 163-309 387-313 145-3 264 55 338 127-26 36-45 82-77 111-69 21-111-33-176-48-103-23-247 0-238 102 11 114 156 118 251 155 126 49 251 100 251 270C808-59 575 48 294 6 192-9 106-54 42-110c28-39 43-95 83-120 49-31 96 11 129 32" id="bd"/><g id="t"><use transform="matrix(0.013333333333333332,0,0,0.013333333333333332,0,0)" xlink:href="#aT"/><use transform="matrix(0.013333333333333332,0,0,0.013333333333333332,16.666666666666664,0)" xlink:href="#ba"/><use transform="matrix(0.013333333333333332,0,0,0.013333333333333332,27.56,0)" xlink:href="#bb"/><use transform="matrix(0.013333333333333332,0,0,0.013333333333333332,42.71999999999999,0)" xlink:href="#aY"/><use transform="matrix(0.013333333333333332,0,0,0.013333333333333332,55.44,0)" xlink:href="#bc"/><use transform="matrix(0.013333333333333332,0,0,0.013333333333333332,69.69333333333333,0)" xlink:href="#bd"/><use transform="matrix(0.013333333333333332,0,0,0.013333333333333332,81.34666666666666,0)" xlink:href="#bd"/></g><path fill="#3a414a" d="M415-222h579V0H146v-1446h269v1224" id="be"/><path fill="#3a414a" d="M502-1045c120-1 193 43 256 101v-542h247V0c-80-9-199 29-214-45l-20-99C693-58 601 15 441 15 163 15 61-217 61-510c0-241 98-411 259-494 54-27 115-41 182-41zM316-510c0 181 36 329 209 329 118 0 173-54 233-123v-460c-48-59-104-93-198-93-188 0-244 151-244 347" id="bf"/><g id="u"><use transform="matrix(0.011111111111111101,0,0,0.011111111111111101,0,0)" xlink:href="#be"/><use transform="matrix(0.011111111111111101,0,0,0.011111111111111101,11.066666666666656,0)" xlink:href="#bb"/><use transform="matrix(0.011111111111111101,0,0,0.011111111111111101,23.699999999999978,0)" xlink:href="#aV"/><use transform="matrix(0.011111111111111101,0,0,0.011111111111111101,35.3333333333333,0)" xlink:href="#bf"/></g><path fill="#3a414a" d="M1377-1015c71 172 71 412 0 584C1271-174 1052 0 698 0H146v-1446h552c353 6 574 175 679 431zM698-214c307-9 457-198 457-509s-150-500-457-509H417v1018h281" id="bg"/><path fill="#3a414a" d="M738-75c-64 55-158 90-269 91-176 2-277-109-277-284v-573c-65-4-153 21-153-52v-98l165-27 52-280c10-66 115-35 183-42v323h270v176H439v556c-1 59 32 101 88 102 48 1 68-25 104-34 19 1 25 9 33 22" id="bh"/><g id="v"><use transform="matrix(0.011111111111111101,0,0,0.011111111111111101,0,0)" xlink:href="#bg"/><use transform="matrix(0.011111111111111101,0,0,0.011111111111111101,16.611111111111097,0)" xlink:href="#aV"/><use transform="matrix(0.011111111111111101,0,0,0.011111111111111101,28.24444444444442,0)" xlink:href="#bh"/><use transform="matrix(0.011111111111111101,0,0,0.011111111111111101,36.84444444444441,0)" xlink:href="#aV"/></g><g id="w"><use transform="matrix(0.011111111111111101,0,0,0.011111111111111101,0,0)" xlink:href="#aT"/><use transform="matrix(0.011111111111111101,0,0,0.011111111111111101,13.888888888888877,0)" xlink:href="#ba"/><use transform="matrix(0.011111111111111101,0,0,0.011111111111111101,22.966666666666647,0)" xlink:href="#bb"/><use transform="matrix(0.011111111111111101,0,0,0.011111111111111101,35.599999999999966,0)" xlink:href="#aY"/><use transform="matrix(0.011111111111111101,0,0,0.011111111111111101,46.19999999999996,0)" xlink:href="#bc"/><use transform="matrix(0.011111111111111101,0,0,0.011111111111111101,58.077777777777726,0)" xlink:href="#bd"/><use transform="matrix(0.011111111111111101,0,0,0.011111111111111101,67.78888888888883,0)" xlink:href="#bd"/></g><g id="x"><use transform="matrix(0.009999999999999997,0,0,0.009999999999999997,0,0)" xlink:href="#be"/><use transform="matrix(0.009999999999999997,0,0,0.009999999999999997,9.959999999999997,0)" xlink:href="#bb"/><use transform="matrix(0.009999999999999997,0,0,0.009999999999999997,21.329999999999995,0)" xlink:href="#aV"/><use transform="matrix(0.009999999999999997,0,0,0.009999999999999997,31.79999999999999,0)" xlink:href="#bf"/></g><path fill="#3a414a" d="M1153-1030c0 232-137 352-319 413 34 19 63 47 88 83L1284 0h-242c-51 0-80-22-101-54L637-517c-24-34-42-48-98-48H424V0H155v-1446h441c324 4 557 105 557 416zm-263 20c0-163-114-229-294-228H424v480h168c180-3 298-77 298-252" id="bi"/><path fill="#3a414a" d="M605-850c-102 1-168 52-226 108V0H132v-1026c80 9 198-29 214 45l17 81c77-76 165-142 317-142 235 0 346 154 346 389V0H779v-653c0-121-55-198-174-197" id="bj"/><g id="y"><use transform="matrix(0.009999999999999997,0,0,0.009999999999999997,0,0)" xlink:href="#bi"/><use transform="matrix(0.009999999999999997,0,0,0.009999999999999997,13.099999999999996,0)" xlink:href="#bc"/><use transform="matrix(0.009999999999999997,0,0,0.009999999999999997,23.789999999999992,0)" xlink:href="#aY"/><use transform="matrix(0.009999999999999997,0,0,0.009999999999999997,33.32999999999999,0)" xlink:href="#bc"/><use transform="matrix(0.009999999999999997,0,0,0.009999999999999997,44.01999999999999,0)" xlink:href="#bj"/><use transform="matrix(0.009999999999999997,0,0,0.009999999999999997,55.38999999999998,0)" xlink:href="#bh"/></g><g id="z"><use transform="matrix(0.009999999999999997,0,0,0.009999999999999997,0,0)" xlink:href="#aT"/><use transform="matrix(0.009999999999999997,0,0,0.009999999999999997,12.499999999999996,0)" xlink:href="#aU"/><use transform="matrix(0.009999999999999997,0,0,0.009999999999999997,17.919999999999995,0)" xlink:href="#aV"/><use transform="matrix(0.009999999999999997,0,0,0.009999999999999997,28.029999999999994,0)" xlink:href="#aW"/><use transform="matrix(0.009999999999999997,0,0,0.009999999999999997,38.69999999999999,0)" xlink:href="#aX"/><use transform="matrix(0.009999999999999997,0,0,0.009999999999999997,50.09999999999999,0)" xlink:href="#aV"/><use transform="matrix(0.009999999999999997,0,0,0.009999999999999997,60.569999999999986,0)" xlink:href="#aY"/><use transform="matrix(0.009999999999999997,0,0,0.009999999999999997,70.10999999999999,0)" xlink:href="#aZ"/></g><path fill="#3a414a" d="M519-204c146 0 246-70 241-211-6-175-195-185-333-232-183-63-339-153-333-400 5-199 120-319 272-380 126-51 311-44 437 5 72 27 133 64 184 112l-66 127c-15 40-64 51-105 25-64-41-136-87-246-85-132 3-224 54-224 182 0 167 202 176 334 227 173 67 333 144 333 381 0 227-120 364-289 433-138 56-353 39-478-16-80-35-154-80-210-138l78-129c23-34 74-43 115-13 73 54 157 112 290 112" id="bk"/><path fill="#3a414a" d="M605-850c-102 1-168 52-226 108V0H132v-1486h247v571c76-69 161-129 301-127 234 4 346 154 346 389V0H779v-653c0-121-55-198-174-197" id="bl"/><g id="A"><use transform="matrix(0.009999999999999997,0,0,0.009999999999999997,0,0)" xlink:href="#bk"/><use transform="matrix(0.009999999999999997,0,0,0.009999999999999997,10.729999999999997,0)" xlink:href="#bl"/><use transform="matrix(0.009999999999999997,0,0,0.009999999999999997,22.099999999999994,0)" xlink:href="#aV"/><use transform="matrix(0.009999999999999997,0,0,0.009999999999999997,32.56999999999999,0)" xlink:href="#ba"/><use transform="matrix(0.009999999999999997,0,0,0.009999999999999997,40.739999999999995,0)" xlink:href="#bc"/></g><path fill="#3a414a" d="M1344-139C1208-39 1036 20 799 16c-345-5-555-181-657-435-70-174-66-421 0-596 113-299 413-484 839-421 148 22 259 85 350 168l-55 88c-38 58-99 7-135-18-118-82-379-113-543-44-193 82-310 256-310 526 0 276 118 454 313 536 175 73 436 36 567-45v-316H946c-65 1-35-91-42-148h440v550" id="bm"/><g id="B"><use transform="matrix(0.007777777777777776,0,0,0.007777777777777776,0,0)" xlink:href="#bm"/><use transform="matrix(0.007777777777777776,0,0,0.007777777777777776,11.417777777777776,0)" xlink:href="#aq"/><use transform="matrix(0.007777777777777776,0,0,0.007777777777777776,19.568888888888885,0)" xlink:href="#ac"/></g><g id="C"><use transform="matrix(0.007777777777777776,0,0,0.007777777777777776,0,0)" xlink:href="#X"/><use transform="matrix(0.007777777777777776,0,0,0.007777777777777776,7.995555555555554,0)" xlink:href="#Z"/><use transform="matrix(0.007777777777777776,0,0,0.007777777777777776,15.882222222222218,0)" xlink:href="#ac"/><use transform="matrix(0.007777777777777776,0,0,0.007777777777777776,21.684444444444438,0)" xlink:href="#aq"/><use transform="matrix(0.007777777777777776,0,0,0.007777777777777776,29.835555555555548,0)" xlink:href="#ak"/><use transform="matrix(0.007777777777777776,0,0,0.007777777777777776,36.58666666666666,0)" xlink:href="#ac"/></g><g id="D"><use transform="matrix(0.007777777777777776,0,0,0.007777777777777776,0,0)" xlink:href="#ab"/><use transform="matrix(0.007777777777777776,0,0,0.007777777777777776,11.713333333333331,0)" xlink:href="#aq"/><use transform="matrix(0.007777777777777776,0,0,0.007777777777777776,19.86444444444444,0)" xlink:href="#ao"/><use transform="matrix(0.007777777777777776,0,0,0.007777777777777776,23.846666666666664,0)" xlink:href="#ac"/><use transform="matrix(0.007777777777777776,0,0,0.007777777777777776,29.648888888888884,0)" xlink:href="#Z"/></g><path fill="#3a414a" d="M1289-200C1173-69 1017 19 773 16c-339-4-539-180-634-435-65-176-67-421 3-594 104-257 318-431 668-436 220-3 359 75 476 182-27 35-48 75-79 105-60 21-86-37-135-56-109-71-336-85-474-24-190 83-310 257-310 526 0 268 114 444 301 527 146 65 383 42 487-33 24-17 50-36 75-59 20-19 44-22 62-2" id="bn"/><g id="E"><use transform="matrix(0.007777777777777776,0,0,0.007777777777777776,0,0)" xlink:href="#bn"/><use transform="matrix(0.007777777777777776,0,0,0.007777777777777776,10.655555555555553,0)" xlink:href="#af"/><use transform="matrix(0.007777777777777776,0,0,0.007777777777777776,14.637777777777774,0)" xlink:href="#aa"/></g><g id="F"><use transform="matrix(0.007777777777777776,0,0,0.007777777777777776,0,0)" xlink:href="#ab"/><use transform="matrix(0.007777777777777776,0,0,0.007777777777777776,11.713333333333331,0)" xlink:href="#aq"/><use transform="matrix(0.007777777777777776,0,0,0.007777777777777776,19.86444444444444,0)" xlink:href="#ao"/><use transform="matrix(0.007777777777777776,0,0,0.007777777777777776,23.846666666666664,0)" xlink:href="#ac"/><use transform="matrix(0.007777777777777776,0,0,0.007777777777777776,29.648888888888884,0)" xlink:href="#Z"/></g><g id="G"><use transform="matrix(0.007777777777777776,0,0,0.007777777777777776,0,0)" xlink:href="#au"/><use transform="matrix(0.007777777777777776,0,0,0.007777777777777776,9.037777777777775,0)" xlink:href="#ae"/><use transform="matrix(0.007777777777777776,0,0,0.007777777777777776,17.68666666666666,0)" xlink:href="#Y"/><use transform="matrix(0.007777777777777776,0,0,0.007777777777777776,26.335555555555548,0)" xlink:href="#an"/><use transform="matrix(0.007777777777777776,0,0,0.007777777777777776,34.984444444444435,0)" xlink:href="#ai"/><use transform="matrix(0.007777777777777776,0,0,0.007777777777777776,42.93333333333332,0)" xlink:href="#al"/></g><path fill="#3a414a" d="M593-1115c0-124-90-185-216-188-103-3-171 39-227 81-66 49-88-52-116-83 87-79 194-144 358-144 217 0 362 110 368 325 6 234-175 296-292 411-47 46-32 138-48 213H298c1-85-34-190 10-252 88-125 285-156 285-363zM354 15c-76 0-124-49-124-125s48-126 124-126 125 50 125 126c0 77-49 125-125 125" id="bo"/><g id="H"><use transform="matrix(0.007777777777777776,0,0,0.007777777777777776,0,0)" xlink:href="#ab"/><use transform="matrix(0.007777777777777776,0,0,0.007777777777777776,11.713333333333331,0)" xlink:href="#Z"/><use transform="matrix(0.007777777777777776,0,0,0.007777777777777776,19.599999999999994,0)" xlink:href="#ac"/><use transform="matrix(0.007777777777777776,0,0,0.007777777777777776,25.402222222222214,0)" xlink:href="#Z"/><use transform="matrix(0.007777777777777776,0,0,0.007777777777777776,33.28888888888888,0)" xlink:href="#bo"/></g><path fill="#3a414a" d="M895-142C799-8 539 62 344-21 173-94 74-262 74-507c0-317 160-522 477-522 151 0 254 54 333 132-21 26-39 58-63 81-42 20-68-19-100-34-42-20-91-42-160-40-219 6-304 160-304 383 0 220 82 376 295 383 106 4 169-38 223-84 22-19 53-21 70 1" id="bp"/><g id="I"><use transform="matrix(0.007777777777777776,0,0,0.007777777777777776,0,0)" xlink:href="#ag"/><use transform="matrix(0.007777777777777776,0,0,0.007777777777777776,8.244444444444442,0)" xlink:href="#aq"/><use transform="matrix(0.007777777777777776,0,0,0.007777777777777776,16.395555555555553,0)" xlink:href="#ao"/><use transform="matrix(0.007777777777777776,0,0,0.007777777777777776,20.377777777777773,0)" xlink:href="#aq"/><use transform="matrix(0.007777777777777776,0,0,0.007777777777777776,28.528888888888883,0)" xlink:href="#bp"/><use transform="matrix(0.007777777777777776,0,0,0.007777777777777776,35.79333333333332,0)" xlink:href="#ac"/></g><path fill="#3a414a" d="M18-1013h146c28-1 47 18 55 37l257 652c18 45 27 93 37 143 12-50 22-98 40-143l260-652c17-60 123-30 192-37L592 0H431" id="bq"/><g id="J"><use transform="matrix(0.007777777777777776,0,0,0.007777777777777776,0,0)" xlink:href="#ax"/><use transform="matrix(0.007777777777777776,0,0,0.007777777777777776,9.504444444444442,0)" xlink:href="#ah"/><use transform="matrix(0.007777777777777776,0,0,0.007777777777777776,15.77333333333333,0)" xlink:href="#aq"/><use transform="matrix(0.007777777777777776,0,0,0.007777777777777776,23.722222222222218,0)" xlink:href="#bq"/></g><g id="K"><use transform="matrix(0.007777777777777776,0,0,0.007777777777777776,0,0)" xlink:href="#ab"/><use transform="matrix(0.007777777777777776,0,0,0.007777777777777776,11.713333333333331,0)" xlink:href="#Y"/><use transform="matrix(0.007777777777777776,0,0,0.007777777777777776,20.36222222222222,0)" xlink:href="#ae"/><use transform="matrix(0.007777777777777776,0,0,0.007777777777777776,29.011111111111106,0)" xlink:href="#aq"/></g><path fill="#333" d="M789-562V0H520v-562L-7-1446h237c50 0 72 27 90 60 102 188 210 370 305 564 12 25 22 51 31 76 20-56 40-105 69-157l263-483c15-28 44-60 89-60h238" id="br"/><path fill="#333" d="M991-153C899-47 760 15 568 15 237 15 63-197 63-535c0-237 116-392 287-467 61-27 129-40 206-40 287 0 444 174 444 465 0 54-3 95-57 95H309c4 226 158 349 385 292 52-13 93-39 132-62 32-19 73-16 93 9zM778-631c-4-143-73-234-217-234-154 0-226 95-247 234h464" id="bs"/><path fill="#333" d="M254-198c95 60 334 64 323-83-9-119-156-122-253-159C192-490 72-550 72-729c0-214 163-309 387-313 145-3 264 55 338 127-26 36-45 82-77 111-69 21-111-33-176-48-103-23-247 0-238 102 11 114 156 118 251 155 126 49 251 100 251 270C808-59 575 48 294 6 192-9 106-54 42-110c28-39 43-95 83-120 49-31 96 11 129 32" id="bt"/><g id="L"><use transform="matrix(0.006666666666666666,0,0,0.006666666666666666,0,0)" xlink:href="#br"/><use transform="matrix(0.006666666666666666,0,0,0.006666666666666666,7.659999999999999,0)" xlink:href="#bs"/><use transform="matrix(0.006666666666666666,0,0,0.006666666666666666,14.786666666666665,0)" xlink:href="#bt"/></g><path fill="#333" d="M377-1009c4 38 6 82 6 121V0H146v-1446c71 6 174-24 211 20 269 320 519 661 779 990-5-42-7-87-7-131v-879h237V0c-64-4-144 10-192-10-14-6-28-19-41-36" id="bu"/><path fill="#333" d="M361-1005c121-49 297-49 417 0 184 74 298 236 298 490 0 330-178 530-506 530C241 15 61-185 61-515c0-254 115-416 300-490zm-45 492c0 201 65 338 254 338 188 0 251-137 251-338s-63-340-251-340c-189 0-254 139-254 340" id="bv"/><g id="M"><use transform="matrix(0.006666666666666666,0,0,0.006666666666666666,0,0)" xlink:href="#bu"/><use transform="matrix(0.006666666666666666,0,0,0.006666666666666666,10.08,0)" xlink:href="#bv"/></g><g id="N"><use transform="matrix(0.007777777777777776,0,0,0.007777777777777776,0,0)" xlink:href="#aw"/><use transform="matrix(0.007777777777777776,0,0,0.007777777777777776,8.804444444444442,0)" xlink:href="#af"/><use transform="matrix(0.007777777777777776,0,0,0.007777777777777776,12.786666666666664,0)" xlink:href="#ao"/><use transform="matrix(0.007777777777777776,0,0,0.007777777777777776,16.768888888888885,0)" xlink:href="#ac"/><use transform="matrix(0.007777777777777776,0,0,0.007777777777777776,22.571111111111104,0)" xlink:href="#aq"/><use transform="matrix(0.007777777777777776,0,0,0.007777777777777776,30.722222222222214,0)" xlink:href="#ah"/></g><g id="O"><use transform="matrix(0.007777777777777776,0,0,0.007777777777777776,0,0)" xlink:href="#X"/><use transform="matrix(0.007777777777777776,0,0,0.007777777777777776,7.995555555555554,0)" xlink:href="#Z"/><use transform="matrix(0.007777777777777776,0,0,0.007777777777777776,15.882222222222218,0)" xlink:href="#ac"/><use transform="matrix(0.007777777777777776,0,0,0.007777777777777776,21.684444444444438,0)" xlink:href="#aq"/><use transform="matrix(0.007777777777777776,0,0,0.007777777777777776,29.835555555555548,0)" xlink:href="#ak"/><use transform="matrix(0.007777777777777776,0,0,0.007777777777777776,36.58666666666666,0)" xlink:href="#ac"/></g><g id="P"><use transform="matrix(0.007777777777777776,0,0,0.007777777777777776,0,0)" xlink:href="#bn"/><use transform="matrix(0.007777777777777776,0,0,0.007777777777777776,10.655555555555553,0)" xlink:href="#Y"/><use transform="matrix(0.007777777777777776,0,0,0.007777777777777776,19.304444444444442,0)" xlink:href="#ao"/><use transform="matrix(0.007777777777777776,0,0,0.007777777777777776,23.28666666666666,0)" xlink:href="#Y"/><use transform="matrix(0.007777777777777776,0,0,0.007777777777777776,31.93555555555555,0)" xlink:href="#ah"/><use transform="matrix(0.007777777777777776,0,0,0.007777777777777776,38.204444444444434,0)" xlink:href="#au"/><use transform="matrix(0.007777777777777776,0,0,0.007777777777777776,47.24222222222221,0)" xlink:href="#bq"/><use transform="matrix(0.007777777777777776,0,0,0.007777777777777776,55.00444444444443,0)" xlink:href="#aq"/><use transform="matrix(0.007777777777777776,0,0,0.007777777777777776,63.15555555555554,0)" xlink:href="#ae"/><use transform="matrix(0.007777777777777776,0,0,0.007777777777777776,71.80444444444443,0)" xlink:href="#ac"/><use transform="matrix(0.007777777777777776,0,0,0.007777777777777776,77.60666666666665,0)" xlink:href="#ak"/></g><path fill="#3a414a" d="M353-563c7 250 130 409 378 409s377-159 377-408v-871h193v871c-5 275-133 450-332 535-136 58-340 59-476 0-200-85-333-259-333-535v-871h193v870" id="bw"/><g id="Q"><use transform="matrix(0.007777777777777776,0,0,0.007777777777777776,0,0)" xlink:href="#bw"/><use transform="matrix(0.007777777777777776,0,0,0.007777777777777776,11.355555555555553,0)" xlink:href="#ah"/><use transform="matrix(0.007777777777777776,0,0,0.007777777777777776,17.62444444444444,0)" xlink:href="#ao"/></g><path fill="#3a414a" d="M387-805c45-1 103 5 133-9 15-6 30-18 43-33l477-540c28-29 44-46 95-46h165L754-816c-26 27-46 49-79 65 43 14 65 39 93 72L1338 0c-92-7-205 17-256-41L587-610c-25-30-54-46-112-46h-88V0H194v-1433h193v628" id="bx"/><g id="R"><use transform="matrix(0.007777777777777776,0,0,0.007777777777777776,0,0)" xlink:href="#au"/><use transform="matrix(0.007777777777777776,0,0,0.007777777777777776,9.037777777777775,0)" xlink:href="#ae"/><use transform="matrix(0.007777777777777776,0,0,0.007777777777777776,17.68666666666666,0)" xlink:href="#aa"/><use transform="matrix(0.007777777777777776,0,0,0.007777777777777776,26.382222222222214,0)" xlink:href="#am"/><use transform="matrix(0.007777777777777776,0,0,0.007777777777777776,36.44666666666666,0)" xlink:href="#bx"/></g><path fill="#3a414a" d="M594-1317c-165 0-237 72-235 231v93h293v129H365V0H186v-861c-49-9-113-4-146-29-24-17-10-67-14-103h160v-98c5-229 120-363 348-363 45 0 87 7 126 20l-4 89c-2 31-28 28-62 28" id="by"/><g id="S"><use transform="matrix(0.007777777777777776,0,0,0.007777777777777776,0,0)" xlink:href="#Z"/><use transform="matrix(0.007777777777777776,0,0,0.007777777777777776,7.886666666666665,0)" xlink:href="#by"/><use transform="matrix(0.007777777777777776,0,0,0.007777777777777776,13.128888888888886,0)" xlink:href="#ac"/><use transform="matrix(0.007777777777777776,0,0,0.007777777777777776,18.931111111111107,0)" xlink:href="#aq"/><use transform="matrix(0.007777777777777776,0,0,0.007777777777777776,27.082222222222217,0)" xlink:href="#ah"/></g><g id="T"><use transform="matrix(0.007777777777777776,0,0,0.007777777777777776,0,0)" xlink:href="#ab"/><use transform="matrix(0.007777777777777776,0,0,0.007777777777777776,11.713333333333331,0)" xlink:href="#aq"/><use transform="matrix(0.007777777777777776,0,0,0.007777777777777776,19.86444444444444,0)" xlink:href="#ao"/><use transform="matrix(0.007777777777777776,0,0,0.007777777777777776,23.846666666666664,0)" xlink:href="#ac"/><use transform="matrix(0.007777777777777776,0,0,0.007777777777777776,29.648888888888884,0)" xlink:href="#Z"/><use transform="matrix(0.007777777777777776,0,0,0.007777777777777776,37.53555555555555,0)" xlink:href="#bo"/></g><path fill="#3a414a" d="M608 14c-142 0-221-61-286-144-9 50 6 130-55 130H152v-1473h179v606c78-87 176-162 331-162 283 0 384 222 384 516 0 237-93 406-254 487-54 27-116 40-184 40zm254-527c-2-212-53-374-258-374-136 0-207 69-273 153v490c56 77 120 120 237 120 208 0 296-164 294-389" id="bz"/><g id="U"><use transform="matrix(0.007777777777777776,0,0,0.007777777777777776,0,0)" xlink:href="#bz"/><use transform="matrix(0.007777777777777776,0,0,0.007777777777777776,8.695555555555554,0)" xlink:href="#aq"/><use transform="matrix(0.007777777777777776,0,0,0.007777777777777776,16.846666666666664,0)" xlink:href="#by"/><use transform="matrix(0.007777777777777776,0,0,0.007777777777777776,22.088888888888885,0)" xlink:href="#Y"/><use transform="matrix(0.007777777777777776,0,0,0.007777777777777776,30.737777777777772,0)" xlink:href="#ah"/><use transform="matrix(0.007777777777777776,0,0,0.007777777777777776,37.00666666666666,0)" xlink:href="#aq"/></g><g id="V"><use transform="matrix(0.007777777777777776,0,0,0.007777777777777776,0,0)" xlink:href="#aw"/><use transform="matrix(0.007777777777777776,0,0,0.007777777777777776,8.804444444444442,0)" xlink:href="#Z"/><use transform="matrix(0.007777777777777776,0,0,0.007777777777777776,16.691111111111105,0)" xlink:href="#af"/><use transform="matrix(0.007777777777777776,0,0,0.007777777777777776,20.673333333333325,0)" xlink:href="#ao"/></g><g id="W"><use transform="matrix(0.005555555555555556,0,0,0.005555555555555556,0,0)" xlink:href="#br"/><use transform="matrix(0.005555555555555556,0,0,0.005555555555555556,6.383333333333332,0)" xlink:href="#bs"/><use transform="matrix(0.005555555555555556,0,0,0.005555555555555556,12.322222222222223,0)" xlink:href="#bt"/></g></defs></g></svg>