<svg xmlns="http://www.w3.org/2000/svg" xmlns:xlink="http://www.w3.org/1999/xlink" xmlns:lucid="lucid" width="1504" height="1099"><g transform="translate(-60 -49.33333333333334)" lucid:page-tab-id="0_0"><path d="M0 0h1870.87v1322.83H0z" fill="#fff"/><path d="M140 239.08a6 6 0 0 1 6-6h148a6 6 0 0 1 6 6v48a6 6 0 0 1-6 6H146a6 6 0 0 1-6-6z" stroke="#3a414a" fill="#fff"/><use xlink:href="#a" transform="matrix(1,0,0,1,152,245.0839895013122) translate(18.544444444444437 26.433333333333334)"/><use xlink:href="#b" transform="matrix(1,0,0,1,152,245.0839895013122) translate(69.9 26.433333333333334)"/><path d="M140 356.42a6 6 0 0 1 6-6h148a6 6 0 0 1 6 6v65.33a6 6 0 0 1-6 6H146a6 6 0 0 1-6-6z" stroke="#3a414a" fill="#fff"/><use xlink:href="#c" transform="matrix(1,0,0,1,152,362.4173228346455) translate(10.288888888888877 21.933333333333334)"/><use xlink:href="#d" transform="matrix(1,0,0,1,152,362.4173228346455) translate(47.73333333333333 21.933333333333334)"/><use xlink:href="#e" transform="matrix(1,0,0,1,152,362.4173228346455) translate(22.84444444444444 48.6)"/><path d="M140 546a6 6 0 0 1 6-6h148a6 6 0 0 1 6 6v65.33a6 6 0 0 1-6 6H146a6 6 0 0 1-6-6z" stroke="#3a414a" fill="#fff"/><use xlink:href="#f" transform="matrix(1,0,0,1,152,552) translate(3.86666666666666 21.933333333333334)"/><use xlink:href="#g" transform="matrix(1,0,0,1,152,552) translate(58.68888888888889 21.933333333333334)"/><use xlink:href="#h" transform="matrix(1,0,0,1,152,552) translate(25.96666666666666 48.6)"/><path d="M140 1074.08a6 6 0 0 1 6-6h148a6 6 0 0 1 6 6v48a6 6 0 0 1-6 6H146a6 6 0 0 1-6-6z" stroke="#3a414a" fill="#fff"/><use xlink:href="#i" transform="matrix(1,0,0,1,152,1080.083989501312) translate(48.95555555555555 26.433333333333334)"/><path d="M140 874.7a6 6 0 0 1 6-6h148a6 6 0 0 1 6 6V993.4a6 6 0 0 1-6 6H146a6 6 0 0 1-6-6z" stroke="#3a414a" fill="#fff"/><use xlink:href="#j" transform="matrix(1,0,0,1,152,880.7086614173227) translate(27.111111111111114 21.933333333333334)"/><use xlink:href="#k" transform="matrix(1,0,0,1,152,880.7086614173227) translate(31.77777777777778 48.6)"/><use xlink:href="#l" transform="matrix(1,0,0,1,152,880.7086614173227) translate(20.28888888888889 75.26666666666667)"/><use xlink:href="#m" transform="matrix(1,0,0,1,152,880.7086614173227) translate(22.766666666666666 101.93333333333334)"/><path d="M140 746a6 6 0 0 1 6-6h148a6 6 0 0 1 6 6v48a6 6 0 0 1-6 6H146a6 6 0 0 1-6-6z" stroke="#3a414a" fill="#fff"/><use xlink:href="#n" transform="matrix(1,0,0,1,152,752) translate(40.92222222222222 26.433333333333334)"/><path d="M220 294.05v39.52" stroke="#3a414a" fill="none"/><path d="M220.5 294.06h-1v-.5h1z" stroke="#3a414a" stroke-width=".05" fill="#3a414a"/><path d="M220 348.34l-4.64-14.27h9.28z" stroke="#3a414a" fill="#3a414a"/><path d="M220.5 523.15h-1v-33.8h1zm0-60.48h-1V428.7h1z" stroke="#3a414a" stroke-width=".05" fill="#3a414a"/><path d="M220.5 428.73h-1v-.52h1z" fill="#3a414a"/><path d="M220.53 428.75h-1.06v-.56h1.06zm-1-.5v.45h.94v-.46z" stroke="#3a414a" stroke-width=".05" fill="#3a414a"/><path d="M220 537.92l-4.64-14.27h9.28z" fill="#3a414a"/><path d="M220 539.54l-5.32-16.4h10.64zm-3.95-15.4L220 536.3l3.95-12.15z" stroke="#3a414a" stroke-width=".05" fill="#3a414a"/><use xlink:href="#o" transform="matrix(1,0,0,1,116.41666666666666,462.6708362296236) translate(0 21.933333333333334)"/><use xlink:href="#p" transform="matrix(1,0,0,1,116.41666666666666,462.6708362296236) translate(143.75555555555556 21.933333333333334)"/><use xlink:href="#q" transform="matrix(1,0,0,1,116.41666666666666,462.6708362296236) translate(167.02222222222224 21.933333333333334)"/><path d="M220.5 723.15h-1v-38.33h1zm0-65h-1V618.3h1z" stroke="#3a414a" stroke-width=".05" fill="#3a414a"/><path d="M220.5 618.3h-1v-.5h1z" fill="#3a414a"/><path d="M220.53 618.33h-1.06v-.56h1.06zm-1-.5v.45h.94v-.46z" stroke="#3a414a" stroke-width=".05" fill="#3a414a"/><path d="M220 737.92l-4.64-14.27h9.28z" fill="#3a414a"/><path d="M220 739.54l-5.32-16.4h10.64zm-3.95-15.4L220 736.3l3.95-12.15z" stroke="#3a414a" stroke-width=".05" fill="#3a414a"/><use xlink:href="#r" transform="matrix(1,0,0,1,120.90000000000012,658.153858019405) translate(0 21.933333333333334)"/><use xlink:href="#p" transform="matrix(1,0,0,1,120.90000000000012,658.153858019405) translate(134.7888888888889 21.933333333333334)"/><use xlink:href="#q" transform="matrix(1,0,0,1,120.90000000000012,658.153858019405) translate(158.05555555555554 21.933333333333334)"/><path d="M220 800.96v50.9" stroke="#3a414a" fill="none"/><path d="M220.5 800.98h-1v-.52h1z" stroke="#3a414a" stroke-width=".05" fill="#3a414a"/><path d="M220 866.63l-4.64-14.27h9.28z" stroke="#3a414a" fill="#3a414a"/><path d="M220 1000.34v50.9" stroke="#3a414a" fill="none"/><path d="M220.5 1000.35h-1v-.5h1z" stroke="#3a414a" stroke-width=".05" fill="#3a414a"/><path d="M220 1066l-4.64-14.26h9.28z" stroke="#3a414a" fill="#3a414a"/><path d="M80 75.33a6 6 0 0 1 6-6h268a6 6 0 0 1 6 6v94a6 6 0 0 1-6 6H86a6 6 0 0 1-6-6z" stroke="#000" stroke-opacity="0" fill="#fff" fill-opacity="0"/><use xlink:href="#s" transform="matrix(1,0,0,1,85,74.33333333333334) translate(53.86 39.48)"/><use xlink:href="#t" transform="matrix(1,0,0,1,85,74.33333333333334) translate(65.25 87.47999999999999)"/><path d="M880 75.33a6 6 0 0 1 6-6h208a6 6 0 0 1 6 6V148a6 6 0 0 1-6 6H886a6 6 0 0 1-6-6z" stroke="#000" stroke-opacity="0" fill="#fff" fill-opacity="0"/><use xlink:href="#u" transform="matrix(1,0,0,1,885,74.33333333333334) translate(34.46333333333335 30.706666666666656)"/><use xlink:href="#v" transform="matrix(1,0,0,1,885,74.33333333333334) translate(107.66777777777779 30.706666666666656)"/><use xlink:href="#w" transform="matrix(1,0,0,1,885,74.33333333333334) translate(50.75000000000002 68.03999999999998)"/><path d="M300.96 263.08h5.17m5.17 0h10.34m5.17 0h10.34m5.17 0h10.35m5.17 0h10.34m5.17 0h10.33m5.17 0H394l.94-.07.9-.2.88-.37.8-.5.72-.6.6-.72.5-.8.37-.86.23-.92v-5.2m0-5.2v-10.4m0-5.2l.02-10.4m0-5.18v-10.4m0-5.2v-10.4m0-5.2l.02-10.4m0-5.2v-10.4m0-5.18l.02-10.4m0-5.2v-10.4m0-5.2v-5.2l.07-.93.22-.92.35-.86.5-.8.6-.72.72-.6.8-.5.88-.36.9-.22H410m4.92 0h9.87m4.92 0h9.86m4.93 0h9.87m4.93 0h9.87m4.93 0h9.86m4.93 0h9.85m4.93-.02h9.87m4.93 0h9.86m4.93 0h9.86m4.93 0h9.87m4.93 0h9.86m4.93 0h9.86m4.94 0h9.86m4.94 0h9.86m4.93 0l9.86-.02m4.92 0h9.86m4.94 0h9.86m4.93 0h9.87m4.93 0h9.86m4.94 0h9.86m4.93 0h9.85m4.93 0h9.86m4.94 0l9.86-.02m4.93 0h9.86m4.93 0h9.86m4.94 0h9.86m4.93 0h9.86m4.94 0h9.86m4.94 0H839m4.93 0h9.86m4.92 0h4.93" stroke="#979ea8" fill="none"/><path d="M300.98 263.58h-.52v-1h.52z" stroke="#979ea8" stroke-width=".05" fill="#979ea8"/><path d="M878.42 111.67l-14.27 4.63v-9.27z" stroke="#979ea8" fill="#979ea8"/><path d="M538.1 166a6 6 0 0 1 6-6h222.67a6 6 0 0 1 6 6v62a6 6 0 0 1-6 6H544.1a6 6 0 0 1-6-6z" stroke="#000" stroke-opacity="0" fill="#fff" fill-opacity="0"/><use xlink:href="#x" transform="matrix(1,0,0,1,543.0997375328083,165) translate(39.040000000000006 26.319999999999997)"/><use xlink:href="#y" transform="matrix(1,0,0,1,543.0997375328083,165) translate(101.78666666666666 26.319999999999997)"/><use xlink:href="#z" transform="matrix(1,0,0,1,543.0997375328083,165) translate(58.40666666666667 58.31999999999999)"/><path d="M1180 166a6 6 0 0 1 6-6h222.67a6 6 0 0 1 6 6v62a6 6 0 0 1-6 6H1186a6 6 0 0 1-6-6z" stroke="#000" stroke-opacity="0" fill="#fff" fill-opacity="0"/><use xlink:href="#x" transform="matrix(1,0,0,1,1185,165) translate(46.84 26.319999999999997)"/><use xlink:href="#A" transform="matrix(1,0,0,1,1185,165) translate(109.58666666666667 26.319999999999997)"/><use xlink:href="#z" transform="matrix(1,0,0,1,1185,165) translate(58.40666666666667 58.31999999999999)"/><path d="M575.43 420.8a6 6 0 0 1 6-6h148a6 6 0 0 1 6 6v65.35a6 6 0 0 1-6 6h-148a6 6 0 0 1-6-6z" stroke="#3a414a" fill="#fff"/><use xlink:href="#B" transform="matrix(1,0,0,1,587.4330708661416,426.8126640419947) translate(17.45555555555555 21.933333333333334)"/><use xlink:href="#C" transform="matrix(1,0,0,1,587.4330708661416,426.8126640419947) translate(57.98888888888889 21.933333333333334)"/><use xlink:href="#D" transform="matrix(1,0,0,1,587.4330708661416,426.8126640419947) translate(22.377777777777773 48.6)"/><use xlink:href="#E" transform="matrix(1,0,0,1,587.4330708661416,426.8126640419947) translate(80.28888888888889 48.6)"/><path d="M575.43 575.63a6 6 0 0 1 6-6h148a6 6 0 0 1 6 6v65.33a6 6 0 0 1-6 6h-148a6 6 0 0 1-6-6z" stroke="#3a414a" fill="#fff"/><use xlink:href="#B" transform="matrix(1,0,0,1,587.4330708661416,581.6253280839894) translate(17.45555555555555 21.933333333333334)"/><use xlink:href="#C" transform="matrix(1,0,0,1,587.4330708661416,581.6253280839894) translate(57.98888888888889 21.933333333333334)"/><use xlink:href="#F" transform="matrix(1,0,0,1,587.4330708661416,581.6253280839894) translate(41.18888888888888 48.6)"/><path d="M650.63 732.85a8 8 0 0 1 9.6 0l70.4 52.8a4.5 4.5 0 0 1 0 7.2l-70.4 52.8a8 8 0 0 1-9.6 0l-70.4-52.8a4.5 4.5 0 0 1 0-7.2z" stroke="#3a414a" fill="#fff"/><use xlink:href="#G" transform="matrix(1,0,0,1,580.4330708661416,734.2506561679788) translate(38.160555555555554 49.43333333333334)"/><use xlink:href="#H" transform="matrix(1,0,0,1,580.4330708661416,734.2506561679788) translate(46.80499999999999 76.10000000000001)"/><path d="M423 947.17a6 6 0 0 1 6-6h168a6 6 0 0 1 6 6v65.33a6 6 0 0 1-6 6H429a6 6 0 0 1-6-6z" stroke="#3a414a" fill="#fff"/><use xlink:href="#I" transform="matrix(1,0,0,1,435,953.1679790026244) translate(7.155555555555537 21.933333333333334)"/><use xlink:href="#d" transform="matrix(1,0,0,1,435,953.1679790026244) translate(70.86666666666666 21.933333333333334)"/><use xlink:href="#e" transform="matrix(1,0,0,1,435,953.1679790026244) translate(32.84444444444444 48.6)"/><path d="M720 947.17a6 6 0 0 1 6-6h148a6 6 0 0 1 6 6v65.33a6 6 0 0 1-6 6H726a6 6 0 0 1-6-6z" stroke="#3a414a" fill="#fff"/><use xlink:href="#B" transform="matrix(1,0,0,1,732,953.1679790026244) translate(25.099999999999994 21.933333333333334)"/><use xlink:href="#J" transform="matrix(1,0,0,1,732,953.1679790026244) translate(65.63333333333333 21.933333333333334)"/><use xlink:href="#F" transform="matrix(1,0,0,1,732,953.1679790026244) translate(41.18888888888888 48.6)"/><path d="M561 1068.08c17.67 0 32 13.44 32 30 0 16.57-14.33 30-32 30h-96c-17.67 0-32-13.43-32-30 0-16.56 14.33-30 32-30z" stroke="#3a414a" fill="#fff"/><use xlink:href="#K" transform="matrix(1,0,0,1,438,1073.083989501312) translate(48.455555555555556 34.43333333333334)"/><path d="M655.43 493.1v59.68" stroke="#3a414a" fill="none"/><path d="M655.93 493.12h-1v-.5h1z" stroke="#3a414a" stroke-width=".05" fill="#3a414a"/><path d="M655.43 567.54l-4.63-14.26h9.27z" stroke="#3a414a" fill="#3a414a"/><path d="M655.43 647.92v66.45" stroke="#3a414a" fill="none"/><path d="M655.93 647.93h-1v-.5h1z" stroke="#3a414a" stroke-width=".05" fill="#3a414a"/><path d="M655.43 729.13l-4.63-14.26h9.27z" stroke="#3a414a" fill="#3a414a"/><path d="M513.5 924.32h-1l.03-56.7h1zm63.93-134.57h-58.4l-.9.07-.83.2-.8.33-.73.45-.66.56-.55.66-.45.73-.33.8-.2.82-.03 51.92h-1l.03-52.05.25-1 .4-.95.52-.87.66-.78.78-.66.87-.54.94-.4.98-.23 1-.08h58.45z" stroke="#3a414a" stroke-width=".05" fill="#3a414a"/><path d="M577.93 789.25l.05.5h-.56v-1h.56z" fill="#3a414a"/><path d="M577.96 789.25l.04.53h-.6v-1.05h.6zm-.52-.47v.95h.5l-.03-.48.05-.47z" stroke="#3a414a" stroke-width=".05" fill="#3a414a"/><path d="M513 939.1l-4.64-14.28h9.28z" fill="#3a414a"/><path d="M513 940.7l-5.32-16.38h10.64zm-3.95-15.38l3.95 12.15 3.95-12.15z" stroke="#3a414a" stroke-width=".05" fill="#3a414a"/><use xlink:href="#L" transform="matrix(1,0,0,1,499.2577777777778,846.292740661729) translate(0 17.546666666666667)"/><path d="M513 1019.46v31.74" stroke="#3a414a" fill="none"/><path d="M513.5 1019.48h-1v-.52h1z" stroke="#3a414a" stroke-width=".05" fill="#3a414a"/><path d="M513 1065.97l-4.64-14.27h9.28z" stroke="#3a414a" fill="#3a414a"/><path d="M800.5 924.32h-1l-.03-56.08h1zm-5.48-135.5l1 .25.93.4.87.52.78.65.66.78.53.87.38.94.25 1 .03 52.66h-1l-.03-52.53-.2-.82-.33-.8-.45-.73-.56-.66-.67-.56-.73-.45-.8-.33-.84-.2-.88-.07h-60.54v-1h60.58z" stroke="#3a414a" stroke-width=".05" fill="#3a414a"/><path d="M733.45 789.75h-.56l.04-.5-.05-.5h.55z" fill="#3a414a"/><path d="M733.47 789.78h-.6l.04-.53-.04-.52h.6zm-.55-1l.04.47-.04.48h.5v-.95z" stroke="#3a414a" stroke-width=".05" fill="#3a414a"/><path d="M800 939.1l-4.64-14.28h9.28z" fill="#3a414a"/><path d="M800 940.7l-5.32-16.38h10.64zm-3.95-15.38l3.95 12.15 3.95-12.15z" stroke="#3a414a" stroke-width=".05" fill="#3a414a"/><use xlink:href="#M" transform="matrix(1,0,0,1,788.2266666666667,846.9034192450634) translate(0 17.546666666666667)"/><path d="M719.04 979.83h-57.6a6 6 0 0 1-6-6v-109.7" stroke="#3a414a" fill="none"/><path d="M719.54 980.33h-.52v-1h.52z" stroke="#3a414a" stroke-width=".05" fill="#3a414a"/><path d="M655.43 849.37l4.64 14.27h-9.27z" stroke="#3a414a" fill="#3a414a"/><path d="M575.43 266a6 6 0 0 1 6-6h148a6 6 0 0 1 6 6v65.33a6 6 0 0 1-6 6h-148a6 6 0 0 1-6-6z" stroke="#3a414a" fill="#fff"/><use xlink:href="#N" transform="matrix(1,0,0,1,587.4330708661416,272) translate(9.155555555555551 21.933333333333334)"/><use xlink:href="#C" transform="matrix(1,0,0,1,587.4330708661416,272) translate(66.28888888888889 21.933333333333334)"/><use xlink:href="#O" transform="matrix(1,0,0,1,587.4330708661416,272) translate(7.744444444444447 48.6)"/><path d="M655.43 338.3v59.67" stroke="#3a414a" fill="none"/><path d="M655.93 338.3h-1v-.5h1z" stroke="#3a414a" stroke-width=".05" fill="#3a414a"/><path d="M655.43 412.73l-4.63-14.26h9.27z" stroke="#3a414a" fill="#3a414a"/><path d="M1225.43 266a6 6 0 0 1 6-6h148a6 6 0 0 1 6 6v48.33a6 6 0 0 1-6 6h-148a6 6 0 0 1-6-6z" stroke="#3a414a" fill="#fff"/><use xlink:href="#B" transform="matrix(1,0,0,1,1237.4330708661419,272) translate(13.48888888888888 26.558333333333334)"/><use xlink:href="#P" transform="matrix(1,0,0,1,1237.4330708661419,272) translate(54.02222222222222 26.558333333333334)"/><use xlink:href="#E" transform="matrix(1,0,0,1,1237.4330708661419,272) translate(89.17777777777778 26.558333333333334)"/><path d="M1225.43 365a6 6 0 0 1 6-6h148a6 6 0 0 1 6 6v48.33a6 6 0 0 1-6 6h-148a6 6 0 0 1-6-6z" stroke="#3a414a" fill="#fff"/><use xlink:href="#B" transform="matrix(1,0,0,1,1237.4330708661419,371) translate(20.922222222222217 26.558333333333334)"/><use xlink:href="#F" transform="matrix(1,0,0,1,1237.4330708661419,371) translate(61.455555555555556 26.558333333333334)"/><path d="M1305.43 321.3v20.85" stroke="#3a414a" fill="none"/><path d="M1305.93 321.3h-1v-.5h1z" stroke="#3a414a" stroke-width=".05" fill="#3a414a"/><path d="M1305.43 356.92l-4.63-14.27h9.27z" stroke="#3a414a" fill="#3a414a"/><path d="M1300.63 623.6a8 8 0 0 1 9.6 0l70.4 52.8a4.5 4.5 0 0 1 0 7.2l-70.4 52.8a8 8 0 0 1-9.6 0l-70.4-52.8a4.5 4.5 0 0 1 0-7.2z" stroke="#3a414a" fill="#fff"/><use xlink:href="#Q" transform="matrix(1,0,0,1,1230.4330708661419,625) translate(41.4 36.93333333333334)"/><use xlink:href="#R" transform="matrix(1,0,0,1,1230.4330708661419,625) translate(51.17777777777778 63.60000000000001)"/><use xlink:href="#S" transform="matrix(1,0,0,1,1230.4330708661419,625) translate(43.766666666666666 90.26666666666668)"/><path d="M1299.2 823.6a8 8 0 0 1 9.6 0l70.4 52.8a4.5 4.5 0 0 1 0 7.2l-70.4 52.8a8 8 0 0 1-9.6 0l-70.4-52.8a4.5 4.5 0 0 1 0-7.2z" stroke="#3a414a" fill="#fff"/><use xlink:href="#G" transform="matrix(1,0,0,1,1229,825) translate(38.160555555555554 49.43333333333334)"/><use xlink:href="#H" transform="matrix(1,0,0,1,1229,825) translate(46.80499999999999 76.10000000000001)"/><path d="M1064 947.17a6 6 0 0 1 6-6h168a6 6 0 0 1 6 6v65.33a6 6 0 0 1-6 6h-168a6 6 0 0 1-6-6z" stroke="#3a414a" fill="#fff"/><use xlink:href="#I" transform="matrix(1,0,0,1,1076,953.1679790026244) translate(7.155555555555537 21.933333333333334)"/><use xlink:href="#d" transform="matrix(1,0,0,1,1076,953.1679790026244) translate(70.86666666666666 21.933333333333334)"/><use xlink:href="#e" transform="matrix(1,0,0,1,1076,953.1679790026244) translate(32.84444444444444 48.6)"/><path d="M1202 1068.34c17.67 0 32 13.43 32 30 0 16.56-14.33 30-32 30h-96c-17.67 0-32-13.44-32-30 0-16.57 14.33-30 32-30z" stroke="#3a414a" fill="#fff"/><use xlink:href="#K" transform="matrix(1,0,0,1,1079,1073.3359580052484) translate(48.455555555555556 34.43333333333334)"/><path d="M988 719.67a6 6 0 0 1 6-6h148a6 6 0 0 1 6 6V785a6 6 0 0 1-6 6H994a6 6 0 0 1-6-6z" stroke="#3a414a" fill="#fff"/><use xlink:href="#T" transform="matrix(1,0,0,1,1000,725.6666666666666) translate(41.577777777777776 21.933333333333334)"/><use xlink:href="#O" transform="matrix(1,0,0,1,1000,725.6666666666666) translate(7.744444444444447 48.6)"/><path d="M1304.5 805.12h-1v-19.04h1zm1.43-40.38h-1V739h1z" stroke="#3a414a" stroke-width=".05" fill="#3a414a"/><path d="M1305.43 738.5l.5-.03v.54h-1v-.53z" fill="#3a414a"/><path d="M1305.43 738.48l.53-.04v.6h-1.05v-.6zm-.47.5h.95v-.48l-.47.03-.47-.03z" stroke="#3a414a" stroke-width=".05" fill="#3a414a"/><path d="M1304 819.88l-4.64-14.26h9.28z" fill="#3a414a"/><path d="M1304 821.5l-5.32-16.38h10.64zm-3.95-15.38l3.95 12.14 3.95-12.14z" stroke="#3a414a" stroke-width=".05" fill="#3a414a"/><use xlink:href="#M" transform="matrix(1,0,0,1,1293.6597375328085,764.7428826555284) translate(0 17.546666666666667)"/><path d="M1144.98 680.5h-70.96l-.88.07-.84.2-.8.33-.73.45-.66.56-.55.67-.45.73-.33.8-.2.82-.07 11.7h-1l.07-11.82.25-1 .4-.95.52-.87.66-.78.78-.66.87-.53.94-.38.98-.24 1-.08h71zm82.45 0h-54.96v-1h54.96z" stroke="#3a414a" stroke-width=".05" fill="#3a414a"/><path d="M1227.93 680l.05.5h-.56v-1h.56z" fill="#3a414a"/><path d="M1227.96 680l.04.52h-.6v-1.04h.6zm-.52-.48v.96h.5l-.03-.48.05-.48z" stroke="#3a414a" stroke-width=".05" fill="#3a414a"/><path d="M1068 711.6l-4.64-14.28h9.28z" fill="#3a414a"/><path d="M1068 713.2l-5.32-16.38h10.64zm-3.95-15.38l3.95 12.15 3.95-12.15z" stroke="#3a414a" stroke-width=".05" fill="#3a414a"/><use xlink:href="#L" transform="matrix(1,0,0,1,1144.9828095218377,669.3333333333334) translate(0 17.546666666666667)"/><path d="M1154.5 924.32h-1l.06-31h1zm71.5-43.82h-58.26v-1H1226z" stroke="#3a414a" stroke-width=".05" fill="#3a414a"/><path d="M1226.5 880l.04.5h-.55v-1h.54z" fill="#3a414a"/><path d="M1226.52 880l.05.52h-.6v-1.04h.6zm-.5-.48v.96h.5l-.05-.48.05-.48z" stroke="#3a414a" stroke-width=".05" fill="#3a414a"/><path d="M1154 939.1l-4.64-14.28h9.28z" fill="#3a414a"/><path d="M1154 940.7l-5.32-16.38h10.64zm-3.95-15.38l3.95 12.15 3.95-12.15z" stroke="#3a414a" stroke-width=".05" fill="#3a414a"/><use xlink:href="#L" transform="matrix(1,0,0,1,1140.2577777777778,872.0000000000001) translate(0 17.546666666666667)"/><path d="M1154 1019.46v32" stroke="#3a414a" fill="none"/><path d="M1154.5 1019.48h-1v-.52h1z" stroke="#3a414a" stroke-width=".05" fill="#3a414a"/><path d="M1154 1066.22l-4.64-14.27h9.28z" stroke="#3a414a" fill="#3a414a"/><path d="M1384 947.17a6 6 0 0 1 6-6h148a6 6 0 0 1 6 6v65.33a6 6 0 0 1-6 6h-148a6 6 0 0 1-6-6z" stroke="#3a414a" fill="#fff"/><use xlink:href="#B" transform="matrix(1,0,0,1,1396,953.1679790026244) translate(25.099999999999994 21.933333333333334)"/><use xlink:href="#J" transform="matrix(1,0,0,1,1396,953.1679790026244) translate(65.63333333333333 21.933333333333334)"/><use xlink:href="#F" transform="matrix(1,0,0,1,1396,953.1679790026244) translate(41.18888888888888 48.6)"/><path d="M1461.54 924.32h-1l-.06-33.65h1zM1382 880.5v-1h66.9v1z" stroke="#3a414a" stroke-width=".05" fill="#3a414a"/><path d="M1382 880.5h-.54l.04-.5-.04-.5h.55z" fill="#3a414a"/><path d="M1382.04 880.52h-.6l.04-.52-.05-.52h.6zm-.56-1l.05.48-.05.48h.5v-.96z" stroke="#3a414a" stroke-width=".05" fill="#3a414a"/><path d="M1461.04 939.1l-4.63-14.28h9.28z" fill="#3a414a"/><path d="M1461.04 940.7l-5.32-16.38h10.64zm-3.95-15.38l3.94 12.15 3.95-12.15z" stroke="#3a414a" stroke-width=".05" fill="#3a414a"/><g><use xlink:href="#M" transform="matrix(1,0,0,1,1448.8933333333337,869.3333333333334) translate(0 17.546666666666667)"/></g><path d="M1300.63 459.6a8 8 0 0 1 9.6 0l70.4 52.8a4.5 4.5 0 0 1 0 7.2l-70.4 52.8a8 8 0 0 1-9.6 0l-70.4-52.8a4.5 4.5 0 0 1 0-7.2z" stroke="#3a414a" fill="#fff"/><g><use xlink:href="#Q" transform="matrix(1,0,0,1,1230.4330708661419,461) translate(41.4 36.93333333333334)"/><use xlink:href="#U" transform="matrix(1,0,0,1,1230.4330708661419,461) translate(42.74444444444444 63.60000000000001)"/><use xlink:href="#S" transform="matrix(1,0,0,1,1230.4330708661419,461) translate(43.766666666666666 90.26666666666668)"/></g><path d="M1305.43 420.3v20.82" stroke="#3a414a" fill="none"/><path d="M1305.93 420.3h-1v-.5h1z" stroke="#3a414a" stroke-width=".05" fill="#3a414a"/><path d="M1305.43 455.88l-4.63-14.26h9.27z" stroke="#3a414a" fill="#3a414a"/><path d="M1305.93 605.12h-1v-4.4h1zm0-25.72h-1V575h1z" stroke="#3a414a" stroke-width=".05" fill="#3a414a"/><path d="M1305.43 574.5l.5-.03v.54h-1v-.53z" fill="#3a414a"/><path d="M1305.43 574.48l.53-.04v.6h-1.05v-.6zm-.47.5h.95v-.48l-.47.03-.47-.03z" stroke="#3a414a" stroke-width=".05" fill="#3a414a"/><path d="M1305.43 619.88l-4.63-14.26h9.27z" fill="#3a414a"/><path d="M1305.43 621.5l-5.32-16.38h10.66zm-3.94-15.38l3.93 12.14 3.95-12.14z" stroke="#3a414a" stroke-width=".05" fill="#3a414a"/><g><use xlink:href="#M" transform="matrix(1,0,0,1,1293.6597375328085,579.3997249590433) translate(0 17.546666666666667)"/></g><path d="M1116 550.33c17.67 0 32 13.43 32 30s-14.33 30-32 30h-96c-17.67 0-32-13.43-32-30s14.33-30 32-30z" stroke="#3a414a" fill="#fff"/><g><use xlink:href="#V" transform="matrix(1,0,0,1,993,555.3333333333334) translate(57.388888888888886 34.43333333333334)"/></g><path d="M1383.04 979.83H1310a6 6 0 0 1-6-6v-18.95" stroke="#3a414a" fill="none"/><path d="M1383.54 980.33h-.52v-1h.52z" stroke="#3a414a" stroke-width=".05" fill="#3a414a"/><path d="M1304 940.12l4.64 14.26h-9.28z" stroke="#3a414a" fill="#3a414a"/><path d="M989.5 154.06l-4.77.95m-4.78.95l-9.56 1.9m-4.78.94l-9.56 1.9m-4.78.93l-9.56 1.9m-4.78.94l-9.55 1.9m-4.8.94l-9.55 1.9m-4.78.95l-9.56 1.9m-4.77.94l-9.55 1.9m-4.78.93l-9.56 1.9m-4.78.94l-9.56 1.9m-4.77.94l-9.56 1.9m-4.78.95l-9.57 1.9m-4.78.94l-9.55 1.88m-4.78.95l-9.56 1.9m-4.78.94l-4.78.95" stroke="#979ea8" fill="none"/><path d="M989.6 154.55l-.12-.6h3.1z" stroke="#979ea8" stroke-width=".05" fill="#979ea8"/><path d="M774.32 196.7l13.1-7.33 1.8 9.1z" stroke="#979ea8" fill="#979ea8"/><path d="M990.5 154.07l4.8 1.1m4.83 1.1l9.64 2.17m4.82 1.1l9.64 2.18m4.82 1.1l9.64 2.17m4.82 1.08l9.65 2.2m4.82 1.08l9.63 2.18m4.82 1.1l9.64 2.18m4.82 1.1l9.64 2.17m4.82 1.1l9.64 2.17m4.82 1.1l9.65 2.18m4.8 1.1l9.65 2.17m4.82 1.1l9.64 2.18m4.84 1.1l4.82 1.08" stroke="#979ea8" fill="none"/><path d="M990.4 154.56l-2.66-.6h2.8z" stroke="#979ea8" stroke-width=".05" fill="#979ea8"/><path d="M1178.46 196.64l-14.94 1.37 2.05-9.03z" stroke="#979ea8" fill="#979ea8"/><path d="M1142.26 516.5h-59.8l-.9.07-.83.2-.8.33-.73.45-.66.56-.56.67-.45.73-.33.8-.2.82-.07 12.33h-1L1076 521l.25-1 .4-.95.52-.87.66-.78.78-.66.88-.53.94-.38 1-.24 1-.08h59.84zm85.17 0h-57.7v-1h57.7z" stroke="#3a414a" stroke-width=".05" fill="#3a414a"/><path d="M1227.93 516l.05.5h-.56v-1h.56z" fill="#3a414a"/><path d="M1227.96 516l.04.52h-.6v-1.04h.6zm-.52-.48v.96h.5l-.03-.48.05-.48z" stroke="#3a414a" stroke-width=".05" fill="#3a414a"/><path d="M1076.43 548.22l-4.63-14.27h9.27z" fill="#3a414a"/><path d="M1076.43 549.83l-5.32-16.38h10.65zm-3.95-15.38l3.95 12.15 3.95-12.15z" stroke="#3a414a" stroke-width=".05" fill="#3a414a"/><g><use xlink:href="#L" transform="matrix(1,0,0,1,1142.257777777778,505.3333333333333) translate(0 17.546666666666667)"/></g><path d="M1068.5 815.48l.07.88.2.84.33.8.45.73.56.66.67.55.73.45.8.33.82.2 214.5.07v1l-214.62-.07-1-.25-.95-.4-.87-.52-.78-.66-.66-.78-.53-.87-.38-.94-.24-.98-.08-1v-23.56h1z" stroke="#3a414a" stroke-width=".05" fill="#3a414a"/><path d="M1068.5 791.98h-1v-.52h1z" fill="#3a414a"/><path d="M1068.53 792h-1.06v-.56h1.06zm-1-.5v.45h.94v-.46z" stroke="#3a414a" stroke-width=".05" fill="#3a414a"/><path d="M1302.38 821.5l-14.26 4.63v-9.27z" fill="#3a414a"/><path d="M1304 821.5l-16.38 5.32v-10.64zm-15.38 3.95l12.14-3.95-12.14-3.95z" stroke="#3a414a" stroke-width=".05" fill="#3a414a"/><defs><path fill="#3a414a" d="M368-163h620V0H174v-1433h194v1270" id="W"/><path fill="#3a414a" d="M1038-507c0 321-164 521-482 521S72-187 72-507c0-248 107-410 284-485 60-25 126-37 200-37 317 0 482 201 482 522zm-782 1c0 225 80 381 300 381 213 0 298-159 298-381 0-223-84-383-298-383-221 0-300 158-300 383" id="X"/><path fill="#3a414a" d="M537-1031c235 0 353 147 353 383V0c-58-5-129 17-142-42l-20-94C637-55 545 19 375 16 200 13 92-76 92-253c0-184 160-243 332-285 79-19 176-28 291-31 12-184-31-318-200-318-113 0-181 45-243 91-36 26-82 14-99-17l-32-57c101-96 215-161 396-161zM263-261c0 103 62 152 165 152 140 0 216-64 287-136v-211c-141 4-258 19-349 60-60 27-103 62-103 135" id="Y"/><path fill="#3a414a" d="M510-1031c133 0 210 49 277 120v-562h178V0c-60-6-146 21-154-37l-16-123C716-67 616 14 455 14 173 14 72-209 72-503c0-237 94-406 254-487 54-27 115-41 184-41zM256-503c2 212 53 373 258 373 136 0 207-69 273-153v-490c-57-77-121-119-237-119-208 0-296 164-294 389" id="Z"/><g id="a"><use transform="matrix(0.011111111111111112,0,0,0.011111111111111112,0,0)" xlink:href="#W"/><use transform="matrix(0.011111111111111112,0,0,0.011111111111111112,11.022222222222222,0)" xlink:href="#X"/><use transform="matrix(0.011111111111111112,0,0,0.011111111111111112,23.37777777777778,0)" xlink:href="#Y"/><use transform="matrix(0.011111111111111112,0,0,0.011111111111111112,34.644444444444446,0)" xlink:href="#Z"/></g><path fill="#3a414a" d="M1365-1009c68 170 68 416 0 586C1264-171 1053 0 710 0H174v-1433h536c343 5 555 172 655 424zM710-157c338-11 507-216 507-559s-169-560-507-560H369v1119h341" id="aa"/><path fill="#3a414a" d="M698-76c-54 52-145 92-245 92-162 1-249-96-249-260v-620c-58-9-160 26-160-39v-71l166-21 41-313c4-50 80-30 131-34v349h290v129H382v608c-2 78 40 125 111 126 60 2 88-33 128-48 9 0 18 6 25 17" id="ab"/><g id="b"><use transform="matrix(0.011111111111111112,0,0,0.011111111111111112,0,0)" xlink:href="#aa"/><use transform="matrix(0.011111111111111112,0,0,0.011111111111111112,16.733333333333334,0)" xlink:href="#Y"/><use transform="matrix(0.011111111111111112,0,0,0.011111111111111112,28,0)" xlink:href="#ab"/><use transform="matrix(0.011111111111111112,0,0,0.011111111111111112,36.28888888888889,0)" xlink:href="#Y"/></g><path fill="#3a414a" d="M404 0H210v-1433h194V0" id="ac"/><path fill="#3a414a" d="M598-887c-125 2-207 68-274 141V0H146v-1013c60 6 147-22 154 37l14 110c82-87 177-163 336-163 232 0 339 151 339 384V0H811v-645c0-149-65-244-213-242" id="ad"/><path fill="#3a414a" d="M344-1013V0H166v-1013h178zm-88-446c77 0 128 52 128 128 0 75-52 126-128 126-75 0-126-51-126-126 0-76 50-128 126-128" id="ae"/><g id="c"><use transform="matrix(0.011111111111111112,0,0,0.011111111111111112,0,0)" xlink:href="#ac"/><use transform="matrix(0.011111111111111112,0,0,0.011111111111111112,6.822222222222223,0)" xlink:href="#ad"/><use transform="matrix(0.011111111111111112,0,0,0.011111111111111112,19.177777777777777,0)" xlink:href="#ae"/><use transform="matrix(0.011111111111111112,0,0,0.011111111111111112,24.866666666666667,0)" xlink:href="#ab"/></g><path fill="#3a414a" d="M513-145c178-4 292-88 292-262 0-193-194-213-343-263-182-61-347-142-342-385 4-188 111-303 254-361 117-48 292-41 408 5 66 26 124 62 173 110-22 37-36 86-66 115-51 25-83-28-123-48-53-26-114-56-200-54-157 4-266 71-266 223 0 186 200 204 344 258 175 65 343 135 343 372 0 289-185 446-480 451-198 4-349-81-449-187 26-36 42-83 76-111 60-25 93 39 140 65 62 34 135 75 239 72" id="af"/><path fill="#3a414a" d="M584-856c-148 6-210 94-260 211V0H146v-1013c62 7 151-25 157 49l12 158c66-138 184-259 384-216 23 5 44 16 63 27l-23 133c-5 17-15 25-31 25-36 0-71-21-124-19" id="ag"/><path fill="#3a414a" d="M103-704c0-220 160-326 384-326 92 0 169 21 228 57h275c-2 53 13 100-42 108l-115 16c43 79 45 196 5 279-58 120-176 191-351 193-47 0-92-6-134-17-50 22-100 108-36 142 165 88 511-13 621 164 40 65 36 170-4 240-77 134-229 213-441 213-193 0-343-50-415-167-19-32-28-66-28-101 3-117 84-175 178-211-54-27-98-64-94-143 4-90 64-137 129-173-91-51-160-139-160-274zM334-85C254-53 162 38 224 138c97 157 586 133 579-83C799-63 659-58 543-68c-70-6-146-6-209-17zm-67-614c0 134 84 204 220 204 137 0 221-69 221-204 0-129-85-203-221-203-135 0-220 74-220 203" id="ah"/><g id="d"><use transform="matrix(0.011111111111111112,0,0,0.011111111111111112,0,0)" xlink:href="#af"/><use transform="matrix(0.011111111111111112,0,0,0.011111111111111112,11.777777777777779,0)" xlink:href="#ab"/><use transform="matrix(0.011111111111111112,0,0,0.011111111111111112,20.06666666666667,0)" xlink:href="#Y"/><use transform="matrix(0.011111111111111112,0,0,0.011111111111111112,31.333333333333336,0)" xlink:href="#ag"/><use transform="matrix(0.011111111111111112,0,0,0.011111111111111112,40.28888888888889,0)" xlink:href="#ab"/><use transform="matrix(0.011111111111111112,0,0,0.011111111111111112,48.57777777777778,0)" xlink:href="#ae"/><use transform="matrix(0.011111111111111112,0,0,0.011111111111111112,54.266666666666666,0)" xlink:href="#ad"/><use transform="matrix(0.011111111111111112,0,0,0.011111111111111112,66.62222222222223,0)" xlink:href="#ah"/></g><path fill="#3a414a" d="M602 14c-133 0-212-47-278-119v448H146v-1356c60 6 147-22 154 37l15 120c80-93 179-175 341-175 282 0 383 224 383 518 0 237-92 406-253 487-54 27-116 40-184 40zm253-527c-3-212-53-374-258-374-136 0-207 69-273 153v490c57 77 121 120 238 120 207 0 295-164 293-389" id="ai"/><path fill="#3a414a" d="M409-112c121-3 207-52 207-167 0-134-157-142-264-181-133-48-263-98-263-275 0-197 153-290 360-294 139-3 243 49 317 118-26 35-46 114-111 76-53-31-114-63-202-61-108 3-195 44-195 147 0 129 158 136 262 175 128 48 263 93 263 264C783-89 627 12 400 16 255 19 139-39 62-107c27-41 57-128 128-81 57 38 118 78 219 76" id="aj"/><path fill="#3a414a" d="M598-887c-125 2-207 68-274 141V0H146v-1473h178v596c81-82 173-152 326-152 232 0 339 151 339 384V0H811v-645c0-149-65-244-213-242" id="ak"/><g id="e"><use transform="matrix(0.011111111111111112,0,0,0.011111111111111112,0,0)" xlink:href="#af"/><use transform="matrix(0.011111111111111112,0,0,0.011111111111111112,11.777777777777779,0)" xlink:href="#ad"/><use transform="matrix(0.011111111111111112,0,0,0.011111111111111112,24.133333333333333,0)" xlink:href="#Y"/><use transform="matrix(0.011111111111111112,0,0,0.011111111111111112,35.4,0)" xlink:href="#ai"/><use transform="matrix(0.011111111111111112,0,0,0.011111111111111112,47.66666666666667,0)" xlink:href="#aj"/><use transform="matrix(0.011111111111111112,0,0,0.011111111111111112,57.31111111111111,0)" xlink:href="#ak"/><use transform="matrix(0.011111111111111112,0,0,0.011111111111111112,69.66666666666667,0)" xlink:href="#X"/><use transform="matrix(0.011111111111111112,0,0,0.011111111111111112,82.02222222222223,0)" xlink:href="#ab"/></g><path fill="#3a414a" d="M867-737c186 37 317 126 317 329C1184-123 974 0 681 0H174v-1433h457c293 3 505 90 505 374 0 185-121 273-269 322zm126 324c0-168-128-240-316-240H368v499h310c190-2 315-75 315-259zm-50-623c0-184-115-243-312-244H368v489h256c186-3 319-66 319-245" id="al"/><path fill="#3a414a" d="M461 16c-231 0-339-149-339-383v-646h178v646c0 148 67 243 213 241 125-2 207-66 274-140v-747h178V0c-60-6-146 22-154-37l-14-109C716-60 619 16 461 16" id="am"/><path fill="#3a414a" d="M344-1473V0H166v-1473h178" id="an"/><g id="f"><use transform="matrix(0.011111111111111112,0,0,0.011111111111111112,0,0)" xlink:href="#al"/><use transform="matrix(0.011111111111111112,0,0,0.011111111111111112,14.377777777777778,0)" xlink:href="#am"/><use transform="matrix(0.011111111111111112,0,0,0.011111111111111112,26.733333333333334,0)" xlink:href="#ae"/><use transform="matrix(0.011111111111111112,0,0,0.011111111111111112,32.422222222222224,0)" xlink:href="#an"/><use transform="matrix(0.011111111111111112,0,0,0.011111111111111112,38.111111111111114,0)" xlink:href="#Z"/></g><path fill="#3a414a" d="M1124-1036c0 240-152 355-353 406 24 14 45 35 64 61L1253 0c-92-9-205 21-250-41L631-553c-24-32-41-45-97-45H387V0H194v-1433h405c307 3 525 101 525 397zm-189 14c0-188-133-258-336-258H387v541h203c205-3 345-85 345-283" id="ao"/><path fill="#3a414a" d="M954-142C850-8 572 61 364-22 180-96 74-268 74-527c0-234 108-389 275-463 59-26 125-39 198-39 273 0 420 174 420 453 0 48-2 70-43 70H250c8 226 98 375 322 380 114 2 191-38 258-82 70-46 94 37 124 66zM807-617c-5-171-86-278-256-281-181-3-273 116-295 281h551" id="ap"/><path fill="#3a414a" d="M14-1013c70 8 177-25 195 37l194 652c10 46 20 89 27 137 77-272 174-527 253-793 13-44 73-34 126-35 27-1 44 16 51 35 81 265 173 518 245 792 7-44 18-96 30-136l198-652c15-59 118-30 186-37L1191 0h-141c-17 0-29-11-36-34-79-245-162-486-237-734-5-15-7-31-10-46-7 32-12 65-23 94L517-34C501 26 405-10 342 0" id="aq"/><g id="g"><use transform="matrix(0.011111111111111112,0,0,0.011111111111111112,0,0)" xlink:href="#ao"/><use transform="matrix(0.011111111111111112,0,0,0.011111111111111112,14.311111111111112,0)" xlink:href="#ap"/><use transform="matrix(0.011111111111111112,0,0,0.011111111111111112,25.955555555555556,0)" xlink:href="#aq"/><use transform="matrix(0.011111111111111112,0,0,0.011111111111111112,42.977777777777774,0)" xlink:href="#ae"/><use transform="matrix(0.011111111111111112,0,0,0.011111111111111112,48.66666666666667,0)" xlink:href="#ad"/><use transform="matrix(0.011111111111111112,0,0,0.011111111111111112,61.02222222222221,0)" xlink:href="#Z"/></g><path fill="#3a414a" d="M1150-1433v163H687V0H493v-1270H28v-163h1122" id="ar"/><path fill="#3a414a" d="M550-887c-107 0-172 65-226 132V0H146v-1013c60 6 147-22 154 37l13 104c69-80 148-156 287-157 148-1 223 92 258 211 51-126 153-211 323-211 232 0 338 149 338 384V0h-178v-645c1-148-62-242-203-242-142 0-218 94-218 242V0H742v-645c1-149-54-242-192-242" id="as"/><g id="h"><use transform="matrix(0.011111111111111112,0,0,0.011111111111111112,0,0)" xlink:href="#ar"/><use transform="matrix(0.011111111111111112,0,0,0.011111111111111112,13.111111111111112,0)" xlink:href="#ae"/><use transform="matrix(0.011111111111111112,0,0,0.011111111111111112,18.8,0)" xlink:href="#as"/><use transform="matrix(0.011111111111111112,0,0,0.011111111111111112,37.044444444444444,0)" xlink:href="#ap"/><use transform="matrix(0.011111111111111112,0,0,0.011111111111111112,48.68888888888889,0)" xlink:href="#an"/><use transform="matrix(0.011111111111111112,0,0,0.011111111111111112,54.37777777777778,0)" xlink:href="#ae"/><use transform="matrix(0.011111111111111112,0,0,0.011111111111111112,60.06666666666667,0)" xlink:href="#ad"/><use transform="matrix(0.011111111111111112,0,0,0.011111111111111112,72.42222222222223,0)" xlink:href="#ap"/></g><path fill="#3a414a" d="M1057-1433v158H369v476h557v152H369v489h688V0H174v-1433h883" id="at"/><path fill="#3a414a" d="M383-519L42-1013h171c30 0 38 9 50 27l248 380c6-19 14-38 26-56l218-320c12-15 21-30 45-31h164L623-529 978 0H807c-30 1-44-19-55-37L497-434c-5 19-11 37-21 52L240-37c-13 16-24 37-53 37H28" id="au"/><g id="i"><use transform="matrix(0.011111111111111112,0,0,0.011111111111111112,0,0)" xlink:href="#at"/><use transform="matrix(0.011111111111111112,0,0,0.011111111111111112,12.911111111111111,0)" xlink:href="#au"/><use transform="matrix(0.011111111111111112,0,0,0.011111111111111112,24.11111111111111,0)" xlink:href="#ae"/><use transform="matrix(0.011111111111111112,0,0,0.011111111111111112,29.800000000000008,0)" xlink:href="#ab"/></g><path fill="#3a414a" d="M1057-1433v158H369v501h588v158H369V0H174v-1433h883" id="av"/><g id="j"><use transform="matrix(0.011111111111111112,0,0,0.011111111111111112,0,0)" xlink:href="#av"/><use transform="matrix(0.011111111111111112,0,0,0.011111111111111112,11.799999999999997,0)" xlink:href="#X"/><use transform="matrix(0.011111111111111112,0,0,0.011111111111111112,24.155555555555555,0)" xlink:href="#ag"/><use transform="matrix(0.011111111111111112,0,0,0.011111111111111112,33.111111111111114,0)" xlink:href="#aq"/><use transform="matrix(0.011111111111111112,0,0,0.011111111111111112,50.13333333333333,0)" xlink:href="#Y"/><use transform="matrix(0.011111111111111112,0,0,0.011111111111111112,61.400000000000006,0)" xlink:href="#ag"/><use transform="matrix(0.011111111111111112,0,0,0.011111111111111112,70.35555555555555,0)" xlink:href="#Z"/></g><g id="k"><use transform="matrix(0.011111111111111112,0,0,0.011111111111111112,0,0)" xlink:href="#ao"/><use transform="matrix(0.011111111111111112,0,0,0.011111111111111112,14.311111111111112,0)" xlink:href="#ap"/><use transform="matrix(0.011111111111111112,0,0,0.011111111111111112,25.955555555555556,0)" xlink:href="#aq"/><use transform="matrix(0.011111111111111112,0,0,0.011111111111111112,42.977777777777774,0)" xlink:href="#ae"/><use transform="matrix(0.011111111111111112,0,0,0.011111111111111112,48.66666666666667,0)" xlink:href="#ad"/><use transform="matrix(0.011111111111111112,0,0,0.011111111111111112,61.02222222222221,0)" xlink:href="#Z"/></g><path fill="#3a414a" d="M617-1433c323 3 534 130 534 444 0 310-216 446-534 453H387V0H194v-1433h423zm340 444c0-197-128-291-340-291H387v590h230c207-4 340-97 340-299" id="aw"/><path fill="#3a414a" d="M443 299c-13 26-25 44-64 44H247L432-59 14-1013h154c30-1 46 18 55 37 95 228 197 450 287 682 6 14 8 30 11 45 10-32 18-60 30-90l263-637c18-60 124-30 194-37" id="ax"/><path fill="#3a414a" d="M1353 0h-150c-36 0-55-21-66-46l-134-346H360L226-46c-9 23-33 46-66 46H10l573-1433h197zM414-532h535l-225-583c-15-36-29-81-43-135-13 48-26 95-42 136" id="ay"/><g id="l"><use transform="matrix(0.011111111111111112,0,0,0.011111111111111112,0,0)" xlink:href="#aw"/><use transform="matrix(0.011111111111111112,0,0,0.011111111111111112,13.577777777777778,0)" xlink:href="#an"/><use transform="matrix(0.011111111111111112,0,0,0.011111111111111112,19.266666666666666,0)" xlink:href="#Y"/><use transform="matrix(0.011111111111111112,0,0,0.011111111111111112,30.17777777777778,0)" xlink:href="#ax"/><use transform="matrix(0.011111111111111112,0,0,0.011111111111111112,40.644444444444446,0)" xlink:href="#ay"/><use transform="matrix(0.011111111111111112,0,0,0.011111111111111112,55.75555555555556,0)" xlink:href="#Y"/><use transform="matrix(0.011111111111111112,0,0,0.011111111111111112,67.02222222222223,0)" xlink:href="#ah"/><use transform="matrix(0.011111111111111112,0,0,0.011111111111111112,78.37777777777778,0)" xlink:href="#ae"/><use transform="matrix(0.011111111111111112,0,0,0.011111111111111112,84.06666666666666,0)" xlink:href="#ad"/></g><g id="m"><use transform="matrix(0.011111111111111112,0,0,0.011111111111111112,0,0)" xlink:href="#af"/><use transform="matrix(0.011111111111111112,0,0,0.011111111111111112,11.777777777777779,0)" xlink:href="#ap"/><use transform="matrix(0.011111111111111112,0,0,0.011111111111111112,23.422222222222224,0)" xlink:href="#ab"/><use transform="matrix(0.011111111111111112,0,0,0.011111111111111112,31.711111111111116,0)" xlink:href="#af"/><use transform="matrix(0.011111111111111112,0,0,0.011111111111111112,43.488888888888894,0)" xlink:href="#ai"/><use transform="matrix(0.011111111111111112,0,0,0.011111111111111112,55.75555555555556,0)" xlink:href="#ap"/><use transform="matrix(0.011111111111111112,0,0,0.011111111111111112,67.4,0)" xlink:href="#ap"/><use transform="matrix(0.011111111111111112,0,0,0.011111111111111112,79.04444444444445,0)" xlink:href="#Z"/></g><g id="n"><use transform="matrix(0.011111111111111112,0,0,0.011111111111111112,0,0)" xlink:href="#at"/><use transform="matrix(0.011111111111111112,0,0,0.011111111111111112,12.911111111111111,0)" xlink:href="#ad"/><use transform="matrix(0.011111111111111112,0,0,0.011111111111111112,25.26666666666667,0)" xlink:href="#ab"/><use transform="matrix(0.011111111111111112,0,0,0.011111111111111112,33.55555555555556,0)" xlink:href="#ap"/><use transform="matrix(0.011111111111111112,0,0,0.011111111111111112,45.2,0)" xlink:href="#ag"/></g><path fill="#333" d="M234-125c148 44 313-21 305-171-8-157-208-144-311-214-59-40-114-89-109-188 11-210 152-324 370-330 127-3 216 48 280 113-20 26-37 59-61 81-37 18-62-16-90-30-36-18-81-37-140-36-114 4-202 52-202 161 0 112 123 127 210 163 105 44 211 92 211 239 0 170-103 272-231 324-97 40-243 39-334-5-49-24-90-53-121-89 28-37 58-129 123-81 29 21 57 50 100 63" id="az"/><path fill="#333" d="M775-645c15-122 0-244-121-235-142 10-215 112-278 214-27 44-49 96-68 151L250 0H72l121-1014c68 2 156-16 149 60l-15 196c54-89 115-157 183-202s137-68 210-68c193-2 258 172 233 383L877 0H699" id="aA"/><path fill="#333" d="M314 14C120 14 49-141 49-343c0-285 143-462 315-587 132-96 396-132 574-50L817 0h-92c-44 1-63-24-60-62l18-205C619-155 541-56 420-6c-34 13-69 20-106 20zm438-903c-292-39-444 147-509 379-12 43-16 89-16 135 0 210 112 297 250 211 119-74 212-218 232-377" id="aB"/><path fill="#333" d="M631-13C493 48 319-2 256-100l-54 443H29l165-1357c68 2 156-16 149 60l-17 216c69-116 153-218 281-270 36-14 73-20 110-20 193 5 277 155 273 369-5 258-101 444-240 571-36 33-76 57-119 75zm141-389c59-157 83-494-122-483-146 8-215 132-278 242-28 48-50 103-69 161l-32 258c50 85 188 130 298 78 101-47 162-147 203-256" id="aC"/><path fill="#333" d="M782-645c15-123 0-245-122-236-135 10-207 108-269 203-27 42-49 89-68 141L258 0H80l178-1473h178l-83 684c86-128 195-233 373-239 195-6 259 171 234 383L884 0H706" id="aD"/><path fill="#333" d="M235-408c-1 169 59 283 214 283 178 0 257-149 300-300 16-58 23-119 23-182 1-168-60-282-214-282-179 0-257 148-300 299-17 58-23 119-23 182zm339-621c250 0 377 166 377 421 0 277-129 473-314 572-63 34-131 50-204 50C183 14 56-152 56-407c0-277 129-474 314-573 63-33 131-49 204-49" id="aE"/><path fill="#333" d="M371 16c-145 1-226-95-209-250 23-210 52-421 77-630H126c-50-1-22-70-21-110l156-21 75-313c7-50 83-30 136-34l-44 349h266l-15 129H412c-25 212-58 418-75 634-5 63 29 99 88 100 57 2 84-33 123-48 14 1 17 6 22 17l37 85c-55 50-140 91-236 92" id="aF"/><path fill="#333" d="M1109-1091c0 264-157 403-375 459 21 15 39 35 53 60L1096 0c-86-9-202 25-236-40L590-556c-19-34-32-44-84-45H374L300 0H114l175-1433h377c260 3 443 90 443 342zm-186 29c0-157-105-224-274-224H459l-68 549h183c217-5 349-112 349-325" id="aG"/><path fill="#333" d="M586-1027c169 0 296 78 296 231 0 199-149 250-324 299-84 24-192 40-324 53-23 223 98 359 320 308 85-19 133-74 195-113 57-36 83 37 109 62C750-79 642 14 433 14 184 14 60-146 60-397c0-248 101-426 246-537 71-54 162-93 280-93zm121 307c48-99-21-186-131-179-202 12-279 166-325 337 166-21 286-42 390-96 34-18 55-40 66-62" id="aH"/><path fill="#333" d="M547-1028c109 0 189 47 240 112l69-557h175L849 0h-92c-44 1-63-24-60-62l19-211C647-159 563-57 436-6c-36 14-72 20-109 20C133 10 50-141 54-355c5-257 100-447 240-572 62-56 145-101 253-101zM254-554c-44 167-43 425 140 425 145 0 213-130 276-237 28-47 49-101 68-158l33-268c-58-98-237-130-341-50-84 65-144 169-176 288" id="aI"/><path fill="#333" d="M317 302c-24 65-115 34-192 41L344-60 82-1013h147c28-1 40 16 46 37 56 227 119 449 171 680 3 14 4 28 5 42 13-29 22-58 37-85l320-639c21-57 123-28 193-35" id="aJ"/><g id="o"><use transform="matrix(0.011111111111111112,0,0,0.011111111111111112,0,0)" xlink:href="#az"/><use transform="matrix(0.011111111111111112,0,0,0.011111111111111112,8.666666666666668,0)" xlink:href="#aA"/><use transform="matrix(0.011111111111111112,0,0,0.011111111111111112,20.37777777777778,0)" xlink:href="#aB"/><use transform="matrix(0.011111111111111112,0,0,0.011111111111111112,31.622222222222227,0)" xlink:href="#aC"/><use transform="matrix(0.011111111111111112,0,0,0.011111111111111112,43.15555555555556,0)" xlink:href="#az"/><use transform="matrix(0.011111111111111112,0,0,0.011111111111111112,51.82222222222222,0)" xlink:href="#aD"/><use transform="matrix(0.011111111111111112,0,0,0.011111111111111112,63.62222222222223,0)" xlink:href="#aE"/><use transform="matrix(0.011111111111111112,0,0,0.011111111111111112,74.8111111111111,0)" xlink:href="#aF"/><use transform="matrix(0.011111111111111112,0,0,0.011111111111111112,82.44444444444444,0)" xlink:href="#aG"/><use transform="matrix(0.011111111111111112,0,0,0.011111111111111112,95.64444444444445,0)" xlink:href="#aH"/><use transform="matrix(0.011111111111111112,0,0,0.011111111111111112,105.91111111111111,0)" xlink:href="#aB"/><use transform="matrix(0.011111111111111112,0,0,0.011111111111111112,117.15555555555557,0)" xlink:href="#aI"/><use transform="matrix(0.011111111111111112,0,0,0.011111111111111112,128.86666666666667,0)" xlink:href="#aJ"/></g><path fill="#333" d="M115-672h457l-19 146H97" id="aK"/><path fill="#333" d="M947-636L125-235c15-65 0-153 58-179 176-78 343-169 521-246 15-7 33-10 50-14-32-7-61-18-86-31L246-932c-57-26-13-117-13-180l723 402" id="aL"/><g id="p"><use transform="matrix(0.011111111111111112,0,0,0.011111111111111112,0,0)" xlink:href="#aK"/><use transform="matrix(0.011111111111111112,0,0,0.011111111111111112,7.122222222222223,0)" xlink:href="#aL"/></g><path fill="#333" d="M1177-1433l-20 157H734L578 0H392l156-1276H123l19-157h1035" id="aM"/><path fill="#333" d="M283-1014c58-5 61 46 57 101l-14 184c43-93 92-166 146-216 77-71 152-97 253-58l-32 171c-112-42-192-12-264 76-51 63-111 154-127 286L246 0H72l122-1014h89" id="aN"/><path fill="#333" d="M335 14C143 15 77-159 102-369l76-644h177c-26 240-81 471-81 717 0 101 31 162 127 162 138 0 211-109 273-207 27-43 49-92 68-145l63-527h177L860 0c-68-2-157 16-153-57 3-65 10-129 15-191-54 86-114 152-181 196S406 14 335 14" id="aO"/><g id="q"><use transform="matrix(0.011111111111111112,0,0,0.011111111111111112,0,0)" xlink:href="#aM"/><use transform="matrix(0.011111111111111112,0,0,0.011111111111111112,10.366666666666667,0)" xlink:href="#aN"/><use transform="matrix(0.011111111111111112,0,0,0.011111111111111112,18.18888888888889,0)" xlink:href="#aO"/><use transform="matrix(0.011111111111111112,0,0,0.011111111111111112,29.87777777777778,0)" xlink:href="#aH"/></g><path fill="#333" d="M393-1013L271 0H96l122-1013h175zm-56-446c74 0 123 53 123 128 0 74-51 126-124 126-72 0-120-53-120-126 0-74 49-128 121-128" id="aP"/><path fill="#333" d="M720-645c12-110 21-244-99-235-135 10-195 105-250 204-24 43-43 93-62 148L246 0H72l122-1014c68 2 156-16 149 60l-14 181c50-84 105-148 164-191s122-64 188-64c150 2 200 113 201 272 51-93 107-162 170-206s130-66 199-66c195 0 240 179 216 383L1391 0h-175l76-645c13-113 15-243-103-235-127 9-189 96-243 188-24 40-44 88-62 141L819 0H643" id="aQ"/><path fill="#333" d="M89 0l179-1473h175L264 0H89" id="aR"/><g id="r"><use transform="matrix(0.011111111111111112,0,0,0.011111111111111112,0,0)" xlink:href="#aF"/><use transform="matrix(0.011111111111111112,0,0,0.011111111111111112,7.633333333333334,0)" xlink:href="#aP"/><use transform="matrix(0.011111111111111112,0,0,0.011111111111111112,13.066666666666666,0)" xlink:href="#aQ"/><use transform="matrix(0.011111111111111112,0,0,0.011111111111111112,30.5,0)" xlink:href="#aH"/><use transform="matrix(0.011111111111111112,0,0,0.011111111111111112,40.766666666666666,0)" xlink:href="#aR"/><use transform="matrix(0.011111111111111112,0,0,0.011111111111111112,46.066666666666656,0)" xlink:href="#aP"/><use transform="matrix(0.011111111111111112,0,0,0.011111111111111112,51.5,0)" xlink:href="#aA"/><use transform="matrix(0.011111111111111112,0,0,0.011111111111111112,63.211111111111116,0)" xlink:href="#aH"/><use transform="matrix(0.011111111111111112,0,0,0.011111111111111112,73.47777777777777,0)" xlink:href="#aG"/><use transform="matrix(0.011111111111111112,0,0,0.011111111111111112,86.67777777777778,0)" xlink:href="#aH"/><use transform="matrix(0.011111111111111112,0,0,0.011111111111111112,96.94444444444444,0)" xlink:href="#aB"/><use transform="matrix(0.011111111111111112,0,0,0.011111111111111112,108.18888888888887,0)" xlink:href="#aI"/><use transform="matrix(0.011111111111111112,0,0,0.011111111111111112,119.89999999999998,0)" xlink:href="#aJ"/></g><path fill="#3a414a" d="M1187-985c0 329-222 471-561 476H424V0H155v-1446h471c337 4 561 134 561 461zm-269 0c0-176-112-253-292-253H424v519h202c184-1 292-85 292-266" id="aS"/><path fill="#3a414a" d="M395-1486V0H148v-1486h247" id="aT"/><path fill="#3a414a" d="M556-1045c246 0 380 151 380 397V0c-79-6-181 23-196-53l-22-73C630-49 541 18 379 16 194 13 81-77 81-262c0-184 152-247 321-292 78-21 176-31 293-34 10-155-29-262-170-262-104 0-161 40-224 77-47 28-107 5-127-31l-45-79c118-108 260-162 427-162zM317-275c-3 86 56 121 139 121 117 0 179-51 239-111v-173c-122 6-219 17-297 53-49 22-79 51-81 110" id="aU"/><path fill="#3a414a" d="M496 282c-21 85-170 43-266 53L422-76 7-1026h216c39-1 60 21 70 46 80 195 164 386 238 586 7 18 10 37 14 56 74-221 164-427 244-642 9-24 36-46 68-46h198" id="aV"/><path fill="#3a414a" d="M638 15c-134 0-208-58-269-132-10 52-5 117-71 117H135v-1486h247v586c77-79 169-142 318-142 277 0 379 230 379 521 0 241-97 412-259 495-54 27-115 41-182 41zm186-536c0-181-37-329-209-329-117 0-175 55-233 124v460c48 61 104 93 199 93 187 0 243-152 243-348" id="aW"/><path fill="#3a414a" d="M928-153C839-49 712 15 524 15c-227 0-358-131-424-305-47-123-49-306-4-434 67-190 213-318 465-318 165 0 270 58 357 143-29 37-52 81-86 112-71 26-104-41-170-55-24-5-52-12-86-12-192 5-260 143-260 339 0 194 67 336 254 342 98 3 148-38 200-79 26-20 67-17 87 9" id="aX"/><path fill="#3a414a" d="M382-1486v851c54 1 89-1 115-33l255-315c22-25 41-43 86-43h226C946-887 832-742 710-606c-11 12-25 21-39 30 29 21 48 49 69 78L1082 0H859c-44-1-65-15-85-44L513-433c-20-29-30-36-75-37h-56V0H135v-1486h247" id="aY"/><g id="s"><use transform="matrix(0.02,0,0,0.02,0,0)" xlink:href="#aS"/><use transform="matrix(0.02,0,0,0.02,25,0)" xlink:href="#aT"/><use transform="matrix(0.02,0,0,0.02,35.84,0)" xlink:href="#aU"/><use transform="matrix(0.02,0,0,0.02,56.06,0)" xlink:href="#aV"/><use transform="matrix(0.02,0,0,0.02,77.4,0)" xlink:href="#aW"/><use transform="matrix(0.02,0,0,0.02,100.2,0)" xlink:href="#aU"/><use transform="matrix(0.02,0,0,0.02,121.14,0)" xlink:href="#aX"/><use transform="matrix(0.02,0,0,0.02,140.22,0)" xlink:href="#aY"/></g><path fill="#3a414a" d="M604-806c-122 5-180 74-225 167V0H132v-1026c83 11 206-35 218 62l15 124c63-106 147-205 295-205 51 0 93 12 126 35l-32 185c-4 23-15 33-40 33-33 0-65-16-110-14" id="aZ"/><path fill="#3a414a" d="M361-1005c121-49 297-49 417 0 184 74 298 236 298 490 0 330-178 530-506 530C241 15 61-185 61-515c0-254 115-416 300-490zm-45 492c0 201 65 338 254 338 188 0 251-137 251-338s-63-340-251-340c-189 0-254 139-254 340" id="ba"/><path fill="#3a414a" d="M991-153C899-47 760 15 568 15 237 15 63-197 63-535c0-237 116-392 287-467 61-27 129-40 206-40 287 0 444 174 444 465 0 54-3 95-57 95H309c4 226 158 349 385 292 52-13 93-39 132-62 32-19 73-16 93 9zM778-631c-4-143-73-234-217-234-154 0-226 95-247 234h464" id="bb"/><path fill="#3a414a" d="M254-198c95 60 334 64 323-83-9-119-156-122-253-159C192-490 72-550 72-729c0-214 163-309 387-313 145-3 264 55 338 127-26 36-45 82-77 111-69 21-111-33-176-48-103-23-247 0-238 102 11 114 156 118 251 155 126 49 251 100 251 270C808-59 575 48 294 6 192-9 106-54 42-110c28-39 43-95 83-120 49-31 96 11 129 32" id="bc"/><g id="t"><use transform="matrix(0.02,0,0,0.02,0,0)" xlink:href="#aS"/><use transform="matrix(0.02,0,0,0.02,25,0)" xlink:href="#aZ"/><use transform="matrix(0.02,0,0,0.02,41.34,0)" xlink:href="#ba"/><use transform="matrix(0.02,0,0,0.02,64.08000000000001,0)" xlink:href="#aX"/><use transform="matrix(0.02,0,0,0.02,83.16,0)" xlink:href="#bb"/><use transform="matrix(0.02,0,0,0.02,104.54,0)" xlink:href="#bc"/><use transform="matrix(0.02,0,0,0.02,122.02,0)" xlink:href="#bc"/></g><path fill="#3a414a" d="M415-222h579V0H146v-1446h269v1224" id="bd"/><path fill="#3a414a" d="M502-1045c120-1 193 43 256 101v-542h247V0c-80-9-199 29-214-45l-20-99C693-58 601 15 441 15 163 15 61-217 61-510c0-241 98-411 259-494 54-27 115-41 182-41zM316-510c0 181 36 329 209 329 118 0 173-54 233-123v-460c-48-59-104-93-198-93-188 0-244 151-244 347" id="be"/><g id="u"><use transform="matrix(0.01555555555555555,0,0,0.01555555555555555,0,0)" xlink:href="#bd"/><use transform="matrix(0.01555555555555555,0,0,0.01555555555555555,15.493333333333329,0)" xlink:href="#ba"/><use transform="matrix(0.01555555555555555,0,0,0.01555555555555555,33.17999999999999,0)" xlink:href="#aU"/><use transform="matrix(0.01555555555555555,0,0,0.01555555555555555,49.466666666666654,0)" xlink:href="#be"/></g><path fill="#3a414a" d="M1377-1015c71 172 71 412 0 584C1271-174 1052 0 698 0H146v-1446h552c353 6 574 175 679 431zM698-214c307-9 457-198 457-509s-150-500-457-509H417v1018h281" id="bf"/><path fill="#3a414a" d="M738-75c-64 55-158 90-269 91-176 2-277-109-277-284v-573c-65-4-153 21-153-52v-98l165-27 52-280c10-66 115-35 183-42v323h270v176H439v556c-1 59 32 101 88 102 48 1 68-25 104-34 19 1 25 9 33 22" id="bg"/><g id="v"><use transform="matrix(0.01555555555555555,0,0,0.01555555555555555,0,0)" xlink:href="#bf"/><use transform="matrix(0.01555555555555555,0,0,0.01555555555555555,23.255555555555546,0)" xlink:href="#aU"/><use transform="matrix(0.01555555555555555,0,0,0.01555555555555555,39.54222222222221,0)" xlink:href="#bg"/><use transform="matrix(0.01555555555555555,0,0,0.01555555555555555,51.5822222222222,0)" xlink:href="#aU"/></g><g id="w"><use transform="matrix(0.01555555555555555,0,0,0.01555555555555555,0,0)" xlink:href="#aS"/><use transform="matrix(0.01555555555555555,0,0,0.01555555555555555,19.444444444444436,0)" xlink:href="#aZ"/><use transform="matrix(0.01555555555555555,0,0,0.01555555555555555,32.15333333333332,0)" xlink:href="#ba"/><use transform="matrix(0.01555555555555555,0,0,0.01555555555555555,49.83999999999998,0)" xlink:href="#aX"/><use transform="matrix(0.01555555555555555,0,0,0.01555555555555555,64.67999999999998,0)" xlink:href="#bb"/><use transform="matrix(0.01555555555555555,0,0,0.01555555555555555,81.30888888888886,0)" xlink:href="#bc"/><use transform="matrix(0.01555555555555555,0,0,0.01555555555555555,94.90444444444441,0)" xlink:href="#bc"/></g><g id="x"><use transform="matrix(0.013333333333333332,0,0,0.013333333333333332,0,0)" xlink:href="#bd"/><use transform="matrix(0.013333333333333332,0,0,0.013333333333333332,13.28,0)" xlink:href="#ba"/><use transform="matrix(0.013333333333333332,0,0,0.013333333333333332,28.439999999999998,0)" xlink:href="#aU"/><use transform="matrix(0.013333333333333332,0,0,0.013333333333333332,42.4,0)" xlink:href="#be"/></g><path fill="#3a414a" d="M1153-1030c0 232-137 352-319 413 34 19 63 47 88 83L1284 0h-242c-51 0-80-22-101-54L637-517c-24-34-42-48-98-48H424V0H155v-1446h441c324 4 557 105 557 416zm-263 20c0-163-114-229-294-228H424v480h168c180-3 298-77 298-252" id="bh"/><path fill="#3a414a" d="M605-850c-102 1-168 52-226 108V0H132v-1026c80 9 198-29 214 45l17 81c77-76 165-142 317-142 235 0 346 154 346 389V0H779v-653c0-121-55-198-174-197" id="bi"/><g id="y"><use transform="matrix(0.013333333333333332,0,0,0.013333333333333332,0,0)" xlink:href="#bh"/><use transform="matrix(0.013333333333333332,0,0,0.013333333333333332,17.466666666666665,0)" xlink:href="#bb"/><use transform="matrix(0.013333333333333332,0,0,0.013333333333333332,31.72,0)" xlink:href="#aX"/><use transform="matrix(0.013333333333333332,0,0,0.013333333333333332,44.44,0)" xlink:href="#bb"/><use transform="matrix(0.013333333333333332,0,0,0.013333333333333332,58.69333333333333,0)" xlink:href="#bi"/><use transform="matrix(0.013333333333333332,0,0,0.013333333333333332,73.85333333333332,0)" xlink:href="#bg"/></g><g id="z"><use transform="matrix(0.013333333333333332,0,0,0.013333333333333332,0,0)" xlink:href="#aS"/><use transform="matrix(0.013333333333333332,0,0,0.013333333333333332,16.666666666666664,0)" xlink:href="#aT"/><use transform="matrix(0.013333333333333332,0,0,0.013333333333333332,23.89333333333333,0)" xlink:href="#aU"/><use transform="matrix(0.013333333333333332,0,0,0.013333333333333332,37.37333333333333,0)" xlink:href="#aV"/><use transform="matrix(0.013333333333333332,0,0,0.013333333333333332,51.599999999999994,0)" xlink:href="#aW"/><use transform="matrix(0.013333333333333332,0,0,0.013333333333333332,66.8,0)" xlink:href="#aU"/><use transform="matrix(0.013333333333333332,0,0,0.013333333333333332,80.75999999999999,0)" xlink:href="#aX"/><use transform="matrix(0.013333333333333332,0,0,0.013333333333333332,93.47999999999999,0)" xlink:href="#aY"/></g><path fill="#3a414a" d="M519-204c146 0 246-70 241-211-6-175-195-185-333-232-183-63-339-153-333-400 5-199 120-319 272-380 126-51 311-44 437 5 72 27 133 64 184 112l-66 127c-15 40-64 51-105 25-64-41-136-87-246-85-132 3-224 54-224 182 0 167 202 176 334 227 173 67 333 144 333 381 0 227-120 364-289 433-138 56-353 39-478-16-80-35-154-80-210-138l78-129c23-34 74-43 115-13 73 54 157 112 290 112" id="bj"/><path fill="#3a414a" d="M605-850c-102 1-168 52-226 108V0H132v-1486h247v571c76-69 161-129 301-127 234 4 346 154 346 389V0H779v-653c0-121-55-198-174-197" id="bk"/><g id="A"><use transform="matrix(0.013333333333333332,0,0,0.013333333333333332,0,0)" xlink:href="#bj"/><use transform="matrix(0.013333333333333332,0,0,0.013333333333333332,14.306666666666665,0)" xlink:href="#bk"/><use transform="matrix(0.013333333333333332,0,0,0.013333333333333332,29.466666666666658,0)" xlink:href="#aU"/><use transform="matrix(0.013333333333333332,0,0,0.013333333333333332,43.42666666666666,0)" xlink:href="#aZ"/><use transform="matrix(0.013333333333333332,0,0,0.013333333333333332,54.31999999999999,0)" xlink:href="#bb"/></g><path fill="#3a414a" d="M1344-139C1208-39 1036 20 799 16c-345-5-555-181-657-435-70-174-66-421 0-596 113-299 413-484 839-421 148 22 259 85 350 168l-55 88c-38 58-99 7-135-18-118-82-379-113-543-44-193 82-310 256-310 526 0 276 118 454 313 536 175 73 436 36 567-45v-316H946c-65 1-35-91-42-148h440v550" id="bl"/><g id="B"><use transform="matrix(0.011111111111111112,0,0,0.011111111111111112,0,0)" xlink:href="#bl"/><use transform="matrix(0.011111111111111112,0,0,0.011111111111111112,16.31111111111111,0)" xlink:href="#ap"/><use transform="matrix(0.011111111111111112,0,0,0.011111111111111112,27.955555555555556,0)" xlink:href="#ab"/></g><g id="C"><use transform="matrix(0.011111111111111112,0,0,0.011111111111111112,0,0)" xlink:href="#W"/><use transform="matrix(0.011111111111111112,0,0,0.011111111111111112,11.422222222222222,0)" xlink:href="#Y"/><use transform="matrix(0.011111111111111112,0,0,0.011111111111111112,22.68888888888889,0)" xlink:href="#ab"/><use transform="matrix(0.011111111111111112,0,0,0.011111111111111112,30.977777777777778,0)" xlink:href="#ap"/><use transform="matrix(0.011111111111111112,0,0,0.011111111111111112,42.62222222222223,0)" xlink:href="#aj"/><use transform="matrix(0.011111111111111112,0,0,0.011111111111111112,52.266666666666666,0)" xlink:href="#ab"/></g><g id="D"><use transform="matrix(0.011111111111111112,0,0,0.011111111111111112,0,0)" xlink:href="#aa"/><use transform="matrix(0.011111111111111112,0,0,0.011111111111111112,16.733333333333334,0)" xlink:href="#ap"/><use transform="matrix(0.011111111111111112,0,0,0.011111111111111112,28.37777777777778,0)" xlink:href="#an"/><use transform="matrix(0.011111111111111112,0,0,0.011111111111111112,34.06666666666667,0)" xlink:href="#ab"/><use transform="matrix(0.011111111111111112,0,0,0.011111111111111112,42.35555555555556,0)" xlink:href="#Y"/></g><path fill="#3a414a" d="M1289-200C1173-69 1017 19 773 16c-339-4-539-180-634-435-65-176-67-421 3-594 104-257 318-431 668-436 220-3 359 75 476 182-27 35-48 75-79 105-60 21-86-37-135-56-109-71-336-85-474-24-190 83-310 257-310 526 0 268 114 444 301 527 146 65 383 42 487-33 24-17 50-36 75-59 20-19 44-22 62-2" id="bm"/><g id="E"><use transform="matrix(0.011111111111111112,0,0,0.011111111111111112,0,0)" xlink:href="#bm"/><use transform="matrix(0.011111111111111112,0,0,0.011111111111111112,15.222222222222223,0)" xlink:href="#ae"/><use transform="matrix(0.011111111111111112,0,0,0.011111111111111112,20.91111111111111,0)" xlink:href="#Z"/></g><g id="F"><use transform="matrix(0.011111111111111112,0,0,0.011111111111111112,0,0)" xlink:href="#aa"/><use transform="matrix(0.011111111111111112,0,0,0.011111111111111112,16.733333333333334,0)" xlink:href="#ap"/><use transform="matrix(0.011111111111111112,0,0,0.011111111111111112,28.37777777777778,0)" xlink:href="#an"/><use transform="matrix(0.011111111111111112,0,0,0.011111111111111112,34.06666666666667,0)" xlink:href="#ab"/><use transform="matrix(0.011111111111111112,0,0,0.011111111111111112,42.35555555555556,0)" xlink:href="#Y"/></g><g id="G"><use transform="matrix(0.011111111111111112,0,0,0.011111111111111112,0,0)" xlink:href="#at"/><use transform="matrix(0.011111111111111112,0,0,0.011111111111111112,12.911111111111111,0)" xlink:href="#ad"/><use transform="matrix(0.011111111111111112,0,0,0.011111111111111112,25.26666666666667,0)" xlink:href="#X"/><use transform="matrix(0.011111111111111112,0,0,0.011111111111111112,37.62222222222222,0)" xlink:href="#am"/><use transform="matrix(0.011111111111111112,0,0,0.011111111111111112,49.97777777777777,0)" xlink:href="#ah"/><use transform="matrix(0.011111111111111112,0,0,0.011111111111111112,61.33333333333333,0)" xlink:href="#ak"/></g><path fill="#3a414a" d="M593-1115c0-124-90-185-216-188-103-3-171 39-227 81-66 49-88-52-116-83 87-79 194-144 358-144 217 0 362 110 368 325 6 234-175 296-292 411-47 46-32 138-48 213H298c1-85-34-190 10-252 88-125 285-156 285-363zM354 15c-76 0-124-49-124-125s48-126 124-126 125 50 125 126c0 77-49 125-125 125" id="bn"/><g id="H"><use transform="matrix(0.011111111111111112,0,0,0.011111111111111112,0,0)" xlink:href="#aa"/><use transform="matrix(0.011111111111111112,0,0,0.011111111111111112,16.733333333333334,0)" xlink:href="#Y"/><use transform="matrix(0.011111111111111112,0,0,0.011111111111111112,28,0)" xlink:href="#ab"/><use transform="matrix(0.011111111111111112,0,0,0.011111111111111112,36.28888888888889,0)" xlink:href="#Y"/><use transform="matrix(0.011111111111111112,0,0,0.011111111111111112,47.55555555555556,0)" xlink:href="#bn"/></g><path fill="#3a414a" d="M895-142C799-8 539 62 344-21 173-94 74-262 74-507c0-317 160-522 477-522 151 0 254 54 333 132-21 26-39 58-63 81-42 20-68-19-100-34-42-20-91-42-160-40-219 6-304 160-304 383 0 220 82 376 295 383 106 4 169-38 223-84 22-19 53-21 70 1" id="bo"/><g id="I"><use transform="matrix(0.011111111111111112,0,0,0.011111111111111112,0,0)" xlink:href="#af"/><use transform="matrix(0.011111111111111112,0,0,0.011111111111111112,11.777777777777779,0)" xlink:href="#ap"/><use transform="matrix(0.011111111111111112,0,0,0.011111111111111112,23.422222222222224,0)" xlink:href="#an"/><use transform="matrix(0.011111111111111112,0,0,0.011111111111111112,29.11111111111111,0)" xlink:href="#ap"/><use transform="matrix(0.011111111111111112,0,0,0.011111111111111112,40.75555555555556,0)" xlink:href="#bo"/><use transform="matrix(0.011111111111111112,0,0,0.011111111111111112,51.13333333333333,0)" xlink:href="#ab"/></g><path fill="#3a414a" d="M18-1013h146c28-1 47 18 55 37l257 652c18 45 27 93 37 143 12-50 22-98 40-143l260-652c17-60 123-30 192-37L592 0H431" id="bp"/><g id="J"><use transform="matrix(0.011111111111111112,0,0,0.011111111111111112,0,0)" xlink:href="#aw"/><use transform="matrix(0.011111111111111112,0,0,0.011111111111111112,13.577777777777778,0)" xlink:href="#ag"/><use transform="matrix(0.011111111111111112,0,0,0.011111111111111112,22.53333333333333,0)" xlink:href="#ap"/><use transform="matrix(0.011111111111111112,0,0,0.011111111111111112,33.888888888888886,0)" xlink:href="#bp"/></g><g id="K"><use transform="matrix(0.011111111111111112,0,0,0.011111111111111112,0,0)" xlink:href="#aa"/><use transform="matrix(0.011111111111111112,0,0,0.011111111111111112,16.733333333333334,0)" xlink:href="#X"/><use transform="matrix(0.011111111111111112,0,0,0.011111111111111112,29.08888888888889,0)" xlink:href="#ad"/><use transform="matrix(0.011111111111111112,0,0,0.011111111111111112,41.44444444444444,0)" xlink:href="#ap"/></g><path fill="#333" d="M789-562V0H520v-562L-7-1446h237c50 0 72 27 90 60 102 188 210 370 305 564 12 25 22 51 31 76 20-56 40-105 69-157l263-483c15-28 44-60 89-60h238" id="bq"/><path fill="#333" d="M991-153C899-47 760 15 568 15 237 15 63-197 63-535c0-237 116-392 287-467 61-27 129-40 206-40 287 0 444 174 444 465 0 54-3 95-57 95H309c4 226 158 349 385 292 52-13 93-39 132-62 32-19 73-16 93 9zM778-631c-4-143-73-234-217-234-154 0-226 95-247 234h464" id="br"/><path fill="#333" d="M254-198c95 60 334 64 323-83-9-119-156-122-253-159C192-490 72-550 72-729c0-214 163-309 387-313 145-3 264 55 338 127-26 36-45 82-77 111-69 21-111-33-176-48-103-23-247 0-238 102 11 114 156 118 251 155 126 49 251 100 251 270C808-59 575 48 294 6 192-9 106-54 42-110c28-39 43-95 83-120 49-31 96 11 129 32" id="bs"/><g id="L"><use transform="matrix(0.008888888888888889,0,0,0.008888888888888889,0,0)" xlink:href="#bq"/><use transform="matrix(0.008888888888888889,0,0,0.008888888888888889,10.213333333333333,0)" xlink:href="#br"/><use transform="matrix(0.008888888888888889,0,0,0.008888888888888889,19.715555555555557,0)" xlink:href="#bs"/></g><path fill="#333" d="M377-1009c4 38 6 82 6 121V0H146v-1446c71 6 174-24 211 20 269 320 519 661 779 990-5-42-7-87-7-131v-879h237V0c-64-4-144 10-192-10-14-6-28-19-41-36" id="bt"/><path fill="#333" d="M361-1005c121-49 297-49 417 0 184 74 298 236 298 490 0 330-178 530-506 530C241 15 61-185 61-515c0-254 115-416 300-490zm-45 492c0 201 65 338 254 338 188 0 251-137 251-338s-63-340-251-340c-189 0-254 139-254 340" id="bu"/><g id="M"><use transform="matrix(0.008888888888888889,0,0,0.008888888888888889,0,0)" xlink:href="#bt"/><use transform="matrix(0.008888888888888889,0,0,0.008888888888888889,13.44,0)" xlink:href="#bu"/></g><g id="N"><use transform="matrix(0.011111111111111112,0,0,0.011111111111111112,0,0)" xlink:href="#av"/><use transform="matrix(0.011111111111111112,0,0,0.011111111111111112,12.577777777777778,0)" xlink:href="#ae"/><use transform="matrix(0.011111111111111112,0,0,0.011111111111111112,18.266666666666666,0)" xlink:href="#an"/><use transform="matrix(0.011111111111111112,0,0,0.011111111111111112,23.955555555555556,0)" xlink:href="#ab"/><use transform="matrix(0.011111111111111112,0,0,0.011111111111111112,32.24444444444445,0)" xlink:href="#ap"/><use transform="matrix(0.011111111111111112,0,0,0.011111111111111112,43.88888888888889,0)" xlink:href="#ag"/></g><g id="O"><use transform="matrix(0.011111111111111112,0,0,0.011111111111111112,0,0)" xlink:href="#bm"/><use transform="matrix(0.011111111111111112,0,0,0.011111111111111112,15.222222222222223,0)" xlink:href="#X"/><use transform="matrix(0.011111111111111112,0,0,0.011111111111111112,27.57777777777778,0)" xlink:href="#an"/><use transform="matrix(0.011111111111111112,0,0,0.011111111111111112,33.266666666666666,0)" xlink:href="#X"/><use transform="matrix(0.011111111111111112,0,0,0.011111111111111112,45.62222222222223,0)" xlink:href="#ag"/><use transform="matrix(0.011111111111111112,0,0,0.011111111111111112,54.57777777777778,0)" xlink:href="#at"/><use transform="matrix(0.011111111111111112,0,0,0.011111111111111112,67.48888888888888,0)" xlink:href="#bp"/><use transform="matrix(0.011111111111111112,0,0,0.011111111111111112,78.57777777777777,0)" xlink:href="#ap"/><use transform="matrix(0.011111111111111112,0,0,0.011111111111111112,90.22222222222221,0)" xlink:href="#ad"/><use transform="matrix(0.011111111111111112,0,0,0.011111111111111112,102.57777777777775,0)" xlink:href="#ab"/><use transform="matrix(0.011111111111111112,0,0,0.011111111111111112,110.86666666666665,0)" xlink:href="#aj"/></g><path fill="#3a414a" d="M353-563c7 250 130 409 378 409s377-159 377-408v-871h193v871c-5 275-133 450-332 535-136 58-340 59-476 0-200-85-333-259-333-535v-871h193v870" id="bv"/><g id="P"><use transform="matrix(0.011111111111111112,0,0,0.011111111111111112,0,0)" xlink:href="#bv"/><use transform="matrix(0.011111111111111112,0,0,0.011111111111111112,16.22222222222222,0)" xlink:href="#ag"/><use transform="matrix(0.011111111111111112,0,0,0.011111111111111112,25.177777777777777,0)" xlink:href="#an"/></g><path fill="#3a414a" d="M387-805c45-1 103 5 133-9 15-6 30-18 43-33l477-540c28-29 44-46 95-46h165L754-816c-26 27-46 49-79 65 43 14 65 39 93 72L1338 0c-92-7-205 17-256-41L587-610c-25-30-54-46-112-46h-88V0H194v-1433h193v628" id="bw"/><g id="Q"><use transform="matrix(0.011111111111111112,0,0,0.011111111111111112,0,0)" xlink:href="#at"/><use transform="matrix(0.011111111111111112,0,0,0.011111111111111112,12.911111111111111,0)" xlink:href="#ad"/><use transform="matrix(0.011111111111111112,0,0,0.011111111111111112,25.26666666666667,0)" xlink:href="#Z"/><use transform="matrix(0.011111111111111112,0,0,0.011111111111111112,37.68888888888889,0)" xlink:href="#al"/><use transform="matrix(0.011111111111111112,0,0,0.011111111111111112,52.06666666666667,0)" xlink:href="#bw"/></g><path fill="#3a414a" d="M594-1317c-165 0-237 72-235 231v93h293v129H365V0H186v-861c-49-9-113-4-146-29-24-17-10-67-14-103h160v-98c5-229 120-363 348-363 45 0 87 7 126 20l-4 89c-2 31-28 28-62 28" id="bx"/><g id="R"><use transform="matrix(0.011111111111111112,0,0,0.011111111111111112,0,0)" xlink:href="#Y"/><use transform="matrix(0.011111111111111112,0,0,0.011111111111111112,11.266666666666667,0)" xlink:href="#bx"/><use transform="matrix(0.011111111111111112,0,0,0.011111111111111112,18.755555555555556,0)" xlink:href="#ab"/><use transform="matrix(0.011111111111111112,0,0,0.011111111111111112,27.044444444444444,0)" xlink:href="#ap"/><use transform="matrix(0.011111111111111112,0,0,0.011111111111111112,38.68888888888889,0)" xlink:href="#ag"/></g><g id="S"><use transform="matrix(0.011111111111111112,0,0,0.011111111111111112,0,0)" xlink:href="#aa"/><use transform="matrix(0.011111111111111112,0,0,0.011111111111111112,16.733333333333334,0)" xlink:href="#ap"/><use transform="matrix(0.011111111111111112,0,0,0.011111111111111112,28.37777777777778,0)" xlink:href="#an"/><use transform="matrix(0.011111111111111112,0,0,0.011111111111111112,34.06666666666667,0)" xlink:href="#ab"/><use transform="matrix(0.011111111111111112,0,0,0.011111111111111112,42.35555555555556,0)" xlink:href="#Y"/><use transform="matrix(0.011111111111111112,0,0,0.011111111111111112,53.62222222222223,0)" xlink:href="#bn"/></g><g id="T"><use transform="matrix(0.011111111111111112,0,0,0.011111111111111112,0,0)" xlink:href="#av"/><use transform="matrix(0.011111111111111112,0,0,0.011111111111111112,12.577777777777778,0)" xlink:href="#ae"/><use transform="matrix(0.011111111111111112,0,0,0.011111111111111112,18.266666666666666,0)" xlink:href="#an"/><use transform="matrix(0.011111111111111112,0,0,0.011111111111111112,23.955555555555556,0)" xlink:href="#ab"/><use transform="matrix(0.011111111111111112,0,0,0.011111111111111112,32.24444444444445,0)" xlink:href="#ap"/><use transform="matrix(0.011111111111111112,0,0,0.011111111111111112,43.88888888888889,0)" xlink:href="#ag"/></g><path fill="#3a414a" d="M608 14c-142 0-221-61-286-144-9 50 6 130-55 130H152v-1473h179v606c78-87 176-162 331-162 283 0 384 222 384 516 0 237-93 406-254 487-54 27-116 40-184 40zm254-527c-2-212-53-374-258-374-136 0-207 69-273 153v490c56 77 120 120 237 120 208 0 296-164 294-389" id="by"/><g id="U"><use transform="matrix(0.011111111111111112,0,0,0.011111111111111112,0,0)" xlink:href="#by"/><use transform="matrix(0.011111111111111112,0,0,0.011111111111111112,12.422222222222222,0)" xlink:href="#ap"/><use transform="matrix(0.011111111111111112,0,0,0.011111111111111112,24.066666666666666,0)" xlink:href="#bx"/><use transform="matrix(0.011111111111111112,0,0,0.011111111111111112,31.555555555555557,0)" xlink:href="#X"/><use transform="matrix(0.011111111111111112,0,0,0.011111111111111112,43.91111111111111,0)" xlink:href="#ag"/><use transform="matrix(0.011111111111111112,0,0,0.011111111111111112,52.86666666666667,0)" xlink:href="#ap"/></g><g id="V"><use transform="matrix(0.011111111111111112,0,0,0.011111111111111112,0,0)" xlink:href="#av"/><use transform="matrix(0.011111111111111112,0,0,0.011111111111111112,12.577777777777778,0)" xlink:href="#Y"/><use transform="matrix(0.011111111111111112,0,0,0.011111111111111112,23.844444444444445,0)" xlink:href="#ae"/><use transform="matrix(0.011111111111111112,0,0,0.011111111111111112,29.533333333333335,0)" xlink:href="#an"/></g></defs></g></svg>